0
SECTION
2
HEADER
9
$ACADVER
1
AC1009
0
ENDSEC
0
SECTION
2
TABLES
0
TABLE
2
LAYER
70
7
0
LAYER
2
0
70
0
62
1
6
CONTINUOUS
0
LAYER
2
PIT_EXCAVATION
70
0
62
2
6
CONTINUOUS
0
LAYER
2
PIT_FRAME
70
0
62
3
6
CONTINUOUS
0
LAYER
2
PIT_GROUND
70
0
62
4
6
CONTINUOUS
0
LAYER
2
PIT_SUPPORT
70
0
62
5
6
CONTINUOUS
0
LAYER
2
PIT_TEXT
70
0
62
6
6
CONTINUOUS
0
LAYER
2
PIT_TITLE
70
0
62
7
6
CONTINUOUS
0
LAYER
2
PIT_WALE
70
0
62
1
6
CONTINUOUS
0
LAYER
2
PIT_WALL
70
0
62
2
6
CONTINUOUS
0
ENDTAB
0
ENDSEC
0
SECTION
2
ENTITIES
0
LINE
8
PIT_WALL
10
0.0000
20
-32.0000
30
0.0
11
0.0000
21
0.0000
31
0.0
0
LINE
8
PIT_EXCAVATION
10
-2.0000
20
-26.0000
30
0.0
11
12.0000
21
-26.0000
31
0.0
0
LINE
8
PIT_GROUND
10
-2.0000
20
0.0000
30
0.0
11
12.0000
21
0.0000
31
0.0
0
TEXT
8
PIT_TEXT
10
-1.8000
20
0.6000
30
0.0
40
0.3500
1
Ground EL 0.00m
50
0.0000
0
TEXT
8
PIT_TEXT
10
-1.8000
20
-26.8000
30
0.0
40
0.3500
1
Excavation bottom EL -26.00m
50
0.0000
0
LINE
8
PIT_SUPPORT
10
0.0000
20
-1.5000
30
0.0
11
9.0000
21
-1.5000
31
0.0
0
TEXT
8
PIT_TEXT
10
9.3000
20
-1.5000
30
0.0
40
0.3000
1
L1 SP-L1-1 EL -1.50
50
0.0000
0
LINE
8
PIT_SUPPORT
10
0.0000
20
-1.5000
30
0.0
11
9.0000
21
-1.5000
31
0.0
0
TEXT
8
PIT_TEXT
10
9.3000
20
-1.5000
30
0.0
40
0.3000
1
L1 SP-L1-2 EL -1.50
50
0.0000
0
LINE
8
PIT_SUPPORT
10
0.0000
20
-1.5000
30
0.0
11
9.0000
21
-1.5000
31
0.0
0
TEXT
8
PIT_TEXT
10
9.3000
20
-1.5000
30
0.0
40
0.3000
1
L1 SP-L1-3 EL -1.50
50
0.0000
0
LINE
8
PIT_SUPPORT
10
0.0000
20
-1.5000
30
0.0
11
9.0000
21
-1.5000
31
0.0
0
TEXT
8
PIT_TEXT
10
9.3000
20
-1.5000
30
0.0
40
0.3000
1
L1 SP-L1-4 EL -1.50
50
0.0000
0
LINE
8
PIT_SUPPORT
10
0.0000
20
-1.5000
30
0.0
11
9.0000
21
-1.5000
31
0.0
0
TEXT
8
PIT_TEXT
10
9.3000
20
-1.5000
30
0.0
40
0.3000
1
L1 SP-L1-5 EL -1.50
50
0.0000
0
LINE
8
PIT_SUPPORT
10
0.0000
20
-1.5000
30
0.0
11
9.0000
21
-1.5000
31
0.0
0
TEXT
8
PIT_TEXT
10
9.3000
20
-1.5000
30
0.0
40
0.3000
1
L1 SP-L1-6 EL -1.50
50
0.0000
0
LINE
8
PIT_SUPPORT
10
0.0000
20
-1.5000
30
0.0
11
9.0000
21
-1.5000
31
0.0
0
TEXT
8
PIT_TEXT
10
9.3000
20
-1.5000
30
0.0
40
0.3000
1
L1 SP-L1-7 EL -1.50
50
0.0000
0
LINE
8
PIT_SUPPORT
10
0.0000
20
-1.5000
30
0.0
11
9.0000
21
-1.5000
31
0.0
0
TEXT
8
PIT_TEXT
10
9.3000
20
-1.5000
30
0.0
40
0.3000
1
L1 SP-L1-8 EL -1.50
50
0.0000
0
LWPOLYLINE
8
PIT_WALE
90
4
70
1
10
-0.5000
20
-1.7500
10
0.5000
20
-1.7500
10
0.5000
20
-1.2500
10
-0.5000
20
-1.2500
0
LWPOLYLINE
8
PIT_WALE
90
4
70
1
10
-0.5000
20
-1.7500
10
0.5000
20
-1.7500
10
0.5000
20
-1.2500
10
-0.5000
20
-1.2500
0
LWPOLYLINE
8
PIT_WALE
90
4
70
1
10
-0.5000
20
-1.7500
10
0.5000
20
-1.7500
10
0.5000
20
-1.2500
10
-0.5000
20
-1.2500
0
LWPOLYLINE
8
PIT_WALE
90
4
70
1
10
-0.5000
20
-1.7500
10
0.5000
20
-1.7500
10
0.5000
20
-1.2500
10
-0.5000
20
-1.2500
0
LWPOLYLINE
8
PIT_WALE
90
4
70
1
10
-0.5000
20
-7.3750
10
0.5000
20
-7.3750
10
0.5000
20
-6.8750
10
-0.5000
20
-6.8750
0
LWPOLYLINE
8
PIT_WALE
90
4
70
1
10
-0.5000
20
-7.3750
10
0.5000
20
-7.3750
10
0.5000
20
-6.8750
10
-0.5000
20
-6.8750
0
LWPOLYLINE
8
PIT_WALE
90
4
70
1
10
-0.5000
20
-7.3750
10
0.5000
20
-7.3750
10
0.5000
20
-6.8750
10
-0.5000
20
-6.8750
0
LWPOLYLINE
8
PIT_WALE
90
4
70
1
10
-0.5000
20
-7.3750
10
0.5000
20
-7.3750
10
0.5000
20
-6.8750
10
-0.5000
20
-6.8750
0
TEXT
8
PIT_TITLE
10
-2.0000
20
-33.5000
30
0.0
40
0.4500
1
S-04 Typical excavation support section with staged bracing elevations
50
0.0000
0
LWPOLYLINE
8
PIT_FRAME
90
4
70
1
10
0.0000
20
-18.0000
10
120.0000
20
-18.0000
10
120.0000
20
-2.0000
10
0.0000
20
-2.0000
0
LINE
8
PIT_FRAME
10
18.0000
20
-18.0000
30
0.0
11
18.0000
21
-2.0000
31
0.0
0
LINE
8
PIT_FRAME
10
80.0000
20
-18.0000
30
0.0
11
80.0000
21
-2.0000
31
0.0
0
LINE
8
PIT_FRAME
10
95.0000
20
-18.0000
30
0.0
11
95.0000
21
-2.0000
31
0.0
0
LINE
8
PIT_FRAME
10
108.0000
20
-18.0000
30
0.0
11
108.0000
21
-2.0000
31
0.0
0
LINE
8
PIT_FRAME
10
0.0000
20
-14.0000
30
0.0
11
120.0000
21
-14.0000
31
0.0
0
LINE
8
PIT_FRAME
10
0.0000
20
-10.0000
30
0.0
11
120.0000
21
-10.0000
31
0.0
0
LINE
8
PIT_FRAME
10
0.0000
20
-6.0000
30
0.0
11
120.0000
21
-6.0000
31
0.0
0
TEXT
8
PIT_TITLE
10
2.0000
20
-5.0000
30
0.0
40
0.3500
1
工程名称
50
0.0000
0
TEXT
8
PIT_TEXT
10
20.0000
20
-5.0000
30
0.0
40
0.3500
1
邻近建筑影响的 32m 地连墙五道支撑顶顺结合基坑算例
50
0.0000
0
TEXT
8
PIT_TITLE
10
2.0000
20
-9.0000
30
0.0
40
0.3500
1
图名
50
0.0000
0
TEXT
8
PIT_TEXT
10
20.0000
20
-9.0000
30
0.0
40
0.3500
1
典型开挖剖面与支撑标高图
50
0.0000
0
TEXT
8
PIT_TITLE
10
2.0000
20
-13.0000
30
0.0
40
0.3500
1
阶段
50
0.0000
0
TEXT
8
PIT_TEXT
10
20.0000
20
-13.0000
30
0.0
40
0.3500
1
施工图深化接口
50
0.0000
0
TEXT
8
PIT_TITLE
10
82.0000
20
-5.0000
30
0.0
40
0.3500
1
图号
50
0.0000
0
TEXT
8
PIT_TEXT
10
97.0000
20
-5.0000
30
0.0
40
0.3500
1
S-04
50
0.0000
0
TEXT
8
PIT_TITLE
10
82.0000
20
-9.0000
30
0.0
40
0.3500
1
比例
50
0.0000
0
TEXT
8
PIT_TEXT
10
97.0000
20
-9.0000
30
0.0
40
0.3500
1
1:100
50
0.0000
0
TEXT
8
PIT_TITLE
10
82.0000
20
-13.0000
30
0.0
40
0.3500
1
设计
50
0.0000
0
TEXT
8
PIT_TEXT
10
97.0000
20
-13.0000
30
0.0
40
0.3500
1
AI
50
0.0000
0
TEXT
8
PIT_TITLE
10
82.0000
20
-17.0000
30
0.0
40
0.3500
1
校核
50
0.0000
0
TEXT
8
PIT_TEXT
10
97.0000
20
-17.0000
30
0.0
40
0.3500
1
REVIEW
50
0.0000
0
ENDSEC
0
EOF
