0
SECTION
2
HEADER
9
$ACADVER
1
AC1009
0
ENDSEC
0
SECTION
2
TABLES
0
TABLE
2
LAYER
70
6
0
LAYER
2
0
70
0
62
1
6
CONTINUOUS
0
LAYER
2
PIT_EXCAVATION
70
0
62
2
6
CONTINUOUS
0
LAYER
2
PIT_FRAME
70
0
62
3
6
CONTINUOUS
0
LAYER
2
PIT_MONITOR
70
0
62
4
6
CONTINUOUS
0
LAYER
2
PIT_MONITOR_FORCE
70
0
62
5
6
CONTINUOUS
0
LAYER
2
PIT_TEXT
70
0
62
6
6
CONTINUOUS
0
LAYER
2
PIT_TITLE
70
0
62
7
6
CONTINUOUS
0
ENDTAB
0
ENDSEC
0
SECTION
2
ENTITIES
0
LWPOLYLINE
8
PIT_EXCAVATION
90
4
70
1
10
0.0000
20
0.0000
10
90.0000
20
0.0000
10
90.0000
20
45.0000
10
0.0000
20
45.0000
0
CIRCLE
8
PIT_MONITOR
10
0.0000
20
0.0000
30
0.0
40
0.3500
0
TEXT
8
PIT_TEXT
10
0.4500
20
0.4500
30
0.0
40
0.2500
1
CX01
50
0.0000
0
CIRCLE
8
PIT_MONITOR
10
90.0000
20
0.0000
30
0.0
40
0.3500
0
TEXT
8
PIT_TEXT
10
90.4500
20
0.4500
30
0.0
40
0.2500
1
CX02
50
0.0000
0
CIRCLE
8
PIT_MONITOR
10
90.0000
20
45.0000
30
0.0
40
0.3500
0
TEXT
8
PIT_TEXT
10
90.4500
20
45.4500
30
0.0
40
0.2500
1
CX03
50
0.0000
0
CIRCLE
8
PIT_MONITOR
10
0.0000
20
45.0000
30
0.0
40
0.3500
0
TEXT
8
PIT_TEXT
10
0.4500
20
45.4500
30
0.0
40
0.2500
1
CX04
50
0.0000
0
CIRCLE
8
PIT_MONITOR
10
45.0000
20
0.0000
30
0.0
40
0.2500
0
TEXT
8
PIT_TEXT
10
45.3500
20
-0.3500
30
0.0
40
0.2500
1
WY01
50
0.0000
0
CIRCLE
8
PIT_MONITOR
10
90.0000
20
22.5000
30
0.0
40
0.2500
0
TEXT
8
PIT_TEXT
10
90.3500
20
22.1500
30
0.0
40
0.2500
1
WY02
50
0.0000
0
CIRCLE
8
PIT_MONITOR
10
45.0000
20
45.0000
30
0.0
40
0.2500
0
TEXT
8
PIT_TEXT
10
45.3500
20
44.6500
30
0.0
40
0.2500
1
WY03
50
0.0000
0
CIRCLE
8
PIT_MONITOR
10
0.0000
20
22.5000
30
0.0
40
0.2500
0
TEXT
8
PIT_TEXT
10
0.3500
20
22.1500
30
0.0
40
0.2500
1
WY04
50
0.0000
0
CIRCLE
8
PIT_MONITOR_FORCE
10
36.7170
20
22.5000
30
0.0
40
0.2800
0
TEXT
8
PIT_TEXT
10
37.0670
20
22.5000
30
0.0
40
0.2500
1
ZL09
50
0.0000
0
CIRCLE
8
PIT_MONITOR_FORCE
10
68.9350
20
22.5000
30
0.0
40
0.2800
0
TEXT
8
PIT_TEXT
10
69.2850
20
22.5000
30
0.0
40
0.2500
1
ZL18
50
0.0000
0
CIRCLE
8
PIT_MONITOR_FORCE
10
21.0650
20
22.5000
30
0.0
40
0.2800
0
TEXT
8
PIT_TEXT
10
21.4150
20
22.5000
30
0.0
40
0.2500
1
ZL27
50
0.0000
0
CIRCLE
8
PIT_MONITOR_FORCE
10
53.2830
20
22.5000
30
0.0
40
0.2800
0
TEXT
8
PIT_TEXT
10
53.6330
20
22.5000
30
0.0
40
0.2500
1
ZL36
50
0.0000
0
CIRCLE
8
PIT_MONITOR_FORCE
10
5.4130
20
22.5000
30
0.0
40
0.2800
0
TEXT
8
PIT_TEXT
10
5.7630
20
22.5000
30
0.0
40
0.2500
1
ZL45
50
0.0000
0
CIRCLE
8
PIT_MONITOR_FORCE
10
37.6300
20
22.5000
30
0.0
40
0.2800
0
TEXT
8
PIT_TEXT
10
37.9800
20
22.5000
30
0.0
40
0.2500
1
ZL54
50
0.0000
0
CIRCLE
8
PIT_MONITOR_FORCE
10
75.8480
20
22.5000
30
0.0
40
0.2800
0
TEXT
8
PIT_TEXT
10
76.1980
20
22.5000
30
0.0
40
0.2500
1
ZL63
50
0.0000
0
CIRCLE
8
PIT_MONITOR_FORCE
10
21.9780
20
22.5000
30
0.0
40
0.2800
0
TEXT
8
PIT_TEXT
10
22.3280
20
22.5000
30
0.0
40
0.2500
1
ZL72
50
0.0000
0
TEXT
8
PIT_TITLE
10
0.0000
20
-6.0000
30
0.0
40
0.4500
1
S-06 Monitoring layout: wall displacement, settlement and support axial-force points
50
0.0000
0
LWPOLYLINE
8
PIT_FRAME
90
4
70
1
10
0.0000
20
-18.0000
10
120.0000
20
-18.0000
10
120.0000
20
-2.0000
10
0.0000
20
-2.0000
0
LINE
8
PIT_FRAME
10
18.0000
20
-18.0000
30
0.0
11
18.0000
21
-2.0000
31
0.0
0
LINE
8
PIT_FRAME
10
80.0000
20
-18.0000
30
0.0
11
80.0000
21
-2.0000
31
0.0
0
LINE
8
PIT_FRAME
10
95.0000
20
-18.0000
30
0.0
11
95.0000
21
-2.0000
31
0.0
0
LINE
8
PIT_FRAME
10
108.0000
20
-18.0000
30
0.0
11
108.0000
21
-2.0000
31
0.0
0
LINE
8
PIT_FRAME
10
0.0000
20
-14.0000
30
0.0
11
120.0000
21
-14.0000
31
0.0
0
LINE
8
PIT_FRAME
10
0.0000
20
-10.0000
30
0.0
11
120.0000
21
-10.0000
31
0.0
0
LINE
8
PIT_FRAME
10
0.0000
20
-6.0000
30
0.0
11
120.0000
21
-6.0000
31
0.0
0
TEXT
8
PIT_TITLE
10
2.0000
20
-5.0000
30
0.0
40
0.3500
1
工程名称
50
0.0000
0
TEXT
8
PIT_TEXT
10
20.0000
20
-5.0000
30
0.0
40
0.3500
1
邻近建筑影响的 32m 地连墙五道支撑顶顺结合基坑算例
50
0.0000
0
TEXT
8
PIT_TITLE
10
2.0000
20
-9.0000
30
0.0
40
0.3500
1
图名
50
0.0000
0
TEXT
8
PIT_TEXT
10
20.0000
20
-9.0000
30
0.0
40
0.3500
1
监测点布置图
50
0.0000
0
TEXT
8
PIT_TITLE
10
2.0000
20
-13.0000
30
0.0
40
0.3500
1
阶段
50
0.0000
0
TEXT
8
PIT_TEXT
10
20.0000
20
-13.0000
30
0.0
40
0.3500
1
施工图深化接口
50
0.0000
0
TEXT
8
PIT_TITLE
10
82.0000
20
-5.0000
30
0.0
40
0.3500
1
图号
50
0.0000
0
TEXT
8
PIT_TEXT
10
97.0000
20
-5.0000
30
0.0
40
0.3500
1
S-06
50
0.0000
0
TEXT
8
PIT_TITLE
10
82.0000
20
-9.0000
30
0.0
40
0.3500
1
比例
50
0.0000
0
TEXT
8
PIT_TEXT
10
97.0000
20
-9.0000
30
0.0
40
0.3500
1
1:200
50
0.0000
0
TEXT
8
PIT_TITLE
10
82.0000
20
-13.0000
30
0.0
40
0.3500
1
设计
50
0.0000
0
TEXT
8
PIT_TEXT
10
97.0000
20
-13.0000
30
0.0
40
0.3500
1
AI
50
0.0000
0
TEXT
8
PIT_TITLE
10
82.0000
20
-17.0000
30
0.0
40
0.3500
1
校核
50
0.0000
0
TEXT
8
PIT_TEXT
10
97.0000
20
-17.0000
30
0.0
40
0.3500
1
REVIEW
50
0.0000
0
ENDSEC
0
EOF
