0
SECTION
2
HEADER
9
$ACADVER
1
AC1009
0
ENDSEC
0
SECTION
2
TABLES
0
TABLE
2
LAYER
70
6
0
LAYER
2
0
70
0
62
1
6
CONTINUOUS
0
LAYER
2
PIT_CONCRETE
70
0
62
2
6
CONTINUOUS
0
LAYER
2
PIT_FRAME
70
0
62
3
6
CONTINUOUS
0
LAYER
2
PIT_REBAR_DISTRIBUTION
70
0
62
4
6
CONTINUOUS
0
LAYER
2
PIT_REBAR_MAIN
70
0
62
5
6
CONTINUOUS
0
LAYER
2
PIT_TEXT
70
0
62
6
6
CONTINUOUS
0
LAYER
2
PIT_TITLE
70
0
62
7
6
CONTINUOUS
0
ENDTAB
0
ENDSEC
0
SECTION
2
ENTITIES
0
LWPOLYLINE
8
PIT_CONCRETE
90
4
70
1
10
0.0000
20
0.0000
10
90.0000
20
0.0000
10
90.0000
20
27.8250
10
0.0000
20
27.8250
0
LINE
8
PIT_REBAR_MAIN
10
0.3500
20
0.2500
30
0.0
11
0.3500
21
27.5750
31
0.0
0
LINE
8
PIT_REBAR_MAIN
10
10.2722
20
0.2500
30
0.0
11
10.2722
21
27.5750
31
0.0
0
LINE
8
PIT_REBAR_MAIN
10
20.1944
20
0.2500
30
0.0
11
20.1944
21
27.5750
31
0.0
0
LINE
8
PIT_REBAR_MAIN
10
30.1167
20
0.2500
30
0.0
11
30.1167
21
27.5750
31
0.0
0
LINE
8
PIT_REBAR_MAIN
10
40.0389
20
0.2500
30
0.0
11
40.0389
21
27.5750
31
0.0
0
LINE
8
PIT_REBAR_MAIN
10
49.9611
20
0.2500
30
0.0
11
49.9611
21
27.5750
31
0.0
0
LINE
8
PIT_REBAR_MAIN
10
59.8833
20
0.2500
30
0.0
11
59.8833
21
27.5750
31
0.0
0
LINE
8
PIT_REBAR_MAIN
10
69.8056
20
0.2500
30
0.0
11
69.8056
21
27.5750
31
0.0
0
LINE
8
PIT_REBAR_MAIN
10
79.7278
20
0.2500
30
0.0
11
79.7278
21
27.5750
31
0.0
0
LINE
8
PIT_REBAR_MAIN
10
89.6500
20
0.2500
30
0.0
11
89.6500
21
27.5750
31
0.0
0
LINE
8
PIT_REBAR_MAIN
10
0.3500
20
0.2500
30
0.0
11
0.3500
21
27.5750
31
0.0
0
LINE
8
PIT_REBAR_MAIN
10
10.2722
20
0.2500
30
0.0
11
10.2722
21
27.5750
31
0.0
0
LINE
8
PIT_REBAR_MAIN
10
20.1944
20
0.2500
30
0.0
11
20.1944
21
27.5750
31
0.0
0
LINE
8
PIT_REBAR_MAIN
10
30.1167
20
0.2500
30
0.0
11
30.1167
21
27.5750
31
0.0
0
LINE
8
PIT_REBAR_MAIN
10
40.0389
20
0.2500
30
0.0
11
40.0389
21
27.5750
31
0.0
0
LINE
8
PIT_REBAR_MAIN
10
49.9611
20
0.2500
30
0.0
11
49.9611
21
27.5750
31
0.0
0
LINE
8
PIT_REBAR_MAIN
10
59.8833
20
0.2500
30
0.0
11
59.8833
21
27.5750
31
0.0
0
LINE
8
PIT_REBAR_MAIN
10
69.8056
20
0.2500
30
0.0
11
69.8056
21
27.5750
31
0.0
0
LINE
8
PIT_REBAR_MAIN
10
79.7278
20
0.2500
30
0.0
11
79.7278
21
27.5750
31
0.0
0
LINE
8
PIT_REBAR_MAIN
10
89.6500
20
0.2500
30
0.0
11
89.6500
21
27.5750
31
0.0
0
LINE
8
PIT_REBAR_DISTRIBUTION
10
0.2000
20
0.4000
30
0.0
11
89.8000
21
0.4000
31
0.0
0
LINE
8
PIT_REBAR_DISTRIBUTION
10
0.2000
20
2.8568
30
0.0
11
89.8000
21
2.8568
31
0.0
0
LINE
8
PIT_REBAR_DISTRIBUTION
10
0.2000
20
5.3136
30
0.0
11
89.8000
21
5.3136
31
0.0
0
LINE
8
PIT_REBAR_DISTRIBUTION
10
0.2000
20
7.7705
30
0.0
11
89.8000
21
7.7705
31
0.0
0
LINE
8
PIT_REBAR_DISTRIBUTION
10
0.2000
20
10.2273
30
0.0
11
89.8000
21
10.2273
31
0.0
0
LINE
8
PIT_REBAR_DISTRIBUTION
10
0.2000
20
12.6841
30
0.0
11
89.8000
21
12.6841
31
0.0
0
LINE
8
PIT_REBAR_DISTRIBUTION
10
0.2000
20
15.1409
30
0.0
11
89.8000
21
15.1409
31
0.0
0
LINE
8
PIT_REBAR_DISTRIBUTION
10
0.2000
20
17.5977
30
0.0
11
89.8000
21
17.5977
31
0.0
0
LINE
8
PIT_REBAR_DISTRIBUTION
10
0.2000
20
20.0545
30
0.0
11
89.8000
21
20.0545
31
0.0
0
LINE
8
PIT_REBAR_DISTRIBUTION
10
0.2000
20
22.5114
30
0.0
11
89.8000
21
22.5114
31
0.0
0
LINE
8
PIT_REBAR_DISTRIBUTION
10
0.2000
20
24.9682
30
0.0
11
89.8000
21
24.9682
31
0.0
0
LINE
8
PIT_REBAR_DISTRIBUTION
10
0.2000
20
27.4250
30
0.0
11
89.8000
21
27.4250
31
0.0
0
TEXT
8
PIT_TEXT
10
0.0000
20
28.8250
30
0.0
40
0.4500
1
Typical diaphragm wall cage: DW-S1-001
50
0.0000
0
TEXT
8
PIT_TEXT
10
0.0000
20
-1.0000
30
0.0
40
0.2800
1
坑内侧竖向主筋 D36@100; 坑外侧竖向主筋 D36@100; 水平分布筋 D18@180; 拉结筋/架立筋 D12@450
50
0.0000
0
LWPOLYLINE
8
PIT_FRAME
90
4
70
1
10
0.0000
20
-18.0000
10
120.0000
20
-18.0000
10
120.0000
20
-2.0000
10
0.0000
20
-2.0000
0
LINE
8
PIT_FRAME
10
18.0000
20
-18.0000
30
0.0
11
18.0000
21
-2.0000
31
0.0
0
LINE
8
PIT_FRAME
10
80.0000
20
-18.0000
30
0.0
11
80.0000
21
-2.0000
31
0.0
0
LINE
8
PIT_FRAME
10
95.0000
20
-18.0000
30
0.0
11
95.0000
21
-2.0000
31
0.0
0
LINE
8
PIT_FRAME
10
108.0000
20
-18.0000
30
0.0
11
108.0000
21
-2.0000
31
0.0
0
LINE
8
PIT_FRAME
10
0.0000
20
-14.0000
30
0.0
11
120.0000
21
-14.0000
31
0.0
0
LINE
8
PIT_FRAME
10
0.0000
20
-10.0000
30
0.0
11
120.0000
21
-10.0000
31
0.0
0
LINE
8
PIT_FRAME
10
0.0000
20
-6.0000
30
0.0
11
120.0000
21
-6.0000
31
0.0
0
TEXT
8
PIT_TITLE
10
2.0000
20
-5.0000
30
0.0
40
0.3500
1
工程名称
50
0.0000
0
TEXT
8
PIT_TEXT
10
20.0000
20
-5.0000
30
0.0
40
0.3500
1
上海软土超大面积分区开挖基坑规范算法回归算例
50
0.0000
0
TEXT
8
PIT_TITLE
10
2.0000
20
-9.0000
30
0.0
40
0.3500
1
图名
50
0.0000
0
TEXT
8
PIT_TEXT
10
20.0000
20
-9.0000
30
0.0
40
0.3500
1
地下连续墙钢筋笼配筋图
50
0.0000
0
TEXT
8
PIT_TITLE
10
2.0000
20
-13.0000
30
0.0
40
0.3500
1
阶段
50
0.0000
0
TEXT
8
PIT_TEXT
10
20.0000
20
-13.0000
30
0.0
40
0.3500
1
施工图深化接口
50
0.0000
0
TEXT
8
PIT_TITLE
10
82.0000
20
-5.0000
30
0.0
40
0.3500
1
图号
50
0.0000
0
TEXT
8
PIT_TEXT
10
97.0000
20
-5.0000
30
0.0
40
0.3500
1
S-02
50
0.0000
0
TEXT
8
PIT_TITLE
10
82.0000
20
-9.0000
30
0.0
40
0.3500
1
比例
50
0.0000
0
TEXT
8
PIT_TEXT
10
97.0000
20
-9.0000
30
0.0
40
0.3500
1
1:50
50
0.0000
0
TEXT
8
PIT_TITLE
10
82.0000
20
-13.0000
30
0.0
40
0.3500
1
设计
50
0.0000
0
TEXT
8
PIT_TEXT
10
97.0000
20
-13.0000
30
0.0
40
0.3500
1
AI
50
0.0000
0
TEXT
8
PIT_TITLE
10
82.0000
20
-17.0000
30
0.0
40
0.3500
1
校核
50
0.0000
0
TEXT
8
PIT_TEXT
10
97.0000
20
-17.0000
30
0.0
40
0.3500
1
REVIEW
50
0.0000
0
ENDSEC
0
EOF
