0
SECTION
2
HEADER
9
$ACADVER
1
AC1009
0
ENDSEC
0
SECTION
2
TABLES
0
TABLE
2
LAYER
70
6
0
LAYER
2
0
70
0
62
1
6
CONTINUOUS
0
LAYER
2
PIT_EXCAVATION
70
0
62
2
6
CONTINUOUS
0
LAYER
2
PIT_FRAME
70
0
62
3
6
CONTINUOUS
0
LAYER
2
PIT_MONITOR
70
0
62
4
6
CONTINUOUS
0
LAYER
2
PIT_MONITOR_FORCE
70
0
62
5
6
CONTINUOUS
0
LAYER
2
PIT_TEXT
70
0
62
6
6
CONTINUOUS
0
LAYER
2
PIT_TITLE
70
0
62
7
6
CONTINUOUS
0
ENDTAB
0
ENDSEC
0
SECTION
2
ENTITIES
0
LWPOLYLINE
8
PIT_EXCAVATION
90
4
70
1
10
0.0000
20
0.0000
10
90.0000
20
0.0000
10
90.0000
20
52.9410
10
0.0000
20
52.9410
0
CIRCLE
8
PIT_MONITOR
10
0.0000
20
0.0000
30
0.0
40
0.3500
0
TEXT
8
PIT_TEXT
10
0.4500
20
0.4500
30
0.0
40
0.2500
1
CX01
50
0.0000
0
CIRCLE
8
PIT_MONITOR
10
90.0000
20
0.0000
30
0.0
40
0.3500
0
TEXT
8
PIT_TEXT
10
90.4500
20
0.4500
30
0.0
40
0.2500
1
CX02
50
0.0000
0
CIRCLE
8
PIT_MONITOR
10
90.0000
20
52.9410
30
0.0
40
0.3500
0
TEXT
8
PIT_TEXT
10
90.4500
20
53.3910
30
0.0
40
0.2500
1
CX03
50
0.0000
0
CIRCLE
8
PIT_MONITOR
10
0.0000
20
52.9410
30
0.0
40
0.3500
0
TEXT
8
PIT_TEXT
10
0.4500
20
53.3910
30
0.0
40
0.2500
1
CX04
50
0.0000
0
CIRCLE
8
PIT_MONITOR
10
45.0000
20
0.0000
30
0.0
40
0.2500
0
TEXT
8
PIT_TEXT
10
45.3500
20
-0.3500
30
0.0
40
0.2500
1
WY01
50
0.0000
0
CIRCLE
8
PIT_MONITOR
10
90.0000
20
26.4705
30
0.0
40
0.2500
0
TEXT
8
PIT_TEXT
10
90.3500
20
26.1205
30
0.0
40
0.2500
1
WY02
50
0.0000
0
CIRCLE
8
PIT_MONITOR
10
45.0000
20
52.9410
30
0.0
40
0.2500
0
TEXT
8
PIT_TEXT
10
45.3500
20
52.5910
30
0.0
40
0.2500
1
WY03
50
0.0000
0
CIRCLE
8
PIT_MONITOR
10
0.0000
20
26.4705
30
0.0
40
0.2500
0
TEXT
8
PIT_TEXT
10
0.3500
20
26.1205
30
0.0
40
0.2500
1
WY04
50
0.0000
0
CIRCLE
8
PIT_MONITOR_FORCE
10
21.0650
20
26.4705
30
0.0
40
0.2800
0
TEXT
8
PIT_TEXT
10
21.4150
20
26.4705
30
0.0
40
0.2500
1
ZL05
50
0.0000
0
CIRCLE
8
PIT_MONITOR_FORCE
10
37.1300
20
26.4705
30
0.0
40
0.2800
0
TEXT
8
PIT_TEXT
10
37.4800
20
26.4705
30
0.0
40
0.2500
1
ZL10
50
0.0000
0
CIRCLE
8
PIT_MONITOR_FORCE
10
68.0220
20
26.4705
30
0.0
40
0.2800
0
TEXT
8
PIT_TEXT
10
68.3720
20
26.4705
30
0.0
40
0.2500
1
ZL15
50
0.0000
0
CIRCLE
8
PIT_MONITOR_FORCE
10
84.5870
20
26.4705
30
0.0
40
0.2800
0
TEXT
8
PIT_TEXT
10
84.9370
20
26.4705
30
0.0
40
0.2500
1
ZL20
50
0.0000
0
CIRCLE
8
PIT_MONITOR_FORCE
10
21.0650
20
26.4705
30
0.0
40
0.2800
0
TEXT
8
PIT_TEXT
10
21.4150
20
26.4705
30
0.0
40
0.2500
1
ZL25
50
0.0000
0
CIRCLE
8
PIT_MONITOR_FORCE
10
37.1300
20
26.4705
30
0.0
40
0.2800
0
TEXT
8
PIT_TEXT
10
37.4800
20
26.4705
30
0.0
40
0.2500
1
ZL30
50
0.0000
0
CIRCLE
8
PIT_MONITOR_FORCE
10
68.0220
20
26.4705
30
0.0
40
0.2800
0
TEXT
8
PIT_TEXT
10
68.3720
20
26.4705
30
0.0
40
0.2500
1
ZL35
50
0.0000
0
CIRCLE
8
PIT_MONITOR_FORCE
10
84.5870
20
26.4705
30
0.0
40
0.2800
0
TEXT
8
PIT_TEXT
10
84.9370
20
26.4705
30
0.0
40
0.2500
1
ZL40
50
0.0000
0
CIRCLE
8
PIT_MONITOR_FORCE
10
21.0650
20
26.4705
30
0.0
40
0.2800
0
TEXT
8
PIT_TEXT
10
21.4150
20
26.4705
30
0.0
40
0.2500
1
ZL45
50
0.0000
0
CIRCLE
8
PIT_MONITOR_FORCE
10
37.1300
20
26.4705
30
0.0
40
0.2800
0
TEXT
8
PIT_TEXT
10
37.4800
20
26.4705
30
0.0
40
0.2500
1
ZL50
50
0.0000
0
CIRCLE
8
PIT_MONITOR_FORCE
10
68.0220
20
26.4705
30
0.0
40
0.2800
0
TEXT
8
PIT_TEXT
10
68.3720
20
26.4705
30
0.0
40
0.2500
1
ZL55
50
0.0000
0
CIRCLE
8
PIT_MONITOR_FORCE
10
84.5870
20
26.4705
30
0.0
40
0.2800
0
TEXT
8
PIT_TEXT
10
84.9370
20
26.4705
30
0.0
40
0.2500
1
ZL60
50
0.0000
0
TEXT
8
PIT_TITLE
10
0.0000
20
-6.0000
30
0.0
40
0.4500
1
S-06 Monitoring layout: wall displacement, settlement and support axial-force points
50
0.0000
0
LWPOLYLINE
8
PIT_FRAME
90
4
70
1
10
0.0000
20
-18.0000
10
120.0000
20
-18.0000
10
120.0000
20
-2.0000
10
0.0000
20
-2.0000
0
LINE
8
PIT_FRAME
10
18.0000
20
-18.0000
30
0.0
11
18.0000
21
-2.0000
31
0.0
0
LINE
8
PIT_FRAME
10
80.0000
20
-18.0000
30
0.0
11
80.0000
21
-2.0000
31
0.0
0
LINE
8
PIT_FRAME
10
95.0000
20
-18.0000
30
0.0
11
95.0000
21
-2.0000
31
0.0
0
LINE
8
PIT_FRAME
10
108.0000
20
-18.0000
30
0.0
11
108.0000
21
-2.0000
31
0.0
0
LINE
8
PIT_FRAME
10
0.0000
20
-14.0000
30
0.0
11
120.0000
21
-14.0000
31
0.0
0
LINE
8
PIT_FRAME
10
0.0000
20
-10.0000
30
0.0
11
120.0000
21
-10.0000
31
0.0
0
LINE
8
PIT_FRAME
10
0.0000
20
-6.0000
30
0.0
11
120.0000
21
-6.0000
31
0.0
0
TEXT
8
PIT_TITLE
10
2.0000
20
-5.0000
30
0.0
40
0.3500
1
工程名称
50
0.0000
0
TEXT
8
PIT_TEXT
10
20.0000
20
-5.0000
30
0.0
40
0.3500
1
上海软土超大面积分区开挖基坑规范算法回归算例
50
0.0000
0
TEXT
8
PIT_TITLE
10
2.0000
20
-9.0000
30
0.0
40
0.3500
1
图名
50
0.0000
0
TEXT
8
PIT_TEXT
10
20.0000
20
-9.0000
30
0.0
40
0.3500
1
监测点布置图
50
0.0000
0
TEXT
8
PIT_TITLE
10
2.0000
20
-13.0000
30
0.0
40
0.3500
1
阶段
50
0.0000
0
TEXT
8
PIT_TEXT
10
20.0000
20
-13.0000
30
0.0
40
0.3500
1
施工图深化接口
50
0.0000
0
TEXT
8
PIT_TITLE
10
82.0000
20
-5.0000
30
0.0
40
0.3500
1
图号
50
0.0000
0
TEXT
8
PIT_TEXT
10
97.0000
20
-5.0000
30
0.0
40
0.3500
1
S-06
50
0.0000
0
TEXT
8
PIT_TITLE
10
82.0000
20
-9.0000
30
0.0
40
0.3500
1
比例
50
0.0000
0
TEXT
8
PIT_TEXT
10
97.0000
20
-9.0000
30
0.0
40
0.3500
1
1:200
50
0.0000
0
TEXT
8
PIT_TITLE
10
82.0000
20
-13.0000
30
0.0
40
0.3500
1
设计
50
0.0000
0
TEXT
8
PIT_TEXT
10
97.0000
20
-13.0000
30
0.0
40
0.3500
1
AI
50
0.0000
0
TEXT
8
PIT_TITLE
10
82.0000
20
-17.0000
30
0.0
40
0.3500
1
校核
50
0.0000
0
TEXT
8
PIT_TEXT
10
97.0000
20
-17.0000
30
0.0
40
0.3500
1
REVIEW
50
0.0000
0
ENDSEC
0
EOF
