0
SECTION
2
HEADER
9
$ACADVER
1
AC1009
0
ENDSEC
0
SECTION
2
TABLES
0
TABLE
2
LAYER
70
8
0
LAYER
2
0
70
0
62
1
6
CONTINUOUS
0
LAYER
2
PIT_COLUMN
70
0
62
2
6
CONTINUOUS
0
LAYER
2
PIT_DIM
70
0
62
3
6
CONTINUOUS
0
LAYER
2
PIT_EXCAVATION
70
0
62
4
6
CONTINUOUS
0
LAYER
2
PIT_FRAME
70
0
62
5
6
CONTINUOUS
0
LAYER
2
PIT_SUPPORT
70
0
62
6
6
CONTINUOUS
0
LAYER
2
PIT_TEXT
70
0
62
7
6
CONTINUOUS
0
LAYER
2
PIT_TITLE
70
0
62
1
6
CONTINUOUS
0
LAYER
2
PIT_WALE
70
0
62
2
6
CONTINUOUS
0
LAYER
2
PIT_WALL
70
0
62
3
6
CONTINUOUS
0
ENDTAB
0
ENDSEC
0
SECTION
2
ENTITIES
0
LWPOLYLINE
8
PIT_EXCAVATION
90
8
70
1
10
76.0000
20
38.0000
10
64.8701
20
64.8701
10
38.0000
20
76.0000
10
11.1299
20
64.8701
10
0.0000
20
38.0000
10
11.1299
20
11.1299
10
38.0000
20
0.0000
10
64.8701
20
11.1299
0
LINE
8
PIT_WALL
10
76.0000
20
38.0000
30
0.0
11
64.8701
21
64.8701
31
0.0
0
TEXT
8
PIT_TEXT
10
70.4350
20
51.4350
30
0.0
40
0.3500
1
DW-S1-001 t=1.2m
50
112.5000
0
LINE
8
PIT_WALL
10
64.8701
20
64.8701
30
0.0
11
38.0000
21
76.0000
31
0.0
0
TEXT
8
PIT_TEXT
10
51.4350
20
70.4350
30
0.0
40
0.3500
1
DW-S2-001 t=1.2m
50
157.5000
0
LINE
8
PIT_WALL
10
38.0000
20
76.0000
30
0.0
11
11.1299
21
64.8701
31
0.0
0
TEXT
8
PIT_TEXT
10
24.5650
20
70.4350
30
0.0
40
0.3500
1
DW-S3-001 t=1.2m
50
-157.5000
0
LINE
8
PIT_WALL
10
11.1299
20
64.8701
30
0.0
11
0.0000
21
38.0000
31
0.0
0
TEXT
8
PIT_TEXT
10
5.5650
20
51.4350
30
0.0
40
0.3500
1
DW-S4-001 t=1.2m
50
-112.5000
0
LINE
8
PIT_WALL
10
0.0000
20
38.0000
30
0.0
11
11.1299
21
11.1299
31
0.0
0
TEXT
8
PIT_TEXT
10
5.5650
20
24.5650
30
0.0
40
0.3500
1
DW-S5-001 t=1.2m
50
-67.5000
0
LINE
8
PIT_WALL
10
11.1299
20
11.1299
30
0.0
11
38.0000
21
0.0000
31
0.0
0
TEXT
8
PIT_TEXT
10
24.5650
20
5.5650
30
0.0
40
0.3500
1
DW-S6-001 t=1.2m
50
-22.5000
0
LINE
8
PIT_WALL
10
38.0000
20
0.0000
30
0.0
11
64.8701
21
11.1299
31
0.0
0
TEXT
8
PIT_TEXT
10
51.4350
20
5.5650
30
0.0
40
0.3500
1
DW-S7-001 t=1.2m
50
22.5000
0
LINE
8
PIT_WALL
10
64.8701
20
11.1299
30
0.0
11
76.0000
21
38.0000
31
0.0
0
TEXT
8
PIT_TEXT
10
70.4350
20
24.5650
30
0.0
40
0.3500
1
DW-S8-001 t=1.2m
50
67.5000
0
LINE
8
PIT_WALE
10
76.0000
20
38.0000
30
0.0
11
64.8701
21
64.8701
31
0.0
0
LINE
8
PIT_WALE
10
64.8701
20
64.8701
30
0.0
11
38.0000
21
76.0000
31
0.0
0
LINE
8
PIT_WALE
10
38.0000
20
76.0000
30
0.0
11
11.1299
21
64.8701
31
0.0
0
LINE
8
PIT_WALE
10
11.1299
20
64.8701
30
0.0
11
0.0000
21
38.0000
31
0.0
0
LINE
8
PIT_WALE
10
0.0000
20
38.0000
30
0.0
11
11.1299
21
11.1299
31
0.0
0
LINE
8
PIT_WALE
10
11.1299
20
11.1299
30
0.0
11
38.0000
21
0.0000
31
0.0
0
LINE
8
PIT_WALE
10
38.0000
20
0.0000
30
0.0
11
64.8701
21
11.1299
31
0.0
0
LINE
8
PIT_WALE
10
64.8701
20
11.1299
30
0.0
11
76.0000
21
38.0000
31
0.0
0
LINE
8
PIT_WALE
10
76.0000
20
38.0000
30
0.0
11
64.8701
21
64.8701
31
0.0
0
LINE
8
PIT_WALE
10
64.8701
20
64.8701
30
0.0
11
38.0000
21
76.0000
31
0.0
0
LINE
8
PIT_WALE
10
38.0000
20
76.0000
30
0.0
11
11.1299
21
64.8701
31
0.0
0
LINE
8
PIT_WALE
10
11.1299
20
64.8701
30
0.0
11
0.0000
21
38.0000
31
0.0
0
LINE
8
PIT_WALE
10
0.0000
20
38.0000
30
0.0
11
11.1299
21
11.1299
31
0.0
0
LINE
8
PIT_WALE
10
11.1299
20
11.1299
30
0.0
11
38.0000
21
0.0000
31
0.0
0
LINE
8
PIT_WALE
10
38.0000
20
0.0000
30
0.0
11
64.8701
21
11.1299
31
0.0
0
LINE
8
PIT_WALE
10
64.8701
20
11.1299
30
0.0
11
76.0000
21
38.0000
31
0.0
0
LINE
8
PIT_WALE
10
76.0000
20
38.0000
30
0.0
11
64.8701
21
64.8701
31
0.0
0
LINE
8
PIT_WALE
10
64.8701
20
64.8701
30
0.0
11
38.0000
21
76.0000
31
0.0
0
LINE
8
PIT_WALE
10
38.0000
20
76.0000
30
0.0
11
11.1299
21
64.8701
31
0.0
0
LINE
8
PIT_WALE
10
11.1299
20
64.8701
30
0.0
11
0.0000
21
38.0000
31
0.0
0
LINE
8
PIT_WALE
10
0.0000
20
38.0000
30
0.0
11
11.1299
21
11.1299
31
0.0
0
LINE
8
PIT_WALE
10
11.1299
20
11.1299
30
0.0
11
38.0000
21
0.0000
31
0.0
0
LINE
8
PIT_WALE
10
38.0000
20
0.0000
30
0.0
11
64.8701
21
11.1299
31
0.0
0
LINE
8
PIT_WALE
10
64.8701
20
11.1299
30
0.0
11
76.0000
21
38.0000
31
0.0
0
LINE
8
PIT_WALE
10
76.0000
20
38.0000
30
0.0
11
64.8701
21
64.8701
31
0.0
0
LINE
8
PIT_WALE
10
64.8701
20
64.8701
30
0.0
11
38.0000
21
76.0000
31
0.0
0
LINE
8
PIT_WALE
10
38.0000
20
76.0000
30
0.0
11
11.1299
21
64.8701
31
0.0
0
LINE
8
PIT_WALE
10
11.1299
20
64.8701
30
0.0
11
0.0000
21
38.0000
31
0.0
0
LINE
8
PIT_WALE
10
0.0000
20
38.0000
30
0.0
11
11.1299
21
11.1299
31
0.0
0
LINE
8
PIT_WALE
10
11.1299
20
11.1299
30
0.0
11
38.0000
21
0.0000
31
0.0
0
LINE
8
PIT_WALE
10
38.0000
20
0.0000
30
0.0
11
64.8701
21
11.1299
31
0.0
0
LINE
8
PIT_WALE
10
64.8701
20
11.1299
30
0.0
11
76.0000
21
38.0000
31
0.0
0
LINE
8
PIT_WALE
10
76.0000
20
38.0000
30
0.0
11
64.8701
21
64.8701
31
0.0
0
LINE
8
PIT_WALE
10
64.8701
20
64.8701
30
0.0
11
38.0000
21
76.0000
31
0.0
0
LINE
8
PIT_WALE
10
38.0000
20
76.0000
30
0.0
11
11.1299
21
64.8701
31
0.0
0
LINE
8
PIT_WALE
10
11.1299
20
64.8701
30
0.0
11
0.0000
21
38.0000
31
0.0
0
LINE
8
PIT_WALE
10
0.0000
20
38.0000
30
0.0
11
11.1299
21
11.1299
31
0.0
0
LINE
8
PIT_WALE
10
11.1299
20
11.1299
30
0.0
11
38.0000
21
0.0000
31
0.0
0
LINE
8
PIT_WALE
10
38.0000
20
0.0000
30
0.0
11
64.8701
21
11.1299
31
0.0
0
LINE
8
PIT_WALE
10
64.8701
20
11.1299
30
0.0
11
76.0000
21
38.0000
31
0.0
0
LINE
8
PIT_WALE
10
76.0000
20
38.0000
30
0.0
11
64.8701
21
64.8701
31
0.0
0
LINE
8
PIT_WALE
10
64.8701
20
64.8701
30
0.0
11
38.0000
21
76.0000
31
0.0
0
LINE
8
PIT_WALE
10
38.0000
20
76.0000
30
0.0
11
11.1299
21
64.8701
31
0.0
0
LINE
8
PIT_WALE
10
11.1299
20
64.8701
30
0.0
11
0.0000
21
38.0000
31
0.0
0
LINE
8
PIT_WALE
10
0.0000
20
38.0000
30
0.0
11
11.1299
21
11.1299
31
0.0
0
LINE
8
PIT_WALE
10
11.1299
20
11.1299
30
0.0
11
38.0000
21
0.0000
31
0.0
0
LINE
8
PIT_WALE
10
38.0000
20
0.0000
30
0.0
11
64.8701
21
11.1299
31
0.0
0
LINE
8
PIT_WALE
10
64.8701
20
11.1299
30
0.0
11
76.0000
21
38.0000
31
0.0
0
LINE
8
PIT_WALE
10
24.3200
20
24.3200
30
0.0
11
51.6800
21
24.3200
31
0.0
0
LINE
8
PIT_WALE
10
51.6800
20
24.3200
30
0.0
11
51.6800
21
51.6800
31
0.0
0
LINE
8
PIT_WALE
10
51.6800
20
51.6800
30
0.0
11
24.3200
21
51.6800
31
0.0
0
LINE
8
PIT_WALE
10
24.3200
20
51.6800
30
0.0
11
24.3200
21
24.3200
31
0.0
0
LINE
8
PIT_WALE
10
24.3200
20
24.3200
30
0.0
11
51.6800
21
24.3200
31
0.0
0
LINE
8
PIT_WALE
10
51.6800
20
24.3200
30
0.0
11
51.6800
21
51.6800
31
0.0
0
LINE
8
PIT_WALE
10
51.6800
20
51.6800
30
0.0
11
24.3200
21
51.6800
31
0.0
0
LINE
8
PIT_WALE
10
24.3200
20
51.6800
30
0.0
11
24.3200
21
24.3200
31
0.0
0
LINE
8
PIT_WALE
10
24.3200
20
24.3200
30
0.0
11
51.6800
21
24.3200
31
0.0
0
LINE
8
PIT_WALE
10
51.6800
20
24.3200
30
0.0
11
51.6800
21
51.6800
31
0.0
0
LINE
8
PIT_WALE
10
51.6800
20
51.6800
30
0.0
11
24.3200
21
51.6800
31
0.0
0
LINE
8
PIT_WALE
10
24.3200
20
51.6800
30
0.0
11
24.3200
21
24.3200
31
0.0
0
LINE
8
PIT_WALE
10
24.3200
20
24.3200
30
0.0
11
51.6800
21
24.3200
31
0.0
0
LINE
8
PIT_WALE
10
51.6800
20
24.3200
30
0.0
11
51.6800
21
51.6800
31
0.0
0
LINE
8
PIT_WALE
10
51.6800
20
51.6800
30
0.0
11
24.3200
21
51.6800
31
0.0
0
LINE
8
PIT_WALE
10
24.3200
20
51.6800
30
0.0
11
24.3200
21
24.3200
31
0.0
0
LINE
8
PIT_WALE
10
24.3200
20
24.3200
30
0.0
11
51.6800
21
24.3200
31
0.0
0
LINE
8
PIT_WALE
10
51.6800
20
24.3200
30
0.0
11
51.6800
21
51.6800
31
0.0
0
LINE
8
PIT_WALE
10
51.6800
20
51.6800
30
0.0
11
24.3200
21
51.6800
31
0.0
0
LINE
8
PIT_WALE
10
24.3200
20
51.6800
30
0.0
11
24.3200
21
24.3200
31
0.0
0
LINE
8
PIT_SUPPORT
10
5.5650
20
24.5650
30
0.0
11
24.3770
21
32.3570
31
0.0
0
TEXT
8
PIT_TEXT
10
14.9710
20
28.4610
30
0.0
40
0.3200
1
RS-L1-1 L1 N=0kN
50
22.4995
0
LINE
8
PIT_SUPPORT
10
24.5650
20
5.5650
30
0.0
11
32.3570
21
24.3770
31
0.0
0
TEXT
8
PIT_TEXT
10
28.4610
20
14.9710
30
0.0
40
0.3200
1
RS-L1-2 L1 N=0kN
50
67.5005
0
LINE
8
PIT_SUPPORT
10
51.4350
20
5.5650
30
0.0
11
43.6430
21
24.3770
31
0.0
0
TEXT
8
PIT_TEXT
10
47.5390
20
14.9710
30
0.0
40
0.3200
1
RS-L1-3 L1 N=0kN
50
112.4995
0
LINE
8
PIT_SUPPORT
10
70.4350
20
24.5650
30
0.0
11
51.6230
21
32.3570
31
0.0
0
TEXT
8
PIT_TEXT
10
61.0290
20
28.4610
30
0.0
40
0.3200
1
RS-L1-4 L1 N=0kN
50
157.5005
0
LINE
8
PIT_SUPPORT
10
5.5650
20
24.5650
30
0.0
11
24.3770
21
32.3570
31
0.0
0
TEXT
8
PIT_TEXT
10
14.9710
20
28.4610
30
0.0
40
0.3200
1
RS-L2-1 L2 N=0kN
50
22.4995
0
LINE
8
PIT_SUPPORT
10
24.5650
20
5.5650
30
0.0
11
32.3570
21
24.3770
31
0.0
0
TEXT
8
PIT_TEXT
10
28.4610
20
14.9710
30
0.0
40
0.3200
1
RS-L2-2 L2 N=0kN
50
67.5005
0
LINE
8
PIT_SUPPORT
10
51.4350
20
5.5650
30
0.0
11
43.6430
21
24.3770
31
0.0
0
TEXT
8
PIT_TEXT
10
47.5390
20
14.9710
30
0.0
40
0.3200
1
RS-L2-3 L2 N=0kN
50
112.4995
0
LINE
8
PIT_SUPPORT
10
70.4350
20
24.5650
30
0.0
11
51.6230
21
32.3570
31
0.0
0
TEXT
8
PIT_TEXT
10
61.0290
20
28.4610
30
0.0
40
0.3200
1
RS-L2-4 L2 N=0kN
50
157.5005
0
LINE
8
PIT_SUPPORT
10
5.5650
20
24.5650
30
0.0
11
24.3770
21
32.3570
31
0.0
0
TEXT
8
PIT_TEXT
10
14.9710
20
28.4610
30
0.0
40
0.3200
1
RS-L3-1 L3 N=0kN
50
22.4995
0
LINE
8
PIT_SUPPORT
10
24.5650
20
5.5650
30
0.0
11
32.3570
21
24.3770
31
0.0
0
TEXT
8
PIT_TEXT
10
28.4610
20
14.9710
30
0.0
40
0.3200
1
RS-L3-2 L3 N=0kN
50
67.5005
0
LINE
8
PIT_SUPPORT
10
51.4350
20
5.5650
30
0.0
11
43.6430
21
24.3770
31
0.0
0
TEXT
8
PIT_TEXT
10
47.5390
20
14.9710
30
0.0
40
0.3200
1
RS-L3-3 L3 N=0kN
50
112.4995
0
LINE
8
PIT_SUPPORT
10
70.4350
20
24.5650
30
0.0
11
51.6230
21
32.3570
31
0.0
0
TEXT
8
PIT_TEXT
10
61.0290
20
28.4610
30
0.0
40
0.3200
1
RS-L3-4 L3 N=0kN
50
157.5005
0
LINE
8
PIT_SUPPORT
10
5.5650
20
24.5650
30
0.0
11
24.3770
21
32.3570
31
0.0
0
TEXT
8
PIT_TEXT
10
14.9710
20
28.4610
30
0.0
40
0.3200
1
RS-L4-1 L4 N=0kN
50
22.4995
0
LINE
8
PIT_SUPPORT
10
24.5650
20
5.5650
30
0.0
11
32.3570
21
24.3770
31
0.0
0
TEXT
8
PIT_TEXT
10
28.4610
20
14.9710
30
0.0
40
0.3200
1
RS-L4-2 L4 N=0kN
50
67.5005
0
LINE
8
PIT_SUPPORT
10
51.4350
20
5.5650
30
0.0
11
43.6430
21
24.3770
31
0.0
0
TEXT
8
PIT_TEXT
10
47.5390
20
14.9710
30
0.0
40
0.3200
1
RS-L4-3 L4 N=0kN
50
112.4995
0
LINE
8
PIT_SUPPORT
10
70.4350
20
24.5650
30
0.0
11
51.6230
21
32.3570
31
0.0
0
TEXT
8
PIT_TEXT
10
61.0290
20
28.4610
30
0.0
40
0.3200
1
RS-L4-4 L4 N=0kN
50
157.5005
0
LINE
8
PIT_SUPPORT
10
5.5650
20
24.5650
30
0.0
11
24.3770
21
32.3570
31
0.0
0
TEXT
8
PIT_TEXT
10
14.9710
20
28.4610
30
0.0
40
0.3200
1
RS-L5-1 L5 N=0kN
50
22.4995
0
LINE
8
PIT_SUPPORT
10
24.5650
20
5.5650
30
0.0
11
32.3570
21
24.3770
31
0.0
0
TEXT
8
PIT_TEXT
10
28.4610
20
14.9710
30
0.0
40
0.3200
1
RS-L5-2 L5 N=0kN
50
67.5005
0
LINE
8
PIT_SUPPORT
10
51.4350
20
5.5650
30
0.0
11
43.6430
21
24.3770
31
0.0
0
TEXT
8
PIT_TEXT
10
47.5390
20
14.9710
30
0.0
40
0.3200
1
RS-L5-3 L5 N=0kN
50
112.4995
0
LINE
8
PIT_SUPPORT
10
70.4350
20
24.5650
30
0.0
11
51.6230
21
32.3570
31
0.0
0
TEXT
8
PIT_TEXT
10
61.0290
20
28.4610
30
0.0
40
0.3200
1
RS-L5-4 L5 N=0kN
50
157.5005
0
CIRCLE
8
PIT_COLUMN
10
14.9710
20
28.4610
30
0.0
40
0.4000
0
TEXT
8
PIT_TEXT
10
15.3710
20
28.8610
30
0.0
40
0.3000
1
STC-001
50
0.0000
0
CIRCLE
8
PIT_COLUMN
10
28.4610
20
14.9710
30
0.0
40
0.4000
0
TEXT
8
PIT_TEXT
10
28.8610
20
15.3710
30
0.0
40
0.3000
1
STC-002
50
0.0000
0
CIRCLE
8
PIT_COLUMN
10
47.5390
20
14.9710
30
0.0
40
0.4000
0
TEXT
8
PIT_TEXT
10
47.9390
20
15.3710
30
0.0
40
0.3000
1
STC-003
50
0.0000
0
CIRCLE
8
PIT_COLUMN
10
61.0290
20
28.4610
30
0.0
40
0.4000
0
TEXT
8
PIT_TEXT
10
61.4290
20
28.8610
30
0.0
40
0.3000
1
STC-004
50
0.0000
0
TEXT
8
PIT_TITLE
10
0.0000
20
-5.0000
30
0.0
40
0.5500
1
S-01 Foundation pit support plan - PitGuard generated CAD exchange drawing
50
0.0000
0
LINE
8
PIT_DIM
10
0.0000
20
79.0000
30
0.0
11
76.0000
21
79.0000
31
0.0
0
LINE
8
PIT_DIM
10
0.0000
20
78.7500
30
0.0
11
0.0000
21
79.2500
31
0.0
0
LINE
8
PIT_DIM
10
76.0000
20
78.7500
30
0.0
11
76.0000
21
79.2500
31
0.0
0
TEXT
8
PIT_DIM
10
38.0000
20
81.0000
30
0.0
40
0.2800
1
76.0 m
50
0.0000
0
LINE
8
PIT_DIM
10
79.0000
20
0.0000
30
0.0
11
79.0000
21
76.0000
31
0.0
0
LINE
8
PIT_DIM
10
79.0000
20
-0.2500
30
0.0
11
79.0000
21
0.2500
31
0.0
0
LINE
8
PIT_DIM
10
79.0000
20
75.7500
30
0.0
11
79.0000
21
76.2500
31
0.0
0
TEXT
8
PIT_DIM
10
79.0000
20
38.8000
30
0.0
40
0.2800
1
76.0 m
50
0.0000
0
LWPOLYLINE
8
PIT_FRAME
90
4
70
1
10
0.0000
20
-18.0000
10
120.0000
20
-18.0000
10
120.0000
20
-2.0000
10
0.0000
20
-2.0000
0
LINE
8
PIT_FRAME
10
18.0000
20
-18.0000
30
0.0
11
18.0000
21
-2.0000
31
0.0
0
LINE
8
PIT_FRAME
10
80.0000
20
-18.0000
30
0.0
11
80.0000
21
-2.0000
31
0.0
0
LINE
8
PIT_FRAME
10
95.0000
20
-18.0000
30
0.0
11
95.0000
21
-2.0000
31
0.0
0
LINE
8
PIT_FRAME
10
108.0000
20
-18.0000
30
0.0
11
108.0000
21
-2.0000
31
0.0
0
LINE
8
PIT_FRAME
10
0.0000
20
-14.0000
30
0.0
11
120.0000
21
-14.0000
31
0.0
0
LINE
8
PIT_FRAME
10
0.0000
20
-10.0000
30
0.0
11
120.0000
21
-10.0000
31
0.0
0
LINE
8
PIT_FRAME
10
0.0000
20
-6.0000
30
0.0
11
120.0000
21
-6.0000
31
0.0
0
TEXT
8
PIT_TITLE
10
2.0000
20
-5.0000
30
0.0
40
0.3500
1
工程名称
50
0.0000
0
TEXT
8
PIT_TEXT
10
20.0000
20
-5.0000
30
0.0
40
0.3500
1
上海 56m 深圆形/多边形竖井双墙体系规范算法回归算例
50
0.0000
0
TEXT
8
PIT_TITLE
10
2.0000
20
-9.0000
30
0.0
40
0.3500
1
图名
50
0.0000
0
TEXT
8
PIT_TEXT
10
20.0000
20
-9.0000
30
0.0
40
0.3500
1
基坑围护与支撑平面布置图
50
0.0000
0
TEXT
8
PIT_TITLE
10
2.0000
20
-13.0000
30
0.0
40
0.3500
1
阶段
50
0.0000
0
TEXT
8
PIT_TEXT
10
20.0000
20
-13.0000
30
0.0
40
0.3500
1
施工图深化接口
50
0.0000
0
TEXT
8
PIT_TITLE
10
82.0000
20
-5.0000
30
0.0
40
0.3500
1
图号
50
0.0000
0
TEXT
8
PIT_TEXT
10
97.0000
20
-5.0000
30
0.0
40
0.3500
1
S-01
50
0.0000
0
TEXT
8
PIT_TITLE
10
82.0000
20
-9.0000
30
0.0
40
0.3500
1
比例
50
0.0000
0
TEXT
8
PIT_TEXT
10
97.0000
20
-9.0000
30
0.0
40
0.3500
1
1:200
50
0.0000
0
TEXT
8
PIT_TITLE
10
82.0000
20
-13.0000
30
0.0
40
0.3500
1
设计
50
0.0000
0
TEXT
8
PIT_TEXT
10
97.0000
20
-13.0000
30
0.0
40
0.3500
1
AI
50
0.0000
0
TEXT
8
PIT_TITLE
10
82.0000
20
-17.0000
30
0.0
40
0.3500
1
校核
50
0.0000
0
TEXT
8
PIT_TEXT
10
97.0000
20
-17.0000
30
0.0
40
0.3500
1
REVIEW
50
0.0000
0
ENDSEC
0
EOF
