0
SECTION
2
HEADER
9
$ACADVER
1
AC1009
0
ENDSEC
0
SECTION
2
TABLES
0
TABLE
2
LAYER
70
6
0
LAYER
2
0
70
0
62
1
6
CONTINUOUS
0
LAYER
2
PIT_CONCRETE
70
0
62
2
6
CONTINUOUS
0
LAYER
2
PIT_FRAME
70
0
62
3
6
CONTINUOUS
0
LAYER
2
PIT_REBAR_DISTRIBUTION
70
0
62
4
6
CONTINUOUS
0
LAYER
2
PIT_REBAR_MAIN
70
0
62
5
6
CONTINUOUS
0
LAYER
2
PIT_TEXT
70
0
62
6
6
CONTINUOUS
0
LAYER
2
PIT_TITLE
70
0
62
7
6
CONTINUOUS
0
ENDTAB
0
ENDSEC
0
SECTION
2
ENTITIES
0
LWPOLYLINE
8
PIT_CONCRETE
90
4
70
1
10
0.0000
20
0.0000
10
29.0840
20
0.0000
10
29.0840
20
52.5000
10
0.0000
20
52.5000
0
LINE
8
PIT_REBAR_MAIN
10
0.3500
20
0.2500
30
0.0
11
0.3500
21
52.2500
31
0.0
0
LINE
8
PIT_REBAR_MAIN
10
3.5038
20
0.2500
30
0.0
11
3.5038
21
52.2500
31
0.0
0
LINE
8
PIT_REBAR_MAIN
10
6.6576
20
0.2500
30
0.0
11
6.6576
21
52.2500
31
0.0
0
LINE
8
PIT_REBAR_MAIN
10
9.8113
20
0.2500
30
0.0
11
9.8113
21
52.2500
31
0.0
0
LINE
8
PIT_REBAR_MAIN
10
12.9651
20
0.2500
30
0.0
11
12.9651
21
52.2500
31
0.0
0
LINE
8
PIT_REBAR_MAIN
10
16.1189
20
0.2500
30
0.0
11
16.1189
21
52.2500
31
0.0
0
LINE
8
PIT_REBAR_MAIN
10
19.2727
20
0.2500
30
0.0
11
19.2727
21
52.2500
31
0.0
0
LINE
8
PIT_REBAR_MAIN
10
22.4264
20
0.2500
30
0.0
11
22.4264
21
52.2500
31
0.0
0
LINE
8
PIT_REBAR_MAIN
10
25.5802
20
0.2500
30
0.0
11
25.5802
21
52.2500
31
0.0
0
LINE
8
PIT_REBAR_MAIN
10
28.7340
20
0.2500
30
0.0
11
28.7340
21
52.2500
31
0.0
0
LINE
8
PIT_REBAR_MAIN
10
0.3500
20
0.2500
30
0.0
11
0.3500
21
52.2500
31
0.0
0
LINE
8
PIT_REBAR_MAIN
10
3.5038
20
0.2500
30
0.0
11
3.5038
21
52.2500
31
0.0
0
LINE
8
PIT_REBAR_MAIN
10
6.6576
20
0.2500
30
0.0
11
6.6576
21
52.2500
31
0.0
0
LINE
8
PIT_REBAR_MAIN
10
9.8113
20
0.2500
30
0.0
11
9.8113
21
52.2500
31
0.0
0
LINE
8
PIT_REBAR_MAIN
10
12.9651
20
0.2500
30
0.0
11
12.9651
21
52.2500
31
0.0
0
LINE
8
PIT_REBAR_MAIN
10
16.1189
20
0.2500
30
0.0
11
16.1189
21
52.2500
31
0.0
0
LINE
8
PIT_REBAR_MAIN
10
19.2727
20
0.2500
30
0.0
11
19.2727
21
52.2500
31
0.0
0
LINE
8
PIT_REBAR_MAIN
10
22.4264
20
0.2500
30
0.0
11
22.4264
21
52.2500
31
0.0
0
LINE
8
PIT_REBAR_MAIN
10
25.5802
20
0.2500
30
0.0
11
25.5802
21
52.2500
31
0.0
0
LINE
8
PIT_REBAR_MAIN
10
28.7340
20
0.2500
30
0.0
11
28.7340
21
52.2500
31
0.0
0
LINE
8
PIT_REBAR_DISTRIBUTION
10
0.2000
20
0.4000
30
0.0
11
28.8840
21
0.4000
31
0.0
0
LINE
8
PIT_REBAR_DISTRIBUTION
10
0.2000
20
5.1000
30
0.0
11
28.8840
21
5.1000
31
0.0
0
LINE
8
PIT_REBAR_DISTRIBUTION
10
0.2000
20
9.8000
30
0.0
11
28.8840
21
9.8000
31
0.0
0
LINE
8
PIT_REBAR_DISTRIBUTION
10
0.2000
20
14.5000
30
0.0
11
28.8840
21
14.5000
31
0.0
0
LINE
8
PIT_REBAR_DISTRIBUTION
10
0.2000
20
19.2000
30
0.0
11
28.8840
21
19.2000
31
0.0
0
LINE
8
PIT_REBAR_DISTRIBUTION
10
0.2000
20
23.9000
30
0.0
11
28.8840
21
23.9000
31
0.0
0
LINE
8
PIT_REBAR_DISTRIBUTION
10
0.2000
20
28.6000
30
0.0
11
28.8840
21
28.6000
31
0.0
0
LINE
8
PIT_REBAR_DISTRIBUTION
10
0.2000
20
33.3000
30
0.0
11
28.8840
21
33.3000
31
0.0
0
LINE
8
PIT_REBAR_DISTRIBUTION
10
0.2000
20
38.0000
30
0.0
11
28.8840
21
38.0000
31
0.0
0
LINE
8
PIT_REBAR_DISTRIBUTION
10
0.2000
20
42.7000
30
0.0
11
28.8840
21
42.7000
31
0.0
0
LINE
8
PIT_REBAR_DISTRIBUTION
10
0.2000
20
47.4000
30
0.0
11
28.8840
21
47.4000
31
0.0
0
LINE
8
PIT_REBAR_DISTRIBUTION
10
0.2000
20
52.1000
30
0.0
11
28.8840
21
52.1000
31
0.0
0
TEXT
8
PIT_TEXT
10
0.0000
20
53.5000
30
0.0
40
0.4500
1
Typical diaphragm wall cage: DW-S1-001
50
0.0000
0
TEXT
8
PIT_TEXT
10
0.0000
20
-1.0000
30
0.0
40
0.2800
1
坑内侧竖向主筋 D36@100; 坑外侧竖向主筋 D36@100; 水平分布筋 D18@180; 拉结筋/架立筋 D12@450
50
0.0000
0
LWPOLYLINE
8
PIT_FRAME
90
4
70
1
10
0.0000
20
-18.0000
10
120.0000
20
-18.0000
10
120.0000
20
-2.0000
10
0.0000
20
-2.0000
0
LINE
8
PIT_FRAME
10
18.0000
20
-18.0000
30
0.0
11
18.0000
21
-2.0000
31
0.0
0
LINE
8
PIT_FRAME
10
80.0000
20
-18.0000
30
0.0
11
80.0000
21
-2.0000
31
0.0
0
LINE
8
PIT_FRAME
10
95.0000
20
-18.0000
30
0.0
11
95.0000
21
-2.0000
31
0.0
0
LINE
8
PIT_FRAME
10
108.0000
20
-18.0000
30
0.0
11
108.0000
21
-2.0000
31
0.0
0
LINE
8
PIT_FRAME
10
0.0000
20
-14.0000
30
0.0
11
120.0000
21
-14.0000
31
0.0
0
LINE
8
PIT_FRAME
10
0.0000
20
-10.0000
30
0.0
11
120.0000
21
-10.0000
31
0.0
0
LINE
8
PIT_FRAME
10
0.0000
20
-6.0000
30
0.0
11
120.0000
21
-6.0000
31
0.0
0
TEXT
8
PIT_TITLE
10
2.0000
20
-5.0000
30
0.0
40
0.3500
1
工程名称
50
0.0000
0
TEXT
8
PIT_TEXT
10
20.0000
20
-5.0000
30
0.0
40
0.3500
1
上海 56m 深圆形/多边形竖井双墙体系规范算法回归算例
50
0.0000
0
TEXT
8
PIT_TITLE
10
2.0000
20
-9.0000
30
0.0
40
0.3500
1
图名
50
0.0000
0
TEXT
8
PIT_TEXT
10
20.0000
20
-9.0000
30
0.0
40
0.3500
1
地下连续墙钢筋笼配筋图
50
0.0000
0
TEXT
8
PIT_TITLE
10
2.0000
20
-13.0000
30
0.0
40
0.3500
1
阶段
50
0.0000
0
TEXT
8
PIT_TEXT
10
20.0000
20
-13.0000
30
0.0
40
0.3500
1
施工图深化接口
50
0.0000
0
TEXT
8
PIT_TITLE
10
82.0000
20
-5.0000
30
0.0
40
0.3500
1
图号
50
0.0000
0
TEXT
8
PIT_TEXT
10
97.0000
20
-5.0000
30
0.0
40
0.3500
1
S-02
50
0.0000
0
TEXT
8
PIT_TITLE
10
82.0000
20
-9.0000
30
0.0
40
0.3500
1
比例
50
0.0000
0
TEXT
8
PIT_TEXT
10
97.0000
20
-9.0000
30
0.0
40
0.3500
1
1:50
50
0.0000
0
TEXT
8
PIT_TITLE
10
82.0000
20
-13.0000
30
0.0
40
0.3500
1
设计
50
0.0000
0
TEXT
8
PIT_TEXT
10
97.0000
20
-13.0000
30
0.0
40
0.3500
1
AI
50
0.0000
0
TEXT
8
PIT_TITLE
10
82.0000
20
-17.0000
30
0.0
40
0.3500
1
校核
50
0.0000
0
TEXT
8
PIT_TEXT
10
97.0000
20
-17.0000
30
0.0
40
0.3500
1
REVIEW
50
0.0000
0
ENDSEC
0
EOF
