0
SECTION
2
HEADER
9
$ACADVER
1
AC1009
0
ENDSEC
0
SECTION
2
TABLES
0
TABLE
2
LAYER
70
6
0
LAYER
2
0
70
0
62
1
6
CONTINUOUS
0
LAYER
2
PIT_EXCAVATION
70
0
62
2
6
CONTINUOUS
0
LAYER
2
PIT_FRAME
70
0
62
3
6
CONTINUOUS
0
LAYER
2
PIT_MONITOR
70
0
62
4
6
CONTINUOUS
0
LAYER
2
PIT_MONITOR_FORCE
70
0
62
5
6
CONTINUOUS
0
LAYER
2
PIT_TEXT
70
0
62
6
6
CONTINUOUS
0
LAYER
2
PIT_TITLE
70
0
62
7
6
CONTINUOUS
0
ENDTAB
0
ENDSEC
0
SECTION
2
ENTITIES
0
LWPOLYLINE
8
PIT_EXCAVATION
90
8
70
1
10
76.0000
20
38.0000
10
64.8701
20
64.8701
10
38.0000
20
76.0000
10
11.1299
20
64.8701
10
0.0000
20
38.0000
10
11.1299
20
11.1299
10
38.0000
20
0.0000
10
64.8701
20
11.1299
0
CIRCLE
8
PIT_MONITOR
10
76.0000
20
38.0000
30
0.0
40
0.3500
0
TEXT
8
PIT_TEXT
10
76.4500
20
38.4500
30
0.0
40
0.2500
1
CX01
50
0.0000
0
CIRCLE
8
PIT_MONITOR
10
64.8701
20
64.8701
30
0.0
40
0.3500
0
TEXT
8
PIT_TEXT
10
65.3201
20
65.3201
30
0.0
40
0.2500
1
CX02
50
0.0000
0
CIRCLE
8
PIT_MONITOR
10
38.0000
20
76.0000
30
0.0
40
0.3500
0
TEXT
8
PIT_TEXT
10
38.4500
20
76.4500
30
0.0
40
0.2500
1
CX03
50
0.0000
0
CIRCLE
8
PIT_MONITOR
10
11.1299
20
64.8701
30
0.0
40
0.3500
0
TEXT
8
PIT_TEXT
10
11.5799
20
65.3201
30
0.0
40
0.2500
1
CX04
50
0.0000
0
CIRCLE
8
PIT_MONITOR
10
0.0000
20
38.0000
30
0.0
40
0.3500
0
TEXT
8
PIT_TEXT
10
0.4500
20
38.4500
30
0.0
40
0.2500
1
CX05
50
0.0000
0
CIRCLE
8
PIT_MONITOR
10
11.1299
20
11.1299
30
0.0
40
0.3500
0
TEXT
8
PIT_TEXT
10
11.5799
20
11.5799
30
0.0
40
0.2500
1
CX06
50
0.0000
0
CIRCLE
8
PIT_MONITOR
10
38.0000
20
0.0000
30
0.0
40
0.3500
0
TEXT
8
PIT_TEXT
10
38.4500
20
0.4500
30
0.0
40
0.2500
1
CX07
50
0.0000
0
CIRCLE
8
PIT_MONITOR
10
64.8701
20
11.1299
30
0.0
40
0.3500
0
TEXT
8
PIT_TEXT
10
65.3201
20
11.5799
30
0.0
40
0.2500
1
CX08
50
0.0000
0
CIRCLE
8
PIT_MONITOR
10
70.4350
20
51.4350
30
0.0
40
0.2500
0
TEXT
8
PIT_TEXT
10
70.7850
20
51.0850
30
0.0
40
0.2500
1
WY01
50
0.0000
0
CIRCLE
8
PIT_MONITOR
10
51.4350
20
70.4350
30
0.0
40
0.2500
0
TEXT
8
PIT_TEXT
10
51.7850
20
70.0850
30
0.0
40
0.2500
1
WY02
50
0.0000
0
CIRCLE
8
PIT_MONITOR
10
24.5650
20
70.4350
30
0.0
40
0.2500
0
TEXT
8
PIT_TEXT
10
24.9150
20
70.0850
30
0.0
40
0.2500
1
WY03
50
0.0000
0
CIRCLE
8
PIT_MONITOR
10
5.5650
20
51.4350
30
0.0
40
0.2500
0
TEXT
8
PIT_TEXT
10
5.9150
20
51.0850
30
0.0
40
0.2500
1
WY04
50
0.0000
0
CIRCLE
8
PIT_MONITOR
10
5.5650
20
24.5650
30
0.0
40
0.2500
0
TEXT
8
PIT_TEXT
10
5.9150
20
24.2150
30
0.0
40
0.2500
1
WY05
50
0.0000
0
CIRCLE
8
PIT_MONITOR
10
24.5650
20
5.5650
30
0.0
40
0.2500
0
TEXT
8
PIT_TEXT
10
24.9150
20
5.2150
30
0.0
40
0.2500
1
WY06
50
0.0000
0
CIRCLE
8
PIT_MONITOR
10
51.4350
20
5.5650
30
0.0
40
0.2500
0
TEXT
8
PIT_TEXT
10
51.7850
20
5.2150
30
0.0
40
0.2500
1
WY07
50
0.0000
0
CIRCLE
8
PIT_MONITOR
10
70.4350
20
24.5650
30
0.0
40
0.2500
0
TEXT
8
PIT_TEXT
10
70.7850
20
24.2150
30
0.0
40
0.2500
1
WY08
50
0.0000
0
CIRCLE
8
PIT_MONITOR_FORCE
10
14.9710
20
28.4610
30
0.0
40
0.2800
0
TEXT
8
PIT_TEXT
10
15.3210
20
28.4610
30
0.0
40
0.2500
1
ZL01
50
0.0000
0
CIRCLE
8
PIT_MONITOR_FORCE
10
28.4610
20
14.9710
30
0.0
40
0.2800
0
TEXT
8
PIT_TEXT
10
28.8110
20
14.9710
30
0.0
40
0.2500
1
ZL02
50
0.0000
0
CIRCLE
8
PIT_MONITOR_FORCE
10
47.5390
20
14.9710
30
0.0
40
0.2800
0
TEXT
8
PIT_TEXT
10
47.8890
20
14.9710
30
0.0
40
0.2500
1
ZL03
50
0.0000
0
CIRCLE
8
PIT_MONITOR_FORCE
10
61.0290
20
28.4610
30
0.0
40
0.2800
0
TEXT
8
PIT_TEXT
10
61.3790
20
28.4610
30
0.0
40
0.2500
1
ZL04
50
0.0000
0
CIRCLE
8
PIT_MONITOR_FORCE
10
14.9710
20
28.4610
30
0.0
40
0.2800
0
TEXT
8
PIT_TEXT
10
15.3210
20
28.4610
30
0.0
40
0.2500
1
ZL05
50
0.0000
0
CIRCLE
8
PIT_MONITOR_FORCE
10
28.4610
20
14.9710
30
0.0
40
0.2800
0
TEXT
8
PIT_TEXT
10
28.8110
20
14.9710
30
0.0
40
0.2500
1
ZL06
50
0.0000
0
CIRCLE
8
PIT_MONITOR_FORCE
10
47.5390
20
14.9710
30
0.0
40
0.2800
0
TEXT
8
PIT_TEXT
10
47.8890
20
14.9710
30
0.0
40
0.2500
1
ZL07
50
0.0000
0
CIRCLE
8
PIT_MONITOR_FORCE
10
61.0290
20
28.4610
30
0.0
40
0.2800
0
TEXT
8
PIT_TEXT
10
61.3790
20
28.4610
30
0.0
40
0.2500
1
ZL08
50
0.0000
0
CIRCLE
8
PIT_MONITOR_FORCE
10
14.9710
20
28.4610
30
0.0
40
0.2800
0
TEXT
8
PIT_TEXT
10
15.3210
20
28.4610
30
0.0
40
0.2500
1
ZL09
50
0.0000
0
CIRCLE
8
PIT_MONITOR_FORCE
10
28.4610
20
14.9710
30
0.0
40
0.2800
0
TEXT
8
PIT_TEXT
10
28.8110
20
14.9710
30
0.0
40
0.2500
1
ZL10
50
0.0000
0
CIRCLE
8
PIT_MONITOR_FORCE
10
47.5390
20
14.9710
30
0.0
40
0.2800
0
TEXT
8
PIT_TEXT
10
47.8890
20
14.9710
30
0.0
40
0.2500
1
ZL11
50
0.0000
0
CIRCLE
8
PIT_MONITOR_FORCE
10
61.0290
20
28.4610
30
0.0
40
0.2800
0
TEXT
8
PIT_TEXT
10
61.3790
20
28.4610
30
0.0
40
0.2500
1
ZL12
50
0.0000
0
CIRCLE
8
PIT_MONITOR_FORCE
10
14.9710
20
28.4610
30
0.0
40
0.2800
0
TEXT
8
PIT_TEXT
10
15.3210
20
28.4610
30
0.0
40
0.2500
1
ZL13
50
0.0000
0
CIRCLE
8
PIT_MONITOR_FORCE
10
28.4610
20
14.9710
30
0.0
40
0.2800
0
TEXT
8
PIT_TEXT
10
28.8110
20
14.9710
30
0.0
40
0.2500
1
ZL14
50
0.0000
0
CIRCLE
8
PIT_MONITOR_FORCE
10
47.5390
20
14.9710
30
0.0
40
0.2800
0
TEXT
8
PIT_TEXT
10
47.8890
20
14.9710
30
0.0
40
0.2500
1
ZL15
50
0.0000
0
CIRCLE
8
PIT_MONITOR_FORCE
10
61.0290
20
28.4610
30
0.0
40
0.2800
0
TEXT
8
PIT_TEXT
10
61.3790
20
28.4610
30
0.0
40
0.2500
1
ZL16
50
0.0000
0
CIRCLE
8
PIT_MONITOR_FORCE
10
14.9710
20
28.4610
30
0.0
40
0.2800
0
TEXT
8
PIT_TEXT
10
15.3210
20
28.4610
30
0.0
40
0.2500
1
ZL17
50
0.0000
0
CIRCLE
8
PIT_MONITOR_FORCE
10
28.4610
20
14.9710
30
0.0
40
0.2800
0
TEXT
8
PIT_TEXT
10
28.8110
20
14.9710
30
0.0
40
0.2500
1
ZL18
50
0.0000
0
CIRCLE
8
PIT_MONITOR_FORCE
10
47.5390
20
14.9710
30
0.0
40
0.2800
0
TEXT
8
PIT_TEXT
10
47.8890
20
14.9710
30
0.0
40
0.2500
1
ZL19
50
0.0000
0
CIRCLE
8
PIT_MONITOR_FORCE
10
61.0290
20
28.4610
30
0.0
40
0.2800
0
TEXT
8
PIT_TEXT
10
61.3790
20
28.4610
30
0.0
40
0.2500
1
ZL20
50
0.0000
0
TEXT
8
PIT_TITLE
10
0.0000
20
-6.0000
30
0.0
40
0.4500
1
S-06 Monitoring layout: wall displacement, settlement and support axial-force points
50
0.0000
0
LWPOLYLINE
8
PIT_FRAME
90
4
70
1
10
0.0000
20
-18.0000
10
120.0000
20
-18.0000
10
120.0000
20
-2.0000
10
0.0000
20
-2.0000
0
LINE
8
PIT_FRAME
10
18.0000
20
-18.0000
30
0.0
11
18.0000
21
-2.0000
31
0.0
0
LINE
8
PIT_FRAME
10
80.0000
20
-18.0000
30
0.0
11
80.0000
21
-2.0000
31
0.0
0
LINE
8
PIT_FRAME
10
95.0000
20
-18.0000
30
0.0
11
95.0000
21
-2.0000
31
0.0
0
LINE
8
PIT_FRAME
10
108.0000
20
-18.0000
30
0.0
11
108.0000
21
-2.0000
31
0.0
0
LINE
8
PIT_FRAME
10
0.0000
20
-14.0000
30
0.0
11
120.0000
21
-14.0000
31
0.0
0
LINE
8
PIT_FRAME
10
0.0000
20
-10.0000
30
0.0
11
120.0000
21
-10.0000
31
0.0
0
LINE
8
PIT_FRAME
10
0.0000
20
-6.0000
30
0.0
11
120.0000
21
-6.0000
31
0.0
0
TEXT
8
PIT_TITLE
10
2.0000
20
-5.0000
30
0.0
40
0.3500
1
工程名称
50
0.0000
0
TEXT
8
PIT_TEXT
10
20.0000
20
-5.0000
30
0.0
40
0.3500
1
上海 56m 深圆形/多边形竖井双墙体系规范算法回归算例
50
0.0000
0
TEXT
8
PIT_TITLE
10
2.0000
20
-9.0000
30
0.0
40
0.3500
1
图名
50
0.0000
0
TEXT
8
PIT_TEXT
10
20.0000
20
-9.0000
30
0.0
40
0.3500
1
监测点布置图
50
0.0000
0
TEXT
8
PIT_TITLE
10
2.0000
20
-13.0000
30
0.0
40
0.3500
1
阶段
50
0.0000
0
TEXT
8
PIT_TEXT
10
20.0000
20
-13.0000
30
0.0
40
0.3500
1
施工图深化接口
50
0.0000
0
TEXT
8
PIT_TITLE
10
82.0000
20
-5.0000
30
0.0
40
0.3500
1
图号
50
0.0000
0
TEXT
8
PIT_TEXT
10
97.0000
20
-5.0000
30
0.0
40
0.3500
1
S-06
50
0.0000
0
TEXT
8
PIT_TITLE
10
82.0000
20
-9.0000
30
0.0
40
0.3500
1
比例
50
0.0000
0
TEXT
8
PIT_TEXT
10
97.0000
20
-9.0000
30
0.0
40
0.3500
1
1:200
50
0.0000
0
TEXT
8
PIT_TITLE
10
82.0000
20
-13.0000
30
0.0
40
0.3500
1
设计
50
0.0000
0
TEXT
8
PIT_TEXT
10
97.0000
20
-13.0000
30
0.0
40
0.3500
1
AI
50
0.0000
0
TEXT
8
PIT_TITLE
10
82.0000
20
-17.0000
30
0.0
40
0.3500
1
校核
50
0.0000
0
TEXT
8
PIT_TEXT
10
97.0000
20
-17.0000
30
0.0
40
0.3500
1
REVIEW
50
0.0000
0
ENDSEC
0
EOF
