0
SECTION
2
HEADER
9
$ACADVER
1
AC1009
0
ENDSEC
0
SECTION
2
TABLES
0
TABLE
2
LAYER
70
5
0
LAYER
2
0
70
0
62
1
6
CONTINUOUS
0
LAYER
2
PIT_FRAME
70
0
62
2
6
CONTINUOUS
0
LAYER
2
PIT_REBAR_MAIN
70
0
62
3
6
CONTINUOUS
0
LAYER
2
PIT_REBAR_STIRRUP
70
0
62
4
6
CONTINUOUS
0
LAYER
2
PIT_TEXT
70
0
62
5
6
CONTINUOUS
0
LAYER
2
PIT_TITLE
70
0
62
6
6
CONTINUOUS
0
ENDTAB
0
ENDSEC
0
SECTION
2
ENTITIES
0
TEXT
8
PIT_TITLE
10
0.0000
20
4.0000
30
0.0
40
0.5500
1
S-07 Rebar bending schedule and bar-mark table
50
0.0000
0
TEXT
8
PIT_TITLE
10
0.0000
20
0.0000
30
0.0
40
0.2800
1
Mark
50
0.0000
0
TEXT
8
PIT_TITLE
10
18.0000
20
0.0000
30
0.0
40
0.2800
1
Host
50
0.0000
0
TEXT
8
PIT_TITLE
10
48.0000
20
0.0000
30
0.0
40
0.2800
1
Type
50
0.0000
0
TEXT
8
PIT_TITLE
10
68.0000
20
0.0000
30
0.0
40
0.2800
1
D
50
0.0000
0
TEXT
8
PIT_TITLE
10
78.0000
20
0.0000
30
0.0
40
0.2800
1
Shape
50
0.0000
0
TEXT
8
PIT_TITLE
10
92.0000
20
0.0000
30
0.0
40
0.2800
1
Qty
50
0.0000
0
TEXT
8
PIT_TITLE
10
104.0000
20
0.0000
30
0.0
40
0.2800
1
L(m)
50
0.0000
0
TEXT
8
PIT_TITLE
10
116.0000
20
0.0000
30
0.0
40
0.2800
1
W(kg)
50
0.0000
0
TEXT
8
PIT_TEXT
10
0.0000
20
-1.0000
30
0.0
40
0.2200
1
DW-S1-001-001
50
0.0000
0
TEXT
8
PIT_TEXT
10
18.0000
20
-1.0000
30
0.0
40
0.2200
1
DW-S1-001
50
0.0000
0
TEXT
8
PIT_TEXT
10
48.0000
20
-1.0000
30
0.0
40
0.2200
1
longitudinal
50
0.0000
0
TEXT
8
PIT_TEXT
10
68.0000
20
-1.0000
30
0.0
40
0.2200
1
36.0
50
0.0000
0
TEXT
8
PIT_TEXT
10
78.0000
20
-1.0000
30
0.0
40
0.2200
1
00
50
0.0000
0
TEXT
8
PIT_TEXT
10
92.0000
20
-1.0000
30
0.0
40
0.2200
1
291
50
0.0000
0
TEXT
8
PIT_TEXT
10
104.0000
20
-1.0000
30
0.0
40
0.2200
1
58.8
50
0.0000
0
TEXT
8
PIT_TEXT
10
116.0000
20
-1.0000
30
0.0
40
0.2200
1
136720.88
50
0.0000
0
TEXT
8
PIT_TEXT
10
0.0000
20
-2.0000
30
0.0
40
0.2200
1
DW-S1-001-002
50
0.0000
0
TEXT
8
PIT_TEXT
10
18.0000
20
-2.0000
30
0.0
40
0.2200
1
DW-S1-001
50
0.0000
0
TEXT
8
PIT_TEXT
10
48.0000
20
-2.0000
30
0.0
40
0.2200
1
longitudinal
50
0.0000
0
TEXT
8
PIT_TEXT
10
68.0000
20
-2.0000
30
0.0
40
0.2200
1
36.0
50
0.0000
0
TEXT
8
PIT_TEXT
10
78.0000
20
-2.0000
30
0.0
40
0.2200
1
00
50
0.0000
0
TEXT
8
PIT_TEXT
10
92.0000
20
-2.0000
30
0.0
40
0.2200
1
291
50
0.0000
0
TEXT
8
PIT_TEXT
10
104.0000
20
-2.0000
30
0.0
40
0.2200
1
58.8
50
0.0000
0
TEXT
8
PIT_TEXT
10
116.0000
20
-2.0000
30
0.0
40
0.2200
1
136720.88
50
0.0000
0
TEXT
8
PIT_TEXT
10
0.0000
20
-3.0000
30
0.0
40
0.2200
1
DW-S1-001-003
50
0.0000
0
TEXT
8
PIT_TEXT
10
18.0000
20
-3.0000
30
0.0
40
0.2200
1
DW-S1-001
50
0.0000
0
TEXT
8
PIT_TEXT
10
48.0000
20
-3.0000
30
0.0
40
0.2200
1
distribution
50
0.0000
0
TEXT
8
PIT_TEXT
10
68.0000
20
-3.0000
30
0.0
40
0.2200
1
18.0
50
0.0000
0
TEXT
8
PIT_TEXT
10
78.0000
20
-3.0000
30
0.0
40
0.2200
1
00
50
0.0000
0
TEXT
8
PIT_TEXT
10
92.0000
20
-3.0000
30
0.0
40
0.2200
1
584
50
0.0000
0
TEXT
8
PIT_TEXT
10
104.0000
20
-3.0000
30
0.0
40
0.2200
1
30.538
50
0.0000
0
TEXT
8
PIT_TEXT
10
116.0000
20
-3.0000
30
0.0
40
0.2200
1
35625.49
50
0.0000
0
TEXT
8
PIT_TEXT
10
0.0000
20
-4.0000
30
0.0
40
0.2200
1
DW-S1-001-004
50
0.0000
0
TEXT
8
PIT_TEXT
10
18.0000
20
-4.0000
30
0.0
40
0.2200
1
DW-S1-001
50
0.0000
0
TEXT
8
PIT_TEXT
10
48.0000
20
-4.0000
30
0.0
40
0.2200
1
tie
50
0.0000
0
TEXT
8
PIT_TEXT
10
68.0000
20
-4.0000
30
0.0
40
0.2200
1
12.0
50
0.0000
0
TEXT
8
PIT_TEXT
10
78.0000
20
-4.0000
30
0.0
40
0.2200
1
31
50
0.0000
0
TEXT
8
PIT_TEXT
10
92.0000
20
-4.0000
30
0.0
40
0.2200
1
117
50
0.0000
0
TEXT
8
PIT_TEXT
10
104.0000
20
-4.0000
30
0.0
40
0.2200
1
34.319
50
0.0000
0
TEXT
8
PIT_TEXT
10
116.0000
20
-4.0000
30
0.0
40
0.2200
1
3564.87
50
0.0000
0
TEXT
8
PIT_TEXT
10
0.0000
20
-5.0000
30
0.0
40
0.2200
1
DW-S2-001-005
50
0.0000
0
TEXT
8
PIT_TEXT
10
18.0000
20
-5.0000
30
0.0
40
0.2200
1
DW-S2-001
50
0.0000
0
TEXT
8
PIT_TEXT
10
48.0000
20
-5.0000
30
0.0
40
0.2200
1
longitudinal
50
0.0000
0
TEXT
8
PIT_TEXT
10
68.0000
20
-5.0000
30
0.0
40
0.2200
1
36.0
50
0.0000
0
TEXT
8
PIT_TEXT
10
78.0000
20
-5.0000
30
0.0
40
0.2200
1
00
50
0.0000
0
TEXT
8
PIT_TEXT
10
92.0000
20
-5.0000
30
0.0
40
0.2200
1
291
50
0.0000
0
TEXT
8
PIT_TEXT
10
104.0000
20
-5.0000
30
0.0
40
0.2200
1
58.8
50
0.0000
0
TEXT
8
PIT_TEXT
10
116.0000
20
-5.0000
30
0.0
40
0.2200
1
136720.88
50
0.0000
0
TEXT
8
PIT_TEXT
10
0.0000
20
-6.0000
30
0.0
40
0.2200
1
DW-S2-001-006
50
0.0000
0
TEXT
8
PIT_TEXT
10
18.0000
20
-6.0000
30
0.0
40
0.2200
1
DW-S2-001
50
0.0000
0
TEXT
8
PIT_TEXT
10
48.0000
20
-6.0000
30
0.0
40
0.2200
1
longitudinal
50
0.0000
0
TEXT
8
PIT_TEXT
10
68.0000
20
-6.0000
30
0.0
40
0.2200
1
36.0
50
0.0000
0
TEXT
8
PIT_TEXT
10
78.0000
20
-6.0000
30
0.0
40
0.2200
1
00
50
0.0000
0
TEXT
8
PIT_TEXT
10
92.0000
20
-6.0000
30
0.0
40
0.2200
1
291
50
0.0000
0
TEXT
8
PIT_TEXT
10
104.0000
20
-6.0000
30
0.0
40
0.2200
1
58.8
50
0.0000
0
TEXT
8
PIT_TEXT
10
116.0000
20
-6.0000
30
0.0
40
0.2200
1
136720.88
50
0.0000
0
TEXT
8
PIT_TEXT
10
0.0000
20
-7.0000
30
0.0
40
0.2200
1
DW-S2-001-007
50
0.0000
0
TEXT
8
PIT_TEXT
10
18.0000
20
-7.0000
30
0.0
40
0.2200
1
DW-S2-001
50
0.0000
0
TEXT
8
PIT_TEXT
10
48.0000
20
-7.0000
30
0.0
40
0.2200
1
distribution
50
0.0000
0
TEXT
8
PIT_TEXT
10
68.0000
20
-7.0000
30
0.0
40
0.2200
1
18.0
50
0.0000
0
TEXT
8
PIT_TEXT
10
78.0000
20
-7.0000
30
0.0
40
0.2200
1
00
50
0.0000
0
TEXT
8
PIT_TEXT
10
92.0000
20
-7.0000
30
0.0
40
0.2200
1
584
50
0.0000
0
TEXT
8
PIT_TEXT
10
104.0000
20
-7.0000
30
0.0
40
0.2200
1
30.538
50
0.0000
0
TEXT
8
PIT_TEXT
10
116.0000
20
-7.0000
30
0.0
40
0.2200
1
35625.49
50
0.0000
0
TEXT
8
PIT_TEXT
10
0.0000
20
-8.0000
30
0.0
40
0.2200
1
DW-S2-001-008
50
0.0000
0
TEXT
8
PIT_TEXT
10
18.0000
20
-8.0000
30
0.0
40
0.2200
1
DW-S2-001
50
0.0000
0
TEXT
8
PIT_TEXT
10
48.0000
20
-8.0000
30
0.0
40
0.2200
1
tie
50
0.0000
0
TEXT
8
PIT_TEXT
10
68.0000
20
-8.0000
30
0.0
40
0.2200
1
12.0
50
0.0000
0
TEXT
8
PIT_TEXT
10
78.0000
20
-8.0000
30
0.0
40
0.2200
1
31
50
0.0000
0
TEXT
8
PIT_TEXT
10
92.0000
20
-8.0000
30
0.0
40
0.2200
1
117
50
0.0000
0
TEXT
8
PIT_TEXT
10
104.0000
20
-8.0000
30
0.0
40
0.2200
1
34.319
50
0.0000
0
TEXT
8
PIT_TEXT
10
116.0000
20
-8.0000
30
0.0
40
0.2200
1
3564.87
50
0.0000
0
TEXT
8
PIT_TEXT
10
0.0000
20
-9.0000
30
0.0
40
0.2200
1
DW-S3-001-009
50
0.0000
0
TEXT
8
PIT_TEXT
10
18.0000
20
-9.0000
30
0.0
40
0.2200
1
DW-S3-001
50
0.0000
0
TEXT
8
PIT_TEXT
10
48.0000
20
-9.0000
30
0.0
40
0.2200
1
longitudinal
50
0.0000
0
TEXT
8
PIT_TEXT
10
68.0000
20
-9.0000
30
0.0
40
0.2200
1
36.0
50
0.0000
0
TEXT
8
PIT_TEXT
10
78.0000
20
-9.0000
30
0.0
40
0.2200
1
00
50
0.0000
0
TEXT
8
PIT_TEXT
10
92.0000
20
-9.0000
30
0.0
40
0.2200
1
291
50
0.0000
0
TEXT
8
PIT_TEXT
10
104.0000
20
-9.0000
30
0.0
40
0.2200
1
58.8
50
0.0000
0
TEXT
8
PIT_TEXT
10
116.0000
20
-9.0000
30
0.0
40
0.2200
1
136720.88
50
0.0000
0
TEXT
8
PIT_TEXT
10
0.0000
20
-10.0000
30
0.0
40
0.2200
1
DW-S3-001-010
50
0.0000
0
TEXT
8
PIT_TEXT
10
18.0000
20
-10.0000
30
0.0
40
0.2200
1
DW-S3-001
50
0.0000
0
TEXT
8
PIT_TEXT
10
48.0000
20
-10.0000
30
0.0
40
0.2200
1
longitudinal
50
0.0000
0
TEXT
8
PIT_TEXT
10
68.0000
20
-10.0000
30
0.0
40
0.2200
1
36.0
50
0.0000
0
TEXT
8
PIT_TEXT
10
78.0000
20
-10.0000
30
0.0
40
0.2200
1
00
50
0.0000
0
TEXT
8
PIT_TEXT
10
92.0000
20
-10.0000
30
0.0
40
0.2200
1
291
50
0.0000
0
TEXT
8
PIT_TEXT
10
104.0000
20
-10.0000
30
0.0
40
0.2200
1
58.8
50
0.0000
0
TEXT
8
PIT_TEXT
10
116.0000
20
-10.0000
30
0.0
40
0.2200
1
136720.88
50
0.0000
0
TEXT
8
PIT_TEXT
10
0.0000
20
-11.0000
30
0.0
40
0.2200
1
DW-S3-001-011
50
0.0000
0
TEXT
8
PIT_TEXT
10
18.0000
20
-11.0000
30
0.0
40
0.2200
1
DW-S3-001
50
0.0000
0
TEXT
8
PIT_TEXT
10
48.0000
20
-11.0000
30
0.0
40
0.2200
1
distribution
50
0.0000
0
TEXT
8
PIT_TEXT
10
68.0000
20
-11.0000
30
0.0
40
0.2200
1
18.0
50
0.0000
0
TEXT
8
PIT_TEXT
10
78.0000
20
-11.0000
30
0.0
40
0.2200
1
00
50
0.0000
0
TEXT
8
PIT_TEXT
10
92.0000
20
-11.0000
30
0.0
40
0.2200
1
584
50
0.0000
0
TEXT
8
PIT_TEXT
10
104.0000
20
-11.0000
30
0.0
40
0.2200
1
30.538
50
0.0000
0
TEXT
8
PIT_TEXT
10
116.0000
20
-11.0000
30
0.0
40
0.2200
1
35625.49
50
0.0000
0
TEXT
8
PIT_TEXT
10
0.0000
20
-12.0000
30
0.0
40
0.2200
1
DW-S3-001-012
50
0.0000
0
TEXT
8
PIT_TEXT
10
18.0000
20
-12.0000
30
0.0
40
0.2200
1
DW-S3-001
50
0.0000
0
TEXT
8
PIT_TEXT
10
48.0000
20
-12.0000
30
0.0
40
0.2200
1
tie
50
0.0000
0
TEXT
8
PIT_TEXT
10
68.0000
20
-12.0000
30
0.0
40
0.2200
1
12.0
50
0.0000
0
TEXT
8
PIT_TEXT
10
78.0000
20
-12.0000
30
0.0
40
0.2200
1
31
50
0.0000
0
TEXT
8
PIT_TEXT
10
92.0000
20
-12.0000
30
0.0
40
0.2200
1
117
50
0.0000
0
TEXT
8
PIT_TEXT
10
104.0000
20
-12.0000
30
0.0
40
0.2200
1
34.319
50
0.0000
0
TEXT
8
PIT_TEXT
10
116.0000
20
-12.0000
30
0.0
40
0.2200
1
3564.87
50
0.0000
0
TEXT
8
PIT_TEXT
10
0.0000
20
-13.0000
30
0.0
40
0.2200
1
DW-S4-001-013
50
0.0000
0
TEXT
8
PIT_TEXT
10
18.0000
20
-13.0000
30
0.0
40
0.2200
1
DW-S4-001
50
0.0000
0
TEXT
8
PIT_TEXT
10
48.0000
20
-13.0000
30
0.0
40
0.2200
1
longitudinal
50
0.0000
0
TEXT
8
PIT_TEXT
10
68.0000
20
-13.0000
30
0.0
40
0.2200
1
36.0
50
0.0000
0
TEXT
8
PIT_TEXT
10
78.0000
20
-13.0000
30
0.0
40
0.2200
1
00
50
0.0000
0
TEXT
8
PIT_TEXT
10
92.0000
20
-13.0000
30
0.0
40
0.2200
1
291
50
0.0000
0
TEXT
8
PIT_TEXT
10
104.0000
20
-13.0000
30
0.0
40
0.2200
1
58.8
50
0.0000
0
TEXT
8
PIT_TEXT
10
116.0000
20
-13.0000
30
0.0
40
0.2200
1
136720.88
50
0.0000
0
TEXT
8
PIT_TEXT
10
0.0000
20
-14.0000
30
0.0
40
0.2200
1
DW-S4-001-014
50
0.0000
0
TEXT
8
PIT_TEXT
10
18.0000
20
-14.0000
30
0.0
40
0.2200
1
DW-S4-001
50
0.0000
0
TEXT
8
PIT_TEXT
10
48.0000
20
-14.0000
30
0.0
40
0.2200
1
longitudinal
50
0.0000
0
TEXT
8
PIT_TEXT
10
68.0000
20
-14.0000
30
0.0
40
0.2200
1
36.0
50
0.0000
0
TEXT
8
PIT_TEXT
10
78.0000
20
-14.0000
30
0.0
40
0.2200
1
00
50
0.0000
0
TEXT
8
PIT_TEXT
10
92.0000
20
-14.0000
30
0.0
40
0.2200
1
291
50
0.0000
0
TEXT
8
PIT_TEXT
10
104.0000
20
-14.0000
30
0.0
40
0.2200
1
58.8
50
0.0000
0
TEXT
8
PIT_TEXT
10
116.0000
20
-14.0000
30
0.0
40
0.2200
1
136720.88
50
0.0000
0
TEXT
8
PIT_TEXT
10
0.0000
20
-15.0000
30
0.0
40
0.2200
1
DW-S4-001-015
50
0.0000
0
TEXT
8
PIT_TEXT
10
18.0000
20
-15.0000
30
0.0
40
0.2200
1
DW-S4-001
50
0.0000
0
TEXT
8
PIT_TEXT
10
48.0000
20
-15.0000
30
0.0
40
0.2200
1
distribution
50
0.0000
0
TEXT
8
PIT_TEXT
10
68.0000
20
-15.0000
30
0.0
40
0.2200
1
18.0
50
0.0000
0
TEXT
8
PIT_TEXT
10
78.0000
20
-15.0000
30
0.0
40
0.2200
1
00
50
0.0000
0
TEXT
8
PIT_TEXT
10
92.0000
20
-15.0000
30
0.0
40
0.2200
1
584
50
0.0000
0
TEXT
8
PIT_TEXT
10
104.0000
20
-15.0000
30
0.0
40
0.2200
1
30.538
50
0.0000
0
TEXT
8
PIT_TEXT
10
116.0000
20
-15.0000
30
0.0
40
0.2200
1
35625.49
50
0.0000
0
TEXT
8
PIT_TEXT
10
0.0000
20
-16.0000
30
0.0
40
0.2200
1
DW-S4-001-016
50
0.0000
0
TEXT
8
PIT_TEXT
10
18.0000
20
-16.0000
30
0.0
40
0.2200
1
DW-S4-001
50
0.0000
0
TEXT
8
PIT_TEXT
10
48.0000
20
-16.0000
30
0.0
40
0.2200
1
tie
50
0.0000
0
TEXT
8
PIT_TEXT
10
68.0000
20
-16.0000
30
0.0
40
0.2200
1
12.0
50
0.0000
0
TEXT
8
PIT_TEXT
10
78.0000
20
-16.0000
30
0.0
40
0.2200
1
31
50
0.0000
0
TEXT
8
PIT_TEXT
10
92.0000
20
-16.0000
30
0.0
40
0.2200
1
117
50
0.0000
0
TEXT
8
PIT_TEXT
10
104.0000
20
-16.0000
30
0.0
40
0.2200
1
34.319
50
0.0000
0
TEXT
8
PIT_TEXT
10
116.0000
20
-16.0000
30
0.0
40
0.2200
1
3564.87
50
0.0000
0
TEXT
8
PIT_TEXT
10
0.0000
20
-17.0000
30
0.0
40
0.2200
1
DW-S5-001-017
50
0.0000
0
TEXT
8
PIT_TEXT
10
18.0000
20
-17.0000
30
0.0
40
0.2200
1
DW-S5-001
50
0.0000
0
TEXT
8
PIT_TEXT
10
48.0000
20
-17.0000
30
0.0
40
0.2200
1
longitudinal
50
0.0000
0
TEXT
8
PIT_TEXT
10
68.0000
20
-17.0000
30
0.0
40
0.2200
1
36.0
50
0.0000
0
TEXT
8
PIT_TEXT
10
78.0000
20
-17.0000
30
0.0
40
0.2200
1
00
50
0.0000
0
TEXT
8
PIT_TEXT
10
92.0000
20
-17.0000
30
0.0
40
0.2200
1
291
50
0.0000
0
TEXT
8
PIT_TEXT
10
104.0000
20
-17.0000
30
0.0
40
0.2200
1
58.8
50
0.0000
0
TEXT
8
PIT_TEXT
10
116.0000
20
-17.0000
30
0.0
40
0.2200
1
136720.88
50
0.0000
0
TEXT
8
PIT_TEXT
10
0.0000
20
-18.0000
30
0.0
40
0.2200
1
DW-S5-001-018
50
0.0000
0
TEXT
8
PIT_TEXT
10
18.0000
20
-18.0000
30
0.0
40
0.2200
1
DW-S5-001
50
0.0000
0
TEXT
8
PIT_TEXT
10
48.0000
20
-18.0000
30
0.0
40
0.2200
1
longitudinal
50
0.0000
0
TEXT
8
PIT_TEXT
10
68.0000
20
-18.0000
30
0.0
40
0.2200
1
36.0
50
0.0000
0
TEXT
8
PIT_TEXT
10
78.0000
20
-18.0000
30
0.0
40
0.2200
1
00
50
0.0000
0
TEXT
8
PIT_TEXT
10
92.0000
20
-18.0000
30
0.0
40
0.2200
1
291
50
0.0000
0
TEXT
8
PIT_TEXT
10
104.0000
20
-18.0000
30
0.0
40
0.2200
1
58.8
50
0.0000
0
TEXT
8
PIT_TEXT
10
116.0000
20
-18.0000
30
0.0
40
0.2200
1
136720.88
50
0.0000
0
TEXT
8
PIT_TEXT
10
0.0000
20
-19.0000
30
0.0
40
0.2200
1
DW-S5-001-019
50
0.0000
0
TEXT
8
PIT_TEXT
10
18.0000
20
-19.0000
30
0.0
40
0.2200
1
DW-S5-001
50
0.0000
0
TEXT
8
PIT_TEXT
10
48.0000
20
-19.0000
30
0.0
40
0.2200
1
distribution
50
0.0000
0
TEXT
8
PIT_TEXT
10
68.0000
20
-19.0000
30
0.0
40
0.2200
1
18.0
50
0.0000
0
TEXT
8
PIT_TEXT
10
78.0000
20
-19.0000
30
0.0
40
0.2200
1
00
50
0.0000
0
TEXT
8
PIT_TEXT
10
92.0000
20
-19.0000
30
0.0
40
0.2200
1
584
50
0.0000
0
TEXT
8
PIT_TEXT
10
104.0000
20
-19.0000
30
0.0
40
0.2200
1
30.538
50
0.0000
0
TEXT
8
PIT_TEXT
10
116.0000
20
-19.0000
30
0.0
40
0.2200
1
35625.49
50
0.0000
0
TEXT
8
PIT_TEXT
10
0.0000
20
-20.0000
30
0.0
40
0.2200
1
DW-S5-001-020
50
0.0000
0
TEXT
8
PIT_TEXT
10
18.0000
20
-20.0000
30
0.0
40
0.2200
1
DW-S5-001
50
0.0000
0
TEXT
8
PIT_TEXT
10
48.0000
20
-20.0000
30
0.0
40
0.2200
1
tie
50
0.0000
0
TEXT
8
PIT_TEXT
10
68.0000
20
-20.0000
30
0.0
40
0.2200
1
12.0
50
0.0000
0
TEXT
8
PIT_TEXT
10
78.0000
20
-20.0000
30
0.0
40
0.2200
1
31
50
0.0000
0
TEXT
8
PIT_TEXT
10
92.0000
20
-20.0000
30
0.0
40
0.2200
1
117
50
0.0000
0
TEXT
8
PIT_TEXT
10
104.0000
20
-20.0000
30
0.0
40
0.2200
1
34.319
50
0.0000
0
TEXT
8
PIT_TEXT
10
116.0000
20
-20.0000
30
0.0
40
0.2200
1
3564.87
50
0.0000
0
TEXT
8
PIT_TEXT
10
0.0000
20
-21.0000
30
0.0
40
0.2200
1
DW-S6-001-021
50
0.0000
0
TEXT
8
PIT_TEXT
10
18.0000
20
-21.0000
30
0.0
40
0.2200
1
DW-S6-001
50
0.0000
0
TEXT
8
PIT_TEXT
10
48.0000
20
-21.0000
30
0.0
40
0.2200
1
longitudinal
50
0.0000
0
TEXT
8
PIT_TEXT
10
68.0000
20
-21.0000
30
0.0
40
0.2200
1
36.0
50
0.0000
0
TEXT
8
PIT_TEXT
10
78.0000
20
-21.0000
30
0.0
40
0.2200
1
00
50
0.0000
0
TEXT
8
PIT_TEXT
10
92.0000
20
-21.0000
30
0.0
40
0.2200
1
291
50
0.0000
0
TEXT
8
PIT_TEXT
10
104.0000
20
-21.0000
30
0.0
40
0.2200
1
58.8
50
0.0000
0
TEXT
8
PIT_TEXT
10
116.0000
20
-21.0000
30
0.0
40
0.2200
1
136720.88
50
0.0000
0
TEXT
8
PIT_TEXT
10
0.0000
20
-22.0000
30
0.0
40
0.2200
1
DW-S6-001-022
50
0.0000
0
TEXT
8
PIT_TEXT
10
18.0000
20
-22.0000
30
0.0
40
0.2200
1
DW-S6-001
50
0.0000
0
TEXT
8
PIT_TEXT
10
48.0000
20
-22.0000
30
0.0
40
0.2200
1
longitudinal
50
0.0000
0
TEXT
8
PIT_TEXT
10
68.0000
20
-22.0000
30
0.0
40
0.2200
1
36.0
50
0.0000
0
TEXT
8
PIT_TEXT
10
78.0000
20
-22.0000
30
0.0
40
0.2200
1
00
50
0.0000
0
TEXT
8
PIT_TEXT
10
92.0000
20
-22.0000
30
0.0
40
0.2200
1
291
50
0.0000
0
TEXT
8
PIT_TEXT
10
104.0000
20
-22.0000
30
0.0
40
0.2200
1
58.8
50
0.0000
0
TEXT
8
PIT_TEXT
10
116.0000
20
-22.0000
30
0.0
40
0.2200
1
136720.88
50
0.0000
0
TEXT
8
PIT_TEXT
10
0.0000
20
-23.0000
30
0.0
40
0.2200
1
DW-S6-001-023
50
0.0000
0
TEXT
8
PIT_TEXT
10
18.0000
20
-23.0000
30
0.0
40
0.2200
1
DW-S6-001
50
0.0000
0
TEXT
8
PIT_TEXT
10
48.0000
20
-23.0000
30
0.0
40
0.2200
1
distribution
50
0.0000
0
TEXT
8
PIT_TEXT
10
68.0000
20
-23.0000
30
0.0
40
0.2200
1
18.0
50
0.0000
0
TEXT
8
PIT_TEXT
10
78.0000
20
-23.0000
30
0.0
40
0.2200
1
00
50
0.0000
0
TEXT
8
PIT_TEXT
10
92.0000
20
-23.0000
30
0.0
40
0.2200
1
584
50
0.0000
0
TEXT
8
PIT_TEXT
10
104.0000
20
-23.0000
30
0.0
40
0.2200
1
30.538
50
0.0000
0
TEXT
8
PIT_TEXT
10
116.0000
20
-23.0000
30
0.0
40
0.2200
1
35625.49
50
0.0000
0
TEXT
8
PIT_TEXT
10
0.0000
20
-24.0000
30
0.0
40
0.2200
1
DW-S6-001-024
50
0.0000
0
TEXT
8
PIT_TEXT
10
18.0000
20
-24.0000
30
0.0
40
0.2200
1
DW-S6-001
50
0.0000
0
TEXT
8
PIT_TEXT
10
48.0000
20
-24.0000
30
0.0
40
0.2200
1
tie
50
0.0000
0
TEXT
8
PIT_TEXT
10
68.0000
20
-24.0000
30
0.0
40
0.2200
1
12.0
50
0.0000
0
TEXT
8
PIT_TEXT
10
78.0000
20
-24.0000
30
0.0
40
0.2200
1
31
50
0.0000
0
TEXT
8
PIT_TEXT
10
92.0000
20
-24.0000
30
0.0
40
0.2200
1
117
50
0.0000
0
TEXT
8
PIT_TEXT
10
104.0000
20
-24.0000
30
0.0
40
0.2200
1
34.319
50
0.0000
0
TEXT
8
PIT_TEXT
10
116.0000
20
-24.0000
30
0.0
40
0.2200
1
3564.87
50
0.0000
0
TEXT
8
PIT_TEXT
10
0.0000
20
-25.0000
30
0.0
40
0.2200
1
DW-S7-001-025
50
0.0000
0
TEXT
8
PIT_TEXT
10
18.0000
20
-25.0000
30
0.0
40
0.2200
1
DW-S7-001
50
0.0000
0
TEXT
8
PIT_TEXT
10
48.0000
20
-25.0000
30
0.0
40
0.2200
1
longitudinal
50
0.0000
0
TEXT
8
PIT_TEXT
10
68.0000
20
-25.0000
30
0.0
40
0.2200
1
36.0
50
0.0000
0
TEXT
8
PIT_TEXT
10
78.0000
20
-25.0000
30
0.0
40
0.2200
1
00
50
0.0000
0
TEXT
8
PIT_TEXT
10
92.0000
20
-25.0000
30
0.0
40
0.2200
1
291
50
0.0000
0
TEXT
8
PIT_TEXT
10
104.0000
20
-25.0000
30
0.0
40
0.2200
1
58.8
50
0.0000
0
TEXT
8
PIT_TEXT
10
116.0000
20
-25.0000
30
0.0
40
0.2200
1
136720.88
50
0.0000
0
TEXT
8
PIT_TEXT
10
0.0000
20
-26.0000
30
0.0
40
0.2200
1
DW-S7-001-026
50
0.0000
0
TEXT
8
PIT_TEXT
10
18.0000
20
-26.0000
30
0.0
40
0.2200
1
DW-S7-001
50
0.0000
0
TEXT
8
PIT_TEXT
10
48.0000
20
-26.0000
30
0.0
40
0.2200
1
longitudinal
50
0.0000
0
TEXT
8
PIT_TEXT
10
68.0000
20
-26.0000
30
0.0
40
0.2200
1
36.0
50
0.0000
0
TEXT
8
PIT_TEXT
10
78.0000
20
-26.0000
30
0.0
40
0.2200
1
00
50
0.0000
0
TEXT
8
PIT_TEXT
10
92.0000
20
-26.0000
30
0.0
40
0.2200
1
291
50
0.0000
0
TEXT
8
PIT_TEXT
10
104.0000
20
-26.0000
30
0.0
40
0.2200
1
58.8
50
0.0000
0
TEXT
8
PIT_TEXT
10
116.0000
20
-26.0000
30
0.0
40
0.2200
1
136720.88
50
0.0000
0
TEXT
8
PIT_TEXT
10
0.0000
20
-27.0000
30
0.0
40
0.2200
1
DW-S7-001-027
50
0.0000
0
TEXT
8
PIT_TEXT
10
18.0000
20
-27.0000
30
0.0
40
0.2200
1
DW-S7-001
50
0.0000
0
TEXT
8
PIT_TEXT
10
48.0000
20
-27.0000
30
0.0
40
0.2200
1
distribution
50
0.0000
0
TEXT
8
PIT_TEXT
10
68.0000
20
-27.0000
30
0.0
40
0.2200
1
18.0
50
0.0000
0
TEXT
8
PIT_TEXT
10
78.0000
20
-27.0000
30
0.0
40
0.2200
1
00
50
0.0000
0
TEXT
8
PIT_TEXT
10
92.0000
20
-27.0000
30
0.0
40
0.2200
1
584
50
0.0000
0
TEXT
8
PIT_TEXT
10
104.0000
20
-27.0000
30
0.0
40
0.2200
1
30.538
50
0.0000
0
TEXT
8
PIT_TEXT
10
116.0000
20
-27.0000
30
0.0
40
0.2200
1
35625.49
50
0.0000
0
TEXT
8
PIT_TEXT
10
0.0000
20
-28.0000
30
0.0
40
0.2200
1
DW-S7-001-028
50
0.0000
0
TEXT
8
PIT_TEXT
10
18.0000
20
-28.0000
30
0.0
40
0.2200
1
DW-S7-001
50
0.0000
0
TEXT
8
PIT_TEXT
10
48.0000
20
-28.0000
30
0.0
40
0.2200
1
tie
50
0.0000
0
TEXT
8
PIT_TEXT
10
68.0000
20
-28.0000
30
0.0
40
0.2200
1
12.0
50
0.0000
0
TEXT
8
PIT_TEXT
10
78.0000
20
-28.0000
30
0.0
40
0.2200
1
31
50
0.0000
0
TEXT
8
PIT_TEXT
10
92.0000
20
-28.0000
30
0.0
40
0.2200
1
117
50
0.0000
0
TEXT
8
PIT_TEXT
10
104.0000
20
-28.0000
30
0.0
40
0.2200
1
34.319
50
0.0000
0
TEXT
8
PIT_TEXT
10
116.0000
20
-28.0000
30
0.0
40
0.2200
1
3564.87
50
0.0000
0
TEXT
8
PIT_TEXT
10
0.0000
20
-29.0000
30
0.0
40
0.2200
1
DW-S8-001-029
50
0.0000
0
TEXT
8
PIT_TEXT
10
18.0000
20
-29.0000
30
0.0
40
0.2200
1
DW-S8-001
50
0.0000
0
TEXT
8
PIT_TEXT
10
48.0000
20
-29.0000
30
0.0
40
0.2200
1
longitudinal
50
0.0000
0
TEXT
8
PIT_TEXT
10
68.0000
20
-29.0000
30
0.0
40
0.2200
1
36.0
50
0.0000
0
TEXT
8
PIT_TEXT
10
78.0000
20
-29.0000
30
0.0
40
0.2200
1
00
50
0.0000
0
TEXT
8
PIT_TEXT
10
92.0000
20
-29.0000
30
0.0
40
0.2200
1
291
50
0.0000
0
TEXT
8
PIT_TEXT
10
104.0000
20
-29.0000
30
0.0
40
0.2200
1
58.8
50
0.0000
0
TEXT
8
PIT_TEXT
10
116.0000
20
-29.0000
30
0.0
40
0.2200
1
136720.88
50
0.0000
0
TEXT
8
PIT_TEXT
10
0.0000
20
-30.0000
30
0.0
40
0.2200
1
DW-S8-001-030
50
0.0000
0
TEXT
8
PIT_TEXT
10
18.0000
20
-30.0000
30
0.0
40
0.2200
1
DW-S8-001
50
0.0000
0
TEXT
8
PIT_TEXT
10
48.0000
20
-30.0000
30
0.0
40
0.2200
1
longitudinal
50
0.0000
0
TEXT
8
PIT_TEXT
10
68.0000
20
-30.0000
30
0.0
40
0.2200
1
36.0
50
0.0000
0
TEXT
8
PIT_TEXT
10
78.0000
20
-30.0000
30
0.0
40
0.2200
1
00
50
0.0000
0
TEXT
8
PIT_TEXT
10
92.0000
20
-30.0000
30
0.0
40
0.2200
1
291
50
0.0000
0
TEXT
8
PIT_TEXT
10
104.0000
20
-30.0000
30
0.0
40
0.2200
1
58.8
50
0.0000
0
TEXT
8
PIT_TEXT
10
116.0000
20
-30.0000
30
0.0
40
0.2200
1
136720.88
50
0.0000
0
TEXT
8
PIT_TEXT
10
0.0000
20
-31.0000
30
0.0
40
0.2200
1
DW-S8-001-031
50
0.0000
0
TEXT
8
PIT_TEXT
10
18.0000
20
-31.0000
30
0.0
40
0.2200
1
DW-S8-001
50
0.0000
0
TEXT
8
PIT_TEXT
10
48.0000
20
-31.0000
30
0.0
40
0.2200
1
distribution
50
0.0000
0
TEXT
8
PIT_TEXT
10
68.0000
20
-31.0000
30
0.0
40
0.2200
1
18.0
50
0.0000
0
TEXT
8
PIT_TEXT
10
78.0000
20
-31.0000
30
0.0
40
0.2200
1
00
50
0.0000
0
TEXT
8
PIT_TEXT
10
92.0000
20
-31.0000
30
0.0
40
0.2200
1
584
50
0.0000
0
TEXT
8
PIT_TEXT
10
104.0000
20
-31.0000
30
0.0
40
0.2200
1
30.538
50
0.0000
0
TEXT
8
PIT_TEXT
10
116.0000
20
-31.0000
30
0.0
40
0.2200
1
35625.49
50
0.0000
0
TEXT
8
PIT_TEXT
10
0.0000
20
-32.0000
30
0.0
40
0.2200
1
DW-S8-001-032
50
0.0000
0
TEXT
8
PIT_TEXT
10
18.0000
20
-32.0000
30
0.0
40
0.2200
1
DW-S8-001
50
0.0000
0
TEXT
8
PIT_TEXT
10
48.0000
20
-32.0000
30
0.0
40
0.2200
1
tie
50
0.0000
0
TEXT
8
PIT_TEXT
10
68.0000
20
-32.0000
30
0.0
40
0.2200
1
12.0
50
0.0000
0
TEXT
8
PIT_TEXT
10
78.0000
20
-32.0000
30
0.0
40
0.2200
1
31
50
0.0000
0
TEXT
8
PIT_TEXT
10
92.0000
20
-32.0000
30
0.0
40
0.2200
1
117
50
0.0000
0
TEXT
8
PIT_TEXT
10
104.0000
20
-32.0000
30
0.0
40
0.2200
1
34.319
50
0.0000
0
TEXT
8
PIT_TEXT
10
116.0000
20
-32.0000
30
0.0
40
0.2200
1
3564.87
50
0.0000
0
TEXT
8
PIT_TEXT
10
0.0000
20
-33.0000
30
0.0
40
0.2200
1
RS-L1-1-033
50
0.0000
0
TEXT
8
PIT_TEXT
10
18.0000
20
-33.0000
30
0.0
40
0.2200
1
RS-L1-1
50
0.0000
0
TEXT
8
PIT_TEXT
10
48.0000
20
-33.0000
30
0.0
40
0.2200
1
longitudinal
50
0.0000
0
TEXT
8
PIT_TEXT
10
68.0000
20
-33.0000
30
0.0
40
0.2200
1
25.0
50
0.0000
0
TEXT
8
PIT_TEXT
10
78.0000
20
-33.0000
30
0.0
40
0.2200
1
00
50
0.0000
0
TEXT
8
PIT_TEXT
10
92.0000
20
-33.0000
30
0.0
40
0.2200
1
8
50
0.0000
0
TEXT
8
PIT_TEXT
10
104.0000
20
-33.0000
30
0.0
40
0.2200
1
22.805
50
0.0000
0
TEXT
8
PIT_TEXT
10
116.0000
20
-33.0000
30
0.0
40
0.2200
1
703.02
50
0.0000
0
TEXT
8
PIT_TEXT
10
0.0000
20
-34.0000
30
0.0
40
0.2200
1
RS-L1-1-034
50
0.0000
0
TEXT
8
PIT_TEXT
10
18.0000
20
-34.0000
30
0.0
40
0.2200
1
RS-L1-1
50
0.0000
0
TEXT
8
PIT_TEXT
10
48.0000
20
-34.0000
30
0.0
40
0.2200
1
stirrup
50
0.0000
0
TEXT
8
PIT_TEXT
10
68.0000
20
-34.0000
30
0.0
40
0.2200
1
12.0
50
0.0000
0
TEXT
8
PIT_TEXT
10
78.0000
20
-34.0000
30
0.0
40
0.2200
1
21
50
0.0000
0
TEXT
8
PIT_TEXT
10
92.0000
20
-34.0000
30
0.0
40
0.2200
1
136
50
0.0000
0
TEXT
8
PIT_TEXT
10
104.0000
20
-34.0000
30
0.0
40
0.2200
1
6.5
50
0.0000
0
TEXT
8
PIT_TEXT
10
116.0000
20
-34.0000
30
0.0
40
0.2200
1
784.83
50
0.0000
0
TEXT
8
PIT_TEXT
10
0.0000
20
-35.0000
30
0.0
40
0.2200
1
RS-L1-2-035
50
0.0000
0
TEXT
8
PIT_TEXT
10
18.0000
20
-35.0000
30
0.0
40
0.2200
1
RS-L1-2
50
0.0000
0
TEXT
8
PIT_TEXT
10
48.0000
20
-35.0000
30
0.0
40
0.2200
1
longitudinal
50
0.0000
0
TEXT
8
PIT_TEXT
10
68.0000
20
-35.0000
30
0.0
40
0.2200
1
25.0
50
0.0000
0
TEXT
8
PIT_TEXT
10
78.0000
20
-35.0000
30
0.0
40
0.2200
1
00
50
0.0000
0
TEXT
8
PIT_TEXT
10
92.0000
20
-35.0000
30
0.0
40
0.2200
1
8
50
0.0000
0
TEXT
8
PIT_TEXT
10
104.0000
20
-35.0000
30
0.0
40
0.2200
1
22.805
50
0.0000
0
TEXT
8
PIT_TEXT
10
116.0000
20
-35.0000
30
0.0
40
0.2200
1
703.02
50
0.0000
0
TEXT
8
PIT_TEXT
10
0.0000
20
-36.0000
30
0.0
40
0.2200
1
RS-L1-2-036
50
0.0000
0
TEXT
8
PIT_TEXT
10
18.0000
20
-36.0000
30
0.0
40
0.2200
1
RS-L1-2
50
0.0000
0
TEXT
8
PIT_TEXT
10
48.0000
20
-36.0000
30
0.0
40
0.2200
1
stirrup
50
0.0000
0
TEXT
8
PIT_TEXT
10
68.0000
20
-36.0000
30
0.0
40
0.2200
1
12.0
50
0.0000
0
TEXT
8
PIT_TEXT
10
78.0000
20
-36.0000
30
0.0
40
0.2200
1
21
50
0.0000
0
TEXT
8
PIT_TEXT
10
92.0000
20
-36.0000
30
0.0
40
0.2200
1
136
50
0.0000
0
TEXT
8
PIT_TEXT
10
104.0000
20
-36.0000
30
0.0
40
0.2200
1
6.5
50
0.0000
0
TEXT
8
PIT_TEXT
10
116.0000
20
-36.0000
30
0.0
40
0.2200
1
784.83
50
0.0000
0
LWPOLYLINE
8
PIT_REBAR_MAIN
90
4
70
1
10
0.0000
20
-42.0000
10
12.0000
20
-42.0000
10
12.0000
20
-40.0000
10
0.0000
20
-40.0000
0
LINE
8
PIT_REBAR_MAIN
10
3.0000
20
-46.0000
30
0.0
11
15.0000
21
-46.0000
31
0.0
0
LINE
8
PIT_REBAR_STIRRUP
10
25.0000
20
-48.0000
30
0.0
11
35.0000
21
-48.0000
31
0.0
0
LINE
8
PIT_REBAR_STIRRUP
10
35.0000
20
-48.0000
30
0.0
11
35.0000
21
-42.0000
31
0.0
0
LINE
8
PIT_REBAR_STIRRUP
10
35.0000
20
-42.0000
30
0.0
11
25.0000
21
-42.0000
31
0.0
0
LINE
8
PIT_REBAR_STIRRUP
10
25.0000
20
-42.0000
30
0.0
11
25.0000
21
-48.0000
31
0.0
0
TEXT
8
PIT_TEXT
10
0.0000
20
-50.0000
30
0.0
40
0.2800
1
Shape 00: straight bar; Shape 21: closed stirrup with hooks; Shape 31/99: tie/additional bars, review required.
50
0.0000
0
LWPOLYLINE
8
PIT_FRAME
90
4
70
1
10
0.0000
20
-18.0000
10
120.0000
20
-18.0000
10
120.0000
20
-2.0000
10
0.0000
20
-2.0000
0
LINE
8
PIT_FRAME
10
18.0000
20
-18.0000
30
0.0
11
18.0000
21
-2.0000
31
0.0
0
LINE
8
PIT_FRAME
10
80.0000
20
-18.0000
30
0.0
11
80.0000
21
-2.0000
31
0.0
0
LINE
8
PIT_FRAME
10
95.0000
20
-18.0000
30
0.0
11
95.0000
21
-2.0000
31
0.0
0
LINE
8
PIT_FRAME
10
108.0000
20
-18.0000
30
0.0
11
108.0000
21
-2.0000
31
0.0
0
LINE
8
PIT_FRAME
10
0.0000
20
-14.0000
30
0.0
11
120.0000
21
-14.0000
31
0.0
0
LINE
8
PIT_FRAME
10
0.0000
20
-10.0000
30
0.0
11
120.0000
21
-10.0000
31
0.0
0
LINE
8
PIT_FRAME
10
0.0000
20
-6.0000
30
0.0
11
120.0000
21
-6.0000
31
0.0
0
TEXT
8
PIT_TITLE
10
2.0000
20
-5.0000
30
0.0
40
0.3500
1
工程名称
50
0.0000
0
TEXT
8
PIT_TEXT
10
20.0000
20
-5.0000
30
0.0
40
0.3500
1
上海 56m 深圆形/多边形竖井双墙体系规范算法回归算例
50
0.0000
0
TEXT
8
PIT_TITLE
10
2.0000
20
-9.0000
30
0.0
40
0.3500
1
图名
50
0.0000
0
TEXT
8
PIT_TEXT
10
20.0000
20
-9.0000
30
0.0
40
0.3500
1
钢筋大样与钢筋表
50
0.0000
0
TEXT
8
PIT_TITLE
10
2.0000
20
-13.0000
30
0.0
40
0.3500
1
阶段
50
0.0000
0
TEXT
8
PIT_TEXT
10
20.0000
20
-13.0000
30
0.0
40
0.3500
1
施工图深化接口
50
0.0000
0
TEXT
8
PIT_TITLE
10
82.0000
20
-5.0000
30
0.0
40
0.3500
1
图号
50
0.0000
0
TEXT
8
PIT_TEXT
10
97.0000
20
-5.0000
30
0.0
40
0.3500
1
S-07
50
0.0000
0
TEXT
8
PIT_TITLE
10
82.0000
20
-9.0000
30
0.0
40
0.3500
1
比例
50
0.0000
0
TEXT
8
PIT_TEXT
10
97.0000
20
-9.0000
30
0.0
40
0.3500
1
NTS
50
0.0000
0
TEXT
8
PIT_TITLE
10
82.0000
20
-13.0000
30
0.0
40
0.3500
1
设计
50
0.0000
0
TEXT
8
PIT_TEXT
10
97.0000
20
-13.0000
30
0.0
40
0.3500
1
AI
50
0.0000
0
TEXT
8
PIT_TITLE
10
82.0000
20
-17.0000
30
0.0
40
0.3500
1
校核
50
0.0000
0
TEXT
8
PIT_TEXT
10
97.0000
20
-17.0000
30
0.0
40
0.3500
1
REVIEW
50
0.0000
0
ENDSEC
0
EOF
