0
SECTION
2
HEADER
9
$ACADVER
1
AC1009
0
ENDSEC
0
SECTION
2
TABLES
0
TABLE
2
LAYER
70
8
0
LAYER
2
0
70
0
62
1
6
CONTINUOUS
0
LAYER
2
PIT_COLUMN
70
0
62
2
6
CONTINUOUS
0
LAYER
2
PIT_DIM
70
0
62
3
6
CONTINUOUS
0
LAYER
2
PIT_EXCAVATION
70
0
62
4
6
CONTINUOUS
0
LAYER
2
PIT_FRAME
70
0
62
5
6
CONTINUOUS
0
LAYER
2
PIT_SUPPORT
70
0
62
6
6
CONTINUOUS
0
LAYER
2
PIT_TEXT
70
0
62
7
6
CONTINUOUS
0
LAYER
2
PIT_TITLE
70
0
62
1
6
CONTINUOUS
0
LAYER
2
PIT_WALE
70
0
62
2
6
CONTINUOUS
0
LAYER
2
PIT_WALL
70
0
62
3
6
CONTINUOUS
0
ENDTAB
0
ENDSEC
0
SECTION
2
ENTITIES
0
LWPOLYLINE
8
PIT_EXCAVATION
90
4
70
1
10
0.0000
20
0.0000
10
72.0000
20
0.0000
10
72.0000
20
28.0000
10
0.0000
20
28.0000
0
LINE
8
PIT_WALL
10
0.0000
20
0.0000
30
0.0
11
72.0000
21
0.0000
31
0.0
0
TEXT
8
PIT_TEXT
10
36.0000
20
0.0000
30
0.0
40
0.3500
1
DW-S1-001 t=1.2m
50
0.0000
0
LINE
8
PIT_WALL
10
72.0000
20
0.0000
30
0.0
11
72.0000
21
28.0000
31
0.0
0
TEXT
8
PIT_TEXT
10
72.0000
20
14.0000
30
0.0
40
0.3500
1
DW-S2-001 t=1.2m
50
90.0000
0
LINE
8
PIT_WALL
10
72.0000
20
28.0000
30
0.0
11
0.0000
21
28.0000
31
0.0
0
TEXT
8
PIT_TEXT
10
36.0000
20
28.0000
30
0.0
40
0.3500
1
DW-S3-001 t=1.2m
50
180.0000
0
LINE
8
PIT_WALL
10
0.0000
20
28.0000
30
0.0
11
0.0000
21
0.0000
31
0.0
0
TEXT
8
PIT_TEXT
10
0.0000
20
14.0000
30
0.0
40
0.3500
1
DW-S4-001 t=1.2m
50
-90.0000
0
LINE
8
PIT_WALE
10
0.0000
20
0.0000
30
0.0
11
72.0000
21
0.0000
31
0.0
0
LINE
8
PIT_WALE
10
72.0000
20
0.0000
30
0.0
11
72.0000
21
28.0000
31
0.0
0
LINE
8
PIT_WALE
10
72.0000
20
28.0000
30
0.0
11
0.0000
21
28.0000
31
0.0
0
LINE
8
PIT_WALE
10
0.0000
20
28.0000
30
0.0
11
0.0000
21
0.0000
31
0.0
0
LINE
8
PIT_WALE
10
0.0000
20
0.0000
30
0.0
11
72.0000
21
0.0000
31
0.0
0
LINE
8
PIT_WALE
10
72.0000
20
0.0000
30
0.0
11
72.0000
21
28.0000
31
0.0
0
LINE
8
PIT_WALE
10
72.0000
20
28.0000
30
0.0
11
0.0000
21
28.0000
31
0.0
0
LINE
8
PIT_WALE
10
0.0000
20
28.0000
30
0.0
11
0.0000
21
0.0000
31
0.0
0
LINE
8
PIT_WALE
10
0.0000
20
0.0000
30
0.0
11
72.0000
21
0.0000
31
0.0
0
LINE
8
PIT_WALE
10
72.0000
20
0.0000
30
0.0
11
72.0000
21
28.0000
31
0.0
0
LINE
8
PIT_WALE
10
72.0000
20
28.0000
30
0.0
11
0.0000
21
28.0000
31
0.0
0
LINE
8
PIT_WALE
10
0.0000
20
28.0000
30
0.0
11
0.0000
21
0.0000
31
0.0
0
LINE
8
PIT_WALE
10
0.0000
20
0.0000
30
0.0
11
72.0000
21
0.0000
31
0.0
0
LINE
8
PIT_WALE
10
72.0000
20
0.0000
30
0.0
11
72.0000
21
28.0000
31
0.0
0
LINE
8
PIT_WALE
10
72.0000
20
28.0000
30
0.0
11
0.0000
21
28.0000
31
0.0
0
LINE
8
PIT_WALE
10
0.0000
20
28.0000
30
0.0
11
0.0000
21
0.0000
31
0.0
0
LINE
8
PIT_WALE
10
0.0000
20
0.0000
30
0.0
11
72.0000
21
0.0000
31
0.0
0
LINE
8
PIT_WALE
10
72.0000
20
0.0000
30
0.0
11
72.0000
21
28.0000
31
0.0
0
LINE
8
PIT_WALE
10
72.0000
20
28.0000
30
0.0
11
0.0000
21
28.0000
31
0.0
0
LINE
8
PIT_WALE
10
0.0000
20
28.0000
30
0.0
11
0.0000
21
0.0000
31
0.0
0
LINE
8
PIT_WALE
10
0.0000
20
0.0000
30
0.0
11
72.0000
21
0.0000
31
0.0
0
LINE
8
PIT_WALE
10
72.0000
20
0.0000
30
0.0
11
72.0000
21
28.0000
31
0.0
0
LINE
8
PIT_WALE
10
72.0000
20
28.0000
30
0.0
11
0.0000
21
28.0000
31
0.0
0
LINE
8
PIT_WALE
10
0.0000
20
28.0000
30
0.0
11
0.0000
21
0.0000
31
0.0
0
LINE
8
PIT_SUPPORT
10
6.3000
20
0.0000
30
0.0
11
6.3000
21
28.0000
31
0.0
0
TEXT
8
PIT_TEXT
10
6.3000
20
14.0000
30
0.0
40
0.3200
1
SP-L1-1 L1 N=0kN
50
90.0000
0
LINE
8
PIT_SUPPORT
10
8.1000
20
0.0000
30
0.0
11
8.1000
21
28.0000
31
0.0
0
TEXT
8
PIT_TEXT
10
8.1000
20
14.0000
30
0.0
40
0.3200
1
SP-L1-2 L1 N=0kN
50
90.0000
0
LINE
8
PIT_SUPPORT
10
15.9000
20
0.0000
30
0.0
11
15.9000
21
28.0000
31
0.0
0
TEXT
8
PIT_TEXT
10
15.9000
20
14.0000
30
0.0
40
0.3200
1
SP-L1-3 L1 N=0kN
50
90.0000
0
LINE
8
PIT_SUPPORT
10
17.7000
20
0.0000
30
0.0
11
17.7000
21
28.0000
31
0.0
0
TEXT
8
PIT_TEXT
10
17.7000
20
14.0000
30
0.0
40
0.3200
1
SP-L1-4 L1 N=0kN
50
90.0000
0
LINE
8
PIT_SUPPORT
10
25.5000
20
0.0000
30
0.0
11
25.5000
21
28.0000
31
0.0
0
TEXT
8
PIT_TEXT
10
25.5000
20
14.0000
30
0.0
40
0.3200
1
SP-L1-5 L1 N=0kN
50
90.0000
0
LINE
8
PIT_SUPPORT
10
27.3000
20
0.0000
30
0.0
11
27.3000
21
28.0000
31
0.0
0
TEXT
8
PIT_TEXT
10
27.3000
20
14.0000
30
0.0
40
0.3200
1
SP-L1-6 L1 N=0kN
50
90.0000
0
LINE
8
PIT_SUPPORT
10
35.1000
20
0.0000
30
0.0
11
35.1000
21
28.0000
31
0.0
0
TEXT
8
PIT_TEXT
10
35.1000
20
14.0000
30
0.0
40
0.3200
1
SP-L1-7 L1 N=0kN
50
90.0000
0
LINE
8
PIT_SUPPORT
10
36.9000
20
0.0000
30
0.0
11
36.9000
21
28.0000
31
0.0
0
TEXT
8
PIT_TEXT
10
36.9000
20
14.0000
30
0.0
40
0.3200
1
SP-L1-8 L1 N=0kN
50
90.0000
0
LINE
8
PIT_SUPPORT
10
44.7000
20
0.0000
30
0.0
11
44.7000
21
28.0000
31
0.0
0
TEXT
8
PIT_TEXT
10
44.7000
20
14.0000
30
0.0
40
0.3200
1
SP-L1-9 L1 N=0kN
50
90.0000
0
LINE
8
PIT_SUPPORT
10
46.5000
20
0.0000
30
0.0
11
46.5000
21
28.0000
31
0.0
0
TEXT
8
PIT_TEXT
10
46.5000
20
14.0000
30
0.0
40
0.3200
1
SP-L1-10 L1 N=0kN
50
90.0000
0
LINE
8
PIT_SUPPORT
10
54.3000
20
0.0000
30
0.0
11
54.3000
21
28.0000
31
0.0
0
TEXT
8
PIT_TEXT
10
54.3000
20
14.0000
30
0.0
40
0.3200
1
SP-L1-11 L1 N=0kN
50
90.0000
0
LINE
8
PIT_SUPPORT
10
56.1000
20
0.0000
30
0.0
11
56.1000
21
28.0000
31
0.0
0
TEXT
8
PIT_TEXT
10
56.1000
20
14.0000
30
0.0
40
0.3200
1
SP-L1-12 L1 N=0kN
50
90.0000
0
LINE
8
PIT_SUPPORT
10
63.9000
20
0.0000
30
0.0
11
63.9000
21
28.0000
31
0.0
0
TEXT
8
PIT_TEXT
10
63.9000
20
14.0000
30
0.0
40
0.3200
1
SP-L1-13 L1 N=0kN
50
90.0000
0
LINE
8
PIT_SUPPORT
10
65.7000
20
0.0000
30
0.0
11
65.7000
21
28.0000
31
0.0
0
TEXT
8
PIT_TEXT
10
65.7000
20
14.0000
30
0.0
40
0.3200
1
SP-L1-14 L1 N=0kN
50
90.0000
0
LINE
8
PIT_SUPPORT
10
0.0000
20
3.3600
30
0.0
11
3.3600
21
0.0000
31
0.0
0
TEXT
8
PIT_TEXT
10
1.6800
20
1.6800
30
0.0
40
0.3200
1
DB-L1-1 L1 N=0kN
50
-45.0000
0
LINE
8
PIT_SUPPORT
10
3.3600
20
28.0000
30
0.0
11
0.0000
21
24.6400
31
0.0
0
TEXT
8
PIT_TEXT
10
1.6800
20
26.3200
30
0.0
40
0.3200
1
DB-L1-2 L1 N=0kN
50
-135.0000
0
LINE
8
PIT_SUPPORT
10
68.6400
20
0.0000
30
0.0
11
72.0000
21
3.3600
31
0.0
0
TEXT
8
PIT_TEXT
10
70.3200
20
1.6800
30
0.0
40
0.3200
1
DB-L1-3 L1 N=0kN
50
45.0000
0
LINE
8
PIT_SUPPORT
10
72.0000
20
24.6400
30
0.0
11
68.6400
21
28.0000
31
0.0
0
TEXT
8
PIT_TEXT
10
70.3200
20
26.3200
30
0.0
40
0.3200
1
DB-L1-4 L1 N=0kN
50
135.0000
0
LINE
8
PIT_SUPPORT
10
6.3000
20
0.0000
30
0.0
11
6.3000
21
28.0000
31
0.0
0
TEXT
8
PIT_TEXT
10
6.3000
20
14.0000
30
0.0
40
0.3200
1
SP-L2-1 L2 N=0kN
50
90.0000
0
LINE
8
PIT_SUPPORT
10
8.1000
20
0.0000
30
0.0
11
8.1000
21
28.0000
31
0.0
0
TEXT
8
PIT_TEXT
10
8.1000
20
14.0000
30
0.0
40
0.3200
1
SP-L2-2 L2 N=0kN
50
90.0000
0
LINE
8
PIT_SUPPORT
10
15.9000
20
0.0000
30
0.0
11
15.9000
21
28.0000
31
0.0
0
TEXT
8
PIT_TEXT
10
15.9000
20
14.0000
30
0.0
40
0.3200
1
SP-L2-3 L2 N=0kN
50
90.0000
0
LINE
8
PIT_SUPPORT
10
17.7000
20
0.0000
30
0.0
11
17.7000
21
28.0000
31
0.0
0
TEXT
8
PIT_TEXT
10
17.7000
20
14.0000
30
0.0
40
0.3200
1
SP-L2-4 L2 N=0kN
50
90.0000
0
LINE
8
PIT_SUPPORT
10
25.5000
20
0.0000
30
0.0
11
25.5000
21
28.0000
31
0.0
0
TEXT
8
PIT_TEXT
10
25.5000
20
14.0000
30
0.0
40
0.3200
1
SP-L2-5 L2 N=0kN
50
90.0000
0
LINE
8
PIT_SUPPORT
10
27.3000
20
0.0000
30
0.0
11
27.3000
21
28.0000
31
0.0
0
TEXT
8
PIT_TEXT
10
27.3000
20
14.0000
30
0.0
40
0.3200
1
SP-L2-6 L2 N=0kN
50
90.0000
0
LINE
8
PIT_SUPPORT
10
35.1000
20
0.0000
30
0.0
11
35.1000
21
28.0000
31
0.0
0
TEXT
8
PIT_TEXT
10
35.1000
20
14.0000
30
0.0
40
0.3200
1
SP-L2-7 L2 N=0kN
50
90.0000
0
LINE
8
PIT_SUPPORT
10
36.9000
20
0.0000
30
0.0
11
36.9000
21
28.0000
31
0.0
0
TEXT
8
PIT_TEXT
10
36.9000
20
14.0000
30
0.0
40
0.3200
1
SP-L2-8 L2 N=0kN
50
90.0000
0
LINE
8
PIT_SUPPORT
10
44.7000
20
0.0000
30
0.0
11
44.7000
21
28.0000
31
0.0
0
TEXT
8
PIT_TEXT
10
44.7000
20
14.0000
30
0.0
40
0.3200
1
SP-L2-9 L2 N=0kN
50
90.0000
0
LINE
8
PIT_SUPPORT
10
46.5000
20
0.0000
30
0.0
11
46.5000
21
28.0000
31
0.0
0
TEXT
8
PIT_TEXT
10
46.5000
20
14.0000
30
0.0
40
0.3200
1
SP-L2-10 L2 N=0kN
50
90.0000
0
LINE
8
PIT_SUPPORT
10
54.3000
20
0.0000
30
0.0
11
54.3000
21
28.0000
31
0.0
0
TEXT
8
PIT_TEXT
10
54.3000
20
14.0000
30
0.0
40
0.3200
1
SP-L2-11 L2 N=0kN
50
90.0000
0
LINE
8
PIT_SUPPORT
10
56.1000
20
0.0000
30
0.0
11
56.1000
21
28.0000
31
0.0
0
TEXT
8
PIT_TEXT
10
56.1000
20
14.0000
30
0.0
40
0.3200
1
SP-L2-12 L2 N=0kN
50
90.0000
0
LINE
8
PIT_SUPPORT
10
63.9000
20
0.0000
30
0.0
11
63.9000
21
28.0000
31
0.0
0
TEXT
8
PIT_TEXT
10
63.9000
20
14.0000
30
0.0
40
0.3200
1
SP-L2-13 L2 N=0kN
50
90.0000
0
LINE
8
PIT_SUPPORT
10
65.7000
20
0.0000
30
0.0
11
65.7000
21
28.0000
31
0.0
0
TEXT
8
PIT_TEXT
10
65.7000
20
14.0000
30
0.0
40
0.3200
1
SP-L2-14 L2 N=0kN
50
90.0000
0
LINE
8
PIT_SUPPORT
10
0.0000
20
3.3600
30
0.0
11
3.3600
21
0.0000
31
0.0
0
TEXT
8
PIT_TEXT
10
1.6800
20
1.6800
30
0.0
40
0.3200
1
DB-L2-1 L2 N=0kN
50
-45.0000
0
LINE
8
PIT_SUPPORT
10
3.3600
20
28.0000
30
0.0
11
0.0000
21
24.6400
31
0.0
0
TEXT
8
PIT_TEXT
10
1.6800
20
26.3200
30
0.0
40
0.3200
1
DB-L2-2 L2 N=0kN
50
-135.0000
0
LINE
8
PIT_SUPPORT
10
68.6400
20
0.0000
30
0.0
11
72.0000
21
3.3600
31
0.0
0
TEXT
8
PIT_TEXT
10
70.3200
20
1.6800
30
0.0
40
0.3200
1
DB-L2-3 L2 N=0kN
50
45.0000
0
LINE
8
PIT_SUPPORT
10
72.0000
20
24.6400
30
0.0
11
68.6400
21
28.0000
31
0.0
0
TEXT
8
PIT_TEXT
10
70.3200
20
26.3200
30
0.0
40
0.3200
1
DB-L2-4 L2 N=0kN
50
135.0000
0
LINE
8
PIT_SUPPORT
10
6.3000
20
0.0000
30
0.0
11
6.3000
21
28.0000
31
0.0
0
TEXT
8
PIT_TEXT
10
6.3000
20
14.0000
30
0.0
40
0.3200
1
SP-L3-1 L3 N=0kN
50
90.0000
0
LINE
8
PIT_SUPPORT
10
8.1000
20
0.0000
30
0.0
11
8.1000
21
28.0000
31
0.0
0
TEXT
8
PIT_TEXT
10
8.1000
20
14.0000
30
0.0
40
0.3200
1
SP-L3-2 L3 N=0kN
50
90.0000
0
LINE
8
PIT_SUPPORT
10
15.9000
20
0.0000
30
0.0
11
15.9000
21
28.0000
31
0.0
0
TEXT
8
PIT_TEXT
10
15.9000
20
14.0000
30
0.0
40
0.3200
1
SP-L3-3 L3 N=0kN
50
90.0000
0
LINE
8
PIT_SUPPORT
10
17.7000
20
0.0000
30
0.0
11
17.7000
21
28.0000
31
0.0
0
TEXT
8
PIT_TEXT
10
17.7000
20
14.0000
30
0.0
40
0.3200
1
SP-L3-4 L3 N=0kN
50
90.0000
0
LINE
8
PIT_SUPPORT
10
25.5000
20
0.0000
30
0.0
11
25.5000
21
28.0000
31
0.0
0
TEXT
8
PIT_TEXT
10
25.5000
20
14.0000
30
0.0
40
0.3200
1
SP-L3-5 L3 N=0kN
50
90.0000
0
LINE
8
PIT_SUPPORT
10
27.3000
20
0.0000
30
0.0
11
27.3000
21
28.0000
31
0.0
0
TEXT
8
PIT_TEXT
10
27.3000
20
14.0000
30
0.0
40
0.3200
1
SP-L3-6 L3 N=0kN
50
90.0000
0
LINE
8
PIT_SUPPORT
10
35.1000
20
0.0000
30
0.0
11
35.1000
21
28.0000
31
0.0
0
TEXT
8
PIT_TEXT
10
35.1000
20
14.0000
30
0.0
40
0.3200
1
SP-L3-7 L3 N=0kN
50
90.0000
0
LINE
8
PIT_SUPPORT
10
36.9000
20
0.0000
30
0.0
11
36.9000
21
28.0000
31
0.0
0
TEXT
8
PIT_TEXT
10
36.9000
20
14.0000
30
0.0
40
0.3200
1
SP-L3-8 L3 N=0kN
50
90.0000
0
LINE
8
PIT_SUPPORT
10
44.7000
20
0.0000
30
0.0
11
44.7000
21
28.0000
31
0.0
0
TEXT
8
PIT_TEXT
10
44.7000
20
14.0000
30
0.0
40
0.3200
1
SP-L3-9 L3 N=0kN
50
90.0000
0
LINE
8
PIT_SUPPORT
10
46.5000
20
0.0000
30
0.0
11
46.5000
21
28.0000
31
0.0
0
TEXT
8
PIT_TEXT
10
46.5000
20
14.0000
30
0.0
40
0.3200
1
SP-L3-10 L3 N=0kN
50
90.0000
0
LINE
8
PIT_SUPPORT
10
54.3000
20
0.0000
30
0.0
11
54.3000
21
28.0000
31
0.0
0
TEXT
8
PIT_TEXT
10
54.3000
20
14.0000
30
0.0
40
0.3200
1
SP-L3-11 L3 N=0kN
50
90.0000
0
LINE
8
PIT_SUPPORT
10
56.1000
20
0.0000
30
0.0
11
56.1000
21
28.0000
31
0.0
0
TEXT
8
PIT_TEXT
10
56.1000
20
14.0000
30
0.0
40
0.3200
1
SP-L3-12 L3 N=0kN
50
90.0000
0
LINE
8
PIT_SUPPORT
10
63.9000
20
0.0000
30
0.0
11
63.9000
21
28.0000
31
0.0
0
TEXT
8
PIT_TEXT
10
63.9000
20
14.0000
30
0.0
40
0.3200
1
SP-L3-13 L3 N=0kN
50
90.0000
0
LINE
8
PIT_SUPPORT
10
65.7000
20
0.0000
30
0.0
11
65.7000
21
28.0000
31
0.0
0
TEXT
8
PIT_TEXT
10
65.7000
20
14.0000
30
0.0
40
0.3200
1
SP-L3-14 L3 N=0kN
50
90.0000
0
LINE
8
PIT_SUPPORT
10
0.0000
20
3.3600
30
0.0
11
3.3600
21
0.0000
31
0.0
0
TEXT
8
PIT_TEXT
10
1.6800
20
1.6800
30
0.0
40
0.3200
1
DB-L3-1 L3 N=0kN
50
-45.0000
0
LINE
8
PIT_SUPPORT
10
3.3600
20
28.0000
30
0.0
11
0.0000
21
24.6400
31
0.0
0
TEXT
8
PIT_TEXT
10
1.6800
20
26.3200
30
0.0
40
0.3200
1
DB-L3-2 L3 N=0kN
50
-135.0000
0
LINE
8
PIT_SUPPORT
10
68.6400
20
0.0000
30
0.0
11
72.0000
21
3.3600
31
0.0
0
TEXT
8
PIT_TEXT
10
70.3200
20
1.6800
30
0.0
40
0.3200
1
DB-L3-3 L3 N=0kN
50
45.0000
0
LINE
8
PIT_SUPPORT
10
72.0000
20
24.6400
30
0.0
11
68.6400
21
28.0000
31
0.0
0
TEXT
8
PIT_TEXT
10
70.3200
20
26.3200
30
0.0
40
0.3200
1
DB-L3-4 L3 N=0kN
50
135.0000
0
LINE
8
PIT_SUPPORT
10
6.3000
20
0.0000
30
0.0
11
6.3000
21
28.0000
31
0.0
0
TEXT
8
PIT_TEXT
10
6.3000
20
14.0000
30
0.0
40
0.3200
1
SP-L4-1 L4 N=0kN
50
90.0000
0
LINE
8
PIT_SUPPORT
10
8.1000
20
0.0000
30
0.0
11
8.1000
21
28.0000
31
0.0
0
TEXT
8
PIT_TEXT
10
8.1000
20
14.0000
30
0.0
40
0.3200
1
SP-L4-2 L4 N=0kN
50
90.0000
0
LINE
8
PIT_SUPPORT
10
15.9000
20
0.0000
30
0.0
11
15.9000
21
28.0000
31
0.0
0
TEXT
8
PIT_TEXT
10
15.9000
20
14.0000
30
0.0
40
0.3200
1
SP-L4-3 L4 N=0kN
50
90.0000
0
LINE
8
PIT_SUPPORT
10
17.7000
20
0.0000
30
0.0
11
17.7000
21
28.0000
31
0.0
0
TEXT
8
PIT_TEXT
10
17.7000
20
14.0000
30
0.0
40
0.3200
1
SP-L4-4 L4 N=0kN
50
90.0000
0
LINE
8
PIT_SUPPORT
10
25.5000
20
0.0000
30
0.0
11
25.5000
21
28.0000
31
0.0
0
TEXT
8
PIT_TEXT
10
25.5000
20
14.0000
30
0.0
40
0.3200
1
SP-L4-5 L4 N=0kN
50
90.0000
0
LINE
8
PIT_SUPPORT
10
27.3000
20
0.0000
30
0.0
11
27.3000
21
28.0000
31
0.0
0
TEXT
8
PIT_TEXT
10
27.3000
20
14.0000
30
0.0
40
0.3200
1
SP-L4-6 L4 N=0kN
50
90.0000
0
LINE
8
PIT_SUPPORT
10
35.1000
20
0.0000
30
0.0
11
35.1000
21
28.0000
31
0.0
0
TEXT
8
PIT_TEXT
10
35.1000
20
14.0000
30
0.0
40
0.3200
1
SP-L4-7 L4 N=0kN
50
90.0000
0
LINE
8
PIT_SUPPORT
10
36.9000
20
0.0000
30
0.0
11
36.9000
21
28.0000
31
0.0
0
TEXT
8
PIT_TEXT
10
36.9000
20
14.0000
30
0.0
40
0.3200
1
SP-L4-8 L4 N=0kN
50
90.0000
0
LINE
8
PIT_SUPPORT
10
44.7000
20
0.0000
30
0.0
11
44.7000
21
28.0000
31
0.0
0
TEXT
8
PIT_TEXT
10
44.7000
20
14.0000
30
0.0
40
0.3200
1
SP-L4-9 L4 N=0kN
50
90.0000
0
LINE
8
PIT_SUPPORT
10
46.5000
20
0.0000
30
0.0
11
46.5000
21
28.0000
31
0.0
0
TEXT
8
PIT_TEXT
10
46.5000
20
14.0000
30
0.0
40
0.3200
1
SP-L4-10 L4 N=0kN
50
90.0000
0
LINE
8
PIT_SUPPORT
10
54.3000
20
0.0000
30
0.0
11
54.3000
21
28.0000
31
0.0
0
TEXT
8
PIT_TEXT
10
54.3000
20
14.0000
30
0.0
40
0.3200
1
SP-L4-11 L4 N=0kN
50
90.0000
0
LINE
8
PIT_SUPPORT
10
56.1000
20
0.0000
30
0.0
11
56.1000
21
28.0000
31
0.0
0
TEXT
8
PIT_TEXT
10
56.1000
20
14.0000
30
0.0
40
0.3200
1
SP-L4-12 L4 N=0kN
50
90.0000
0
LINE
8
PIT_SUPPORT
10
63.9000
20
0.0000
30
0.0
11
63.9000
21
28.0000
31
0.0
0
TEXT
8
PIT_TEXT
10
63.9000
20
14.0000
30
0.0
40
0.3200
1
SP-L4-13 L4 N=0kN
50
90.0000
0
LINE
8
PIT_SUPPORT
10
65.7000
20
0.0000
30
0.0
11
65.7000
21
28.0000
31
0.0
0
TEXT
8
PIT_TEXT
10
65.7000
20
14.0000
30
0.0
40
0.3200
1
SP-L4-14 L4 N=0kN
50
90.0000
0
LINE
8
PIT_SUPPORT
10
0.0000
20
3.3600
30
0.0
11
3.3600
21
0.0000
31
0.0
0
TEXT
8
PIT_TEXT
10
1.6800
20
1.6800
30
0.0
40
0.3200
1
DB-L4-1 L4 N=0kN
50
-45.0000
0
LINE
8
PIT_SUPPORT
10
3.3600
20
28.0000
30
0.0
11
0.0000
21
24.6400
31
0.0
0
TEXT
8
PIT_TEXT
10
1.6800
20
26.3200
30
0.0
40
0.3200
1
DB-L4-2 L4 N=0kN
50
-135.0000
0
LINE
8
PIT_SUPPORT
10
68.6400
20
0.0000
30
0.0
11
72.0000
21
3.3600
31
0.0
0
TEXT
8
PIT_TEXT
10
70.3200
20
1.6800
30
0.0
40
0.3200
1
DB-L4-3 L4 N=0kN
50
45.0000
0
LINE
8
PIT_SUPPORT
10
72.0000
20
24.6400
30
0.0
11
68.6400
21
28.0000
31
0.0
0
TEXT
8
PIT_TEXT
10
70.3200
20
26.3200
30
0.0
40
0.3200
1
DB-L4-4 L4 N=0kN
50
135.0000
0
LINE
8
PIT_SUPPORT
10
6.3000
20
0.0000
30
0.0
11
6.3000
21
28.0000
31
0.0
0
TEXT
8
PIT_TEXT
10
6.3000
20
14.0000
30
0.0
40
0.3200
1
SP-L5-1 L5 N=0kN
50
90.0000
0
LINE
8
PIT_SUPPORT
10
8.1000
20
0.0000
30
0.0
11
8.1000
21
28.0000
31
0.0
0
TEXT
8
PIT_TEXT
10
8.1000
20
14.0000
30
0.0
40
0.3200
1
SP-L5-2 L5 N=0kN
50
90.0000
0
LINE
8
PIT_SUPPORT
10
15.9000
20
0.0000
30
0.0
11
15.9000
21
28.0000
31
0.0
0
TEXT
8
PIT_TEXT
10
15.9000
20
14.0000
30
0.0
40
0.3200
1
SP-L5-3 L5 N=0kN
50
90.0000
0
LINE
8
PIT_SUPPORT
10
17.7000
20
0.0000
30
0.0
11
17.7000
21
28.0000
31
0.0
0
TEXT
8
PIT_TEXT
10
17.7000
20
14.0000
30
0.0
40
0.3200
1
SP-L5-4 L5 N=0kN
50
90.0000
0
LINE
8
PIT_SUPPORT
10
25.5000
20
0.0000
30
0.0
11
25.5000
21
28.0000
31
0.0
0
TEXT
8
PIT_TEXT
10
25.5000
20
14.0000
30
0.0
40
0.3200
1
SP-L5-5 L5 N=0kN
50
90.0000
0
LINE
8
PIT_SUPPORT
10
27.3000
20
0.0000
30
0.0
11
27.3000
21
28.0000
31
0.0
0
TEXT
8
PIT_TEXT
10
27.3000
20
14.0000
30
0.0
40
0.3200
1
SP-L5-6 L5 N=0kN
50
90.0000
0
LINE
8
PIT_SUPPORT
10
35.1000
20
0.0000
30
0.0
11
35.1000
21
28.0000
31
0.0
0
TEXT
8
PIT_TEXT
10
35.1000
20
14.0000
30
0.0
40
0.3200
1
SP-L5-7 L5 N=0kN
50
90.0000
0
LINE
8
PIT_SUPPORT
10
36.9000
20
0.0000
30
0.0
11
36.9000
21
28.0000
31
0.0
0
TEXT
8
PIT_TEXT
10
36.9000
20
14.0000
30
0.0
40
0.3200
1
SP-L5-8 L5 N=0kN
50
90.0000
0
LINE
8
PIT_SUPPORT
10
44.7000
20
0.0000
30
0.0
11
44.7000
21
28.0000
31
0.0
0
TEXT
8
PIT_TEXT
10
44.7000
20
14.0000
30
0.0
40
0.3200
1
SP-L5-9 L5 N=0kN
50
90.0000
0
LINE
8
PIT_SUPPORT
10
46.5000
20
0.0000
30
0.0
11
46.5000
21
28.0000
31
0.0
0
TEXT
8
PIT_TEXT
10
46.5000
20
14.0000
30
0.0
40
0.3200
1
SP-L5-10 L5 N=0kN
50
90.0000
0
LINE
8
PIT_SUPPORT
10
54.3000
20
0.0000
30
0.0
11
54.3000
21
28.0000
31
0.0
0
TEXT
8
PIT_TEXT
10
54.3000
20
14.0000
30
0.0
40
0.3200
1
SP-L5-11 L5 N=0kN
50
90.0000
0
LINE
8
PIT_SUPPORT
10
56.1000
20
0.0000
30
0.0
11
56.1000
21
28.0000
31
0.0
0
TEXT
8
PIT_TEXT
10
56.1000
20
14.0000
30
0.0
40
0.3200
1
SP-L5-12 L5 N=0kN
50
90.0000
0
LINE
8
PIT_SUPPORT
10
63.9000
20
0.0000
30
0.0
11
63.9000
21
28.0000
31
0.0
0
TEXT
8
PIT_TEXT
10
63.9000
20
14.0000
30
0.0
40
0.3200
1
SP-L5-13 L5 N=0kN
50
90.0000
0
LINE
8
PIT_SUPPORT
10
65.7000
20
0.0000
30
0.0
11
65.7000
21
28.0000
31
0.0
0
TEXT
8
PIT_TEXT
10
65.7000
20
14.0000
30
0.0
40
0.3200
1
SP-L5-14 L5 N=0kN
50
90.0000
0
LINE
8
PIT_SUPPORT
10
0.0000
20
3.3600
30
0.0
11
3.3600
21
0.0000
31
0.0
0
TEXT
8
PIT_TEXT
10
1.6800
20
1.6800
30
0.0
40
0.3200
1
DB-L5-1 L5 N=0kN
50
-45.0000
0
LINE
8
PIT_SUPPORT
10
3.3600
20
28.0000
30
0.0
11
0.0000
21
24.6400
31
0.0
0
TEXT
8
PIT_TEXT
10
1.6800
20
26.3200
30
0.0
40
0.3200
1
DB-L5-2 L5 N=0kN
50
-135.0000
0
LINE
8
PIT_SUPPORT
10
68.6400
20
0.0000
30
0.0
11
72.0000
21
3.3600
31
0.0
0
TEXT
8
PIT_TEXT
10
70.3200
20
1.6800
30
0.0
40
0.3200
1
DB-L5-3 L5 N=0kN
50
45.0000
0
LINE
8
PIT_SUPPORT
10
72.0000
20
24.6400
30
0.0
11
68.6400
21
28.0000
31
0.0
0
TEXT
8
PIT_TEXT
10
70.3200
20
26.3200
30
0.0
40
0.3200
1
DB-L5-4 L5 N=0kN
50
135.0000
0
CIRCLE
8
PIT_COLUMN
10
6.3000
20
14.0000
30
0.0
40
0.4000
0
TEXT
8
PIT_TEXT
10
6.7000
20
14.4000
30
0.0
40
0.3000
1
STC-001
50
0.0000
0
CIRCLE
8
PIT_COLUMN
10
8.1000
20
14.0000
30
0.0
40
0.4000
0
TEXT
8
PIT_TEXT
10
8.5000
20
14.4000
30
0.0
40
0.3000
1
STC-002
50
0.0000
0
CIRCLE
8
PIT_COLUMN
10
15.9000
20
14.0000
30
0.0
40
0.4000
0
TEXT
8
PIT_TEXT
10
16.3000
20
14.4000
30
0.0
40
0.3000
1
STC-003
50
0.0000
0
CIRCLE
8
PIT_COLUMN
10
17.7000
20
14.0000
30
0.0
40
0.4000
0
TEXT
8
PIT_TEXT
10
18.1000
20
14.4000
30
0.0
40
0.3000
1
STC-004
50
0.0000
0
CIRCLE
8
PIT_COLUMN
10
25.5000
20
14.0000
30
0.0
40
0.4000
0
TEXT
8
PIT_TEXT
10
25.9000
20
14.4000
30
0.0
40
0.3000
1
STC-005
50
0.0000
0
CIRCLE
8
PIT_COLUMN
10
27.3000
20
14.0000
30
0.0
40
0.4000
0
TEXT
8
PIT_TEXT
10
27.7000
20
14.4000
30
0.0
40
0.3000
1
STC-006
50
0.0000
0
CIRCLE
8
PIT_COLUMN
10
35.1000
20
14.0000
30
0.0
40
0.4000
0
TEXT
8
PIT_TEXT
10
35.5000
20
14.4000
30
0.0
40
0.3000
1
STC-007
50
0.0000
0
CIRCLE
8
PIT_COLUMN
10
36.9000
20
14.0000
30
0.0
40
0.4000
0
TEXT
8
PIT_TEXT
10
37.3000
20
14.4000
30
0.0
40
0.3000
1
STC-008
50
0.0000
0
CIRCLE
8
PIT_COLUMN
10
44.7000
20
14.0000
30
0.0
40
0.4000
0
TEXT
8
PIT_TEXT
10
45.1000
20
14.4000
30
0.0
40
0.3000
1
STC-009
50
0.0000
0
CIRCLE
8
PIT_COLUMN
10
46.5000
20
14.0000
30
0.0
40
0.4000
0
TEXT
8
PIT_TEXT
10
46.9000
20
14.4000
30
0.0
40
0.3000
1
STC-010
50
0.0000
0
CIRCLE
8
PIT_COLUMN
10
54.3000
20
14.0000
30
0.0
40
0.4000
0
TEXT
8
PIT_TEXT
10
54.7000
20
14.4000
30
0.0
40
0.3000
1
STC-011
50
0.0000
0
CIRCLE
8
PIT_COLUMN
10
56.1000
20
14.0000
30
0.0
40
0.4000
0
TEXT
8
PIT_TEXT
10
56.5000
20
14.4000
30
0.0
40
0.3000
1
STC-012
50
0.0000
0
CIRCLE
8
PIT_COLUMN
10
63.9000
20
14.0000
30
0.0
40
0.4000
0
TEXT
8
PIT_TEXT
10
64.3000
20
14.4000
30
0.0
40
0.3000
1
STC-013
50
0.0000
0
CIRCLE
8
PIT_COLUMN
10
65.7000
20
14.0000
30
0.0
40
0.4000
0
TEXT
8
PIT_TEXT
10
66.1000
20
14.4000
30
0.0
40
0.3000
1
STC-014
50
0.0000
0
TEXT
8
PIT_TITLE
10
0.0000
20
-5.0000
30
0.0
40
0.5500
1
S-01 Foundation pit support plan - PitGuard generated CAD exchange drawing
50
0.0000
0
LINE
8
PIT_DIM
10
0.0000
20
31.0000
30
0.0
11
72.0000
21
31.0000
31
0.0
0
LINE
8
PIT_DIM
10
0.0000
20
30.7500
30
0.0
11
0.0000
21
31.2500
31
0.0
0
LINE
8
PIT_DIM
10
72.0000
20
30.7500
30
0.0
11
72.0000
21
31.2500
31
0.0
0
TEXT
8
PIT_DIM
10
36.0000
20
33.0000
30
0.0
40
0.2800
1
72.0 m
50
0.0000
0
LINE
8
PIT_DIM
10
75.0000
20
0.0000
30
0.0
11
75.0000
21
28.0000
31
0.0
0
LINE
8
PIT_DIM
10
75.0000
20
-0.2500
30
0.0
11
75.0000
21
0.2500
31
0.0
0
LINE
8
PIT_DIM
10
75.0000
20
27.7500
30
0.0
11
75.0000
21
28.2500
31
0.0
0
TEXT
8
PIT_DIM
10
75.0000
20
14.8000
30
0.0
40
0.2800
1
28.0 m
50
0.0000
0
LWPOLYLINE
8
PIT_FRAME
90
4
70
1
10
0.0000
20
-18.0000
10
120.0000
20
-18.0000
10
120.0000
20
-2.0000
10
0.0000
20
-2.0000
0
LINE
8
PIT_FRAME
10
18.0000
20
-18.0000
30
0.0
11
18.0000
21
-2.0000
31
0.0
0
LINE
8
PIT_FRAME
10
80.0000
20
-18.0000
30
0.0
11
80.0000
21
-2.0000
31
0.0
0
LINE
8
PIT_FRAME
10
95.0000
20
-18.0000
30
0.0
11
95.0000
21
-2.0000
31
0.0
0
LINE
8
PIT_FRAME
10
108.0000
20
-18.0000
30
0.0
11
108.0000
21
-2.0000
31
0.0
0
LINE
8
PIT_FRAME
10
0.0000
20
-14.0000
30
0.0
11
120.0000
21
-14.0000
31
0.0
0
LINE
8
PIT_FRAME
10
0.0000
20
-10.0000
30
0.0
11
120.0000
21
-10.0000
31
0.0
0
LINE
8
PIT_FRAME
10
0.0000
20
-6.0000
30
0.0
11
120.0000
21
-6.0000
31
0.0
0
TEXT
8
PIT_TITLE
10
2.0000
20
-5.0000
30
0.0
40
0.3500
1
工程名称
50
0.0000
0
TEXT
8
PIT_TEXT
10
20.0000
20
-5.0000
30
0.0
40
0.3500
1
上海 31.5m 超深通道基坑降水耦合作用回归算例
50
0.0000
0
TEXT
8
PIT_TITLE
10
2.0000
20
-9.0000
30
0.0
40
0.3500
1
图名
50
0.0000
0
TEXT
8
PIT_TEXT
10
20.0000
20
-9.0000
30
0.0
40
0.3500
1
基坑围护与支撑平面布置图
50
0.0000
0
TEXT
8
PIT_TITLE
10
2.0000
20
-13.0000
30
0.0
40
0.3500
1
阶段
50
0.0000
0
TEXT
8
PIT_TEXT
10
20.0000
20
-13.0000
30
0.0
40
0.3500
1
施工图深化接口
50
0.0000
0
TEXT
8
PIT_TITLE
10
82.0000
20
-5.0000
30
0.0
40
0.3500
1
图号
50
0.0000
0
TEXT
8
PIT_TEXT
10
97.0000
20
-5.0000
30
0.0
40
0.3500
1
S-01
50
0.0000
0
TEXT
8
PIT_TITLE
10
82.0000
20
-9.0000
30
0.0
40
0.3500
1
比例
50
0.0000
0
TEXT
8
PIT_TEXT
10
97.0000
20
-9.0000
30
0.0
40
0.3500
1
1:200
50
0.0000
0
TEXT
8
PIT_TITLE
10
82.0000
20
-13.0000
30
0.0
40
0.3500
1
设计
50
0.0000
0
TEXT
8
PIT_TEXT
10
97.0000
20
-13.0000
30
0.0
40
0.3500
1
AI
50
0.0000
0
TEXT
8
PIT_TITLE
10
82.0000
20
-17.0000
30
0.0
40
0.3500
1
校核
50
0.0000
0
TEXT
8
PIT_TEXT
10
97.0000
20
-17.0000
30
0.0
40
0.3500
1
REVIEW
50
0.0000
0
ENDSEC
0
EOF
