0
SECTION
2
HEADER
9
$ACADVER
1
AC1009
0
ENDSEC
0
SECTION
2
TABLES
0
TABLE
2
LAYER
70
7
0
LAYER
2
0
70
0
62
1
6
CONTINUOUS
0
LAYER
2
PIT_FRAME
70
0
62
2
6
CONTINUOUS
0
LAYER
2
PIT_PLATE
70
0
62
3
6
CONTINUOUS
0
LAYER
2
PIT_REBAR_MAIN
70
0
62
4
6
CONTINUOUS
0
LAYER
2
PIT_REBAR_STIRRUP
70
0
62
5
6
CONTINUOUS
0
LAYER
2
PIT_SUPPORT
70
0
62
6
6
CONTINUOUS
0
LAYER
2
PIT_TEXT
70
0
62
7
6
CONTINUOUS
0
LAYER
2
PIT_TITLE
70
0
62
1
6
CONTINUOUS
0
LAYER
2
PIT_WALE
70
0
62
2
6
CONTINUOUS
0
ENDTAB
0
ENDSEC
0
SECTION
2
ENTITIES
0
LWPOLYLINE
8
PIT_WALE
90
4
70
1
10
0.0000
20
0.0000
10
8.0000
20
0.0000
10
8.0000
20
1.2000
10
0.0000
20
1.2000
0
LWPOLYLINE
8
PIT_PLATE
90
4
70
1
10
3.2000
20
-0.6000
10
4.8000
20
-0.6000
10
4.8000
20
1.8000
10
3.2000
20
1.8000
0
LINE
8
PIT_SUPPORT
10
4.0000
20
-3.0000
30
0.0
11
4.0000
21
4.0000
31
0.0
0
LINE
8
PIT_REBAR_MAIN
10
0.3000
20
0.1800
30
0.0
11
7.7000
21
0.1800
31
0.0
0
LINE
8
PIT_REBAR_MAIN
10
0.3000
20
0.3400
30
0.0
11
7.7000
21
0.3400
31
0.0
0
LINE
8
PIT_REBAR_MAIN
10
0.3000
20
0.5000
30
0.0
11
7.7000
21
0.5000
31
0.0
0
LINE
8
PIT_REBAR_MAIN
10
0.3000
20
0.6600
30
0.0
11
7.7000
21
0.6600
31
0.0
0
LINE
8
PIT_REBAR_MAIN
10
0.3000
20
0.8200
30
0.0
11
7.7000
21
0.8200
31
0.0
0
LINE
8
PIT_REBAR_MAIN
10
0.3000
20
0.9800
30
0.0
11
7.7000
21
0.9800
31
0.0
0
LINE
8
PIT_REBAR_STIRRUP
10
3.4000
20
-0.5000
30
0.0
11
3.4000
21
1.7000
31
0.0
0
LINE
8
PIT_REBAR_STIRRUP
10
3.6200
20
-0.5000
30
0.0
11
3.6200
21
1.7000
31
0.0
0
LINE
8
PIT_REBAR_STIRRUP
10
3.8400
20
-0.5000
30
0.0
11
3.8400
21
1.7000
31
0.0
0
LINE
8
PIT_REBAR_STIRRUP
10
4.0600
20
-0.5000
30
0.0
11
4.0600
21
1.7000
31
0.0
0
LINE
8
PIT_REBAR_STIRRUP
10
4.2800
20
-0.5000
30
0.0
11
4.2800
21
1.7000
31
0.0
0
LINE
8
PIT_REBAR_STIRRUP
10
4.5000
20
-0.5000
30
0.0
11
4.5000
21
1.7000
31
0.0
0
TEXT
8
PIT_TEXT
10
0.0000
20
2.2000
30
0.0
40
0.4000
1
D-02 Support-wale node detail ND-SP-L1-1-A
50
0.0000
0
TEXT
8
PIT_TEXT
10
0.0000
20
-1.6000
30
0.0
40
0.2800
1
节点附加竖向筋 D20x4; 节点加密箍筋 D12@100
50
0.0000
0
LWPOLYLINE
8
PIT_FRAME
90
4
70
1
10
0.0000
20
-18.0000
10
120.0000
20
-18.0000
10
120.0000
20
-2.0000
10
0.0000
20
-2.0000
0
LINE
8
PIT_FRAME
10
18.0000
20
-18.0000
30
0.0
11
18.0000
21
-2.0000
31
0.0
0
LINE
8
PIT_FRAME
10
80.0000
20
-18.0000
30
0.0
11
80.0000
21
-2.0000
31
0.0
0
LINE
8
PIT_FRAME
10
95.0000
20
-18.0000
30
0.0
11
95.0000
21
-2.0000
31
0.0
0
LINE
8
PIT_FRAME
10
108.0000
20
-18.0000
30
0.0
11
108.0000
21
-2.0000
31
0.0
0
LINE
8
PIT_FRAME
10
0.0000
20
-14.0000
30
0.0
11
120.0000
21
-14.0000
31
0.0
0
LINE
8
PIT_FRAME
10
0.0000
20
-10.0000
30
0.0
11
120.0000
21
-10.0000
31
0.0
0
LINE
8
PIT_FRAME
10
0.0000
20
-6.0000
30
0.0
11
120.0000
21
-6.0000
31
0.0
0
TEXT
8
PIT_TITLE
10
2.0000
20
-5.0000
30
0.0
40
0.3500
1
工程名称
50
0.0000
0
TEXT
8
PIT_TEXT
10
20.0000
20
-5.0000
30
0.0
40
0.3500
1
上海 31.5m 超深通道基坑降水耦合作用回归算例
50
0.0000
0
TEXT
8
PIT_TITLE
10
2.0000
20
-9.0000
30
0.0
40
0.3500
1
图名
50
0.0000
0
TEXT
8
PIT_TEXT
10
20.0000
20
-9.0000
30
0.0
40
0.3500
1
支撑-围檩节点详图
50
0.0000
0
TEXT
8
PIT_TITLE
10
2.0000
20
-13.0000
30
0.0
40
0.3500
1
阶段
50
0.0000
0
TEXT
8
PIT_TEXT
10
20.0000
20
-13.0000
30
0.0
40
0.3500
1
施工图深化接口
50
0.0000
0
TEXT
8
PIT_TITLE
10
82.0000
20
-5.0000
30
0.0
40
0.3500
1
图号
50
0.0000
0
TEXT
8
PIT_TEXT
10
97.0000
20
-5.0000
30
0.0
40
0.3500
1
S-03
50
0.0000
0
TEXT
8
PIT_TITLE
10
82.0000
20
-9.0000
30
0.0
40
0.3500
1
比例
50
0.0000
0
TEXT
8
PIT_TEXT
10
97.0000
20
-9.0000
30
0.0
40
0.3500
1
1:50
50
0.0000
0
TEXT
8
PIT_TITLE
10
82.0000
20
-13.0000
30
0.0
40
0.3500
1
设计
50
0.0000
0
TEXT
8
PIT_TEXT
10
97.0000
20
-13.0000
30
0.0
40
0.3500
1
AI
50
0.0000
0
TEXT
8
PIT_TITLE
10
82.0000
20
-17.0000
30
0.0
40
0.3500
1
校核
50
0.0000
0
TEXT
8
PIT_TEXT
10
97.0000
20
-17.0000
30
0.0
40
0.3500
1
REVIEW
50
0.0000
0
ENDSEC
0
EOF
