0
SECTION
2
HEADER
9
$ACADVER
1
AC1009
0
ENDSEC
0
SECTION
2
TABLES
0
TABLE
2
LAYER
70
6
0
LAYER
2
0
70
0
62
1
6
CONTINUOUS
0
LAYER
2
PIT_COLUMN
70
0
62
2
6
CONTINUOUS
0
LAYER
2
PIT_CONCRETE
70
0
62
3
6
CONTINUOUS
0
LAYER
2
PIT_FRAME
70
0
62
4
6
CONTINUOUS
0
LAYER
2
PIT_PILE
70
0
62
5
6
CONTINUOUS
0
LAYER
2
PIT_REBAR_MAIN
70
0
62
6
6
CONTINUOUS
0
LAYER
2
PIT_TEXT
70
0
62
7
6
CONTINUOUS
0
LAYER
2
PIT_TITLE
70
0
62
1
6
CONTINUOUS
0
ENDTAB
0
ENDSEC
0
SECTION
2
ENTITIES
0
LINE
8
PIT_COLUMN
10
0.0000
20
1.2000
30
0.0
11
0.0000
21
8.0000
31
0.0
0
LWPOLYLINE
8
PIT_CONCRETE
90
4
70
1
10
-1.0000
20
0.0000
10
1.0000
20
0.0000
10
1.0000
20
1.2000
10
-1.0000
20
1.2000
0
LINE
8
PIT_PILE
10
0.0000
20
0.0000
30
0.0
11
0.0000
21
-10.0000
31
0.0
0
CIRCLE
8
PIT_PILE
10
0.0000
20
-10.0000
30
0.0
40
0.4000
0
LINE
8
PIT_REBAR_MAIN
10
-0.3500
20
-9.5000
30
0.0
11
-0.3500
21
0.8000
31
0.0
0
LINE
8
PIT_REBAR_MAIN
10
-0.2100
20
-9.5000
30
0.0
11
-0.2100
21
0.8000
31
0.0
0
LINE
8
PIT_REBAR_MAIN
10
-0.0700
20
-9.5000
30
0.0
11
-0.0700
21
0.8000
31
0.0
0
LINE
8
PIT_REBAR_MAIN
10
0.0700
20
-9.5000
30
0.0
11
0.0700
21
0.8000
31
0.0
0
LINE
8
PIT_REBAR_MAIN
10
0.2100
20
-9.5000
30
0.0
11
0.2100
21
0.8000
31
0.0
0
LINE
8
PIT_REBAR_MAIN
10
0.3500
20
-9.5000
30
0.0
11
0.3500
21
0.8000
31
0.0
0
TEXT
8
PIT_TEXT
10
1.2000
20
0.8000
30
0.0
40
0.3500
1
Column: STC-001
50
0.0000
0
TEXT
8
PIT_TEXT
10
1.2000
20
-1.0000
30
0.0
40
0.3000
1
Pile D=0.80m L=10.0m util=0.0
50
0.0000
0
TEXT
8
PIT_TITLE
10
-2.0000
20
-11.0000
30
0.0
40
0.4500
1
S-05 Temporary column and pile detail
50
0.0000
0
LWPOLYLINE
8
PIT_FRAME
90
4
70
1
10
0.0000
20
-18.0000
10
120.0000
20
-18.0000
10
120.0000
20
-2.0000
10
0.0000
20
-2.0000
0
LINE
8
PIT_FRAME
10
18.0000
20
-18.0000
30
0.0
11
18.0000
21
-2.0000
31
0.0
0
LINE
8
PIT_FRAME
10
80.0000
20
-18.0000
30
0.0
11
80.0000
21
-2.0000
31
0.0
0
LINE
8
PIT_FRAME
10
95.0000
20
-18.0000
30
0.0
11
95.0000
21
-2.0000
31
0.0
0
LINE
8
PIT_FRAME
10
108.0000
20
-18.0000
30
0.0
11
108.0000
21
-2.0000
31
0.0
0
LINE
8
PIT_FRAME
10
0.0000
20
-14.0000
30
0.0
11
120.0000
21
-14.0000
31
0.0
0
LINE
8
PIT_FRAME
10
0.0000
20
-10.0000
30
0.0
11
120.0000
21
-10.0000
31
0.0
0
LINE
8
PIT_FRAME
10
0.0000
20
-6.0000
30
0.0
11
120.0000
21
-6.0000
31
0.0
0
TEXT
8
PIT_TITLE
10
2.0000
20
-5.0000
30
0.0
40
0.3500
1
工程名称
50
0.0000
0
TEXT
8
PIT_TEXT
10
20.0000
20
-5.0000
30
0.0
40
0.3500
1
上海 31.5m 超深通道基坑降水耦合作用回归算例
50
0.0000
0
TEXT
8
PIT_TITLE
10
2.0000
20
-9.0000
30
0.0
40
0.3500
1
图名
50
0.0000
0
TEXT
8
PIT_TEXT
10
20.0000
20
-9.0000
30
0.0
40
0.3500
1
临时立柱与立柱桩详图
50
0.0000
0
TEXT
8
PIT_TITLE
10
2.0000
20
-13.0000
30
0.0
40
0.3500
1
阶段
50
0.0000
0
TEXT
8
PIT_TEXT
10
20.0000
20
-13.0000
30
0.0
40
0.3500
1
施工图深化接口
50
0.0000
0
TEXT
8
PIT_TITLE
10
82.0000
20
-5.0000
30
0.0
40
0.3500
1
图号
50
0.0000
0
TEXT
8
PIT_TEXT
10
97.0000
20
-5.0000
30
0.0
40
0.3500
1
S-05
50
0.0000
0
TEXT
8
PIT_TITLE
10
82.0000
20
-9.0000
30
0.0
40
0.3500
1
比例
50
0.0000
0
TEXT
8
PIT_TEXT
10
97.0000
20
-9.0000
30
0.0
40
0.3500
1
1:50
50
0.0000
0
TEXT
8
PIT_TITLE
10
82.0000
20
-13.0000
30
0.0
40
0.3500
1
设计
50
0.0000
0
TEXT
8
PIT_TEXT
10
97.0000
20
-13.0000
30
0.0
40
0.3500
1
AI
50
0.0000
0
TEXT
8
PIT_TITLE
10
82.0000
20
-17.0000
30
0.0
40
0.3500
1
校核
50
0.0000
0
TEXT
8
PIT_TEXT
10
97.0000
20
-17.0000
30
0.0
40
0.3500
1
REVIEW
50
0.0000
0
ENDSEC
0
EOF
