0
SECTION
2
HEADER
9
$ACADVER
1
AC1009
0
ENDSEC
0
SECTION
2
TABLES
0
TABLE
2
LAYER
70
8
0
LAYER
2
0
70
0
62
1
6
CONTINUOUS
0
LAYER
2
PIT_COLUMN
70
0
62
2
6
CONTINUOUS
0
LAYER
2
PIT_DIM
70
0
62
3
6
CONTINUOUS
0
LAYER
2
PIT_EXCAVATION
70
0
62
4
6
CONTINUOUS
0
LAYER
2
PIT_FRAME
70
0
62
5
6
CONTINUOUS
0
LAYER
2
PIT_SUPPORT
70
0
62
6
6
CONTINUOUS
0
LAYER
2
PIT_TEXT
70
0
62
7
6
CONTINUOUS
0
LAYER
2
PIT_TITLE
70
0
62
1
6
CONTINUOUS
0
LAYER
2
PIT_WALE
70
0
62
2
6
CONTINUOUS
0
LAYER
2
PIT_WALL
70
0
62
3
6
CONTINUOUS
0
ENDTAB
0
ENDSEC
0
SECTION
2
ENTITIES
0
LWPOLYLINE
8
PIT_EXCAVATION
90
4
70
1
10
0.0000
20
0.0000
10
90.0000
20
0.0000
10
90.0000
20
56.0660
10
0.0000
20
56.0660
0
LINE
8
PIT_WALL
10
0.0000
20
0.0000
30
0.0
11
90.0000
21
0.0000
31
0.0
0
TEXT
8
PIT_TEXT
10
45.0000
20
0.0000
30
0.0
40
0.3500
1
DW-S1-001 t=1.2m
50
0.0000
0
LINE
8
PIT_WALL
10
90.0000
20
0.0000
30
0.0
11
90.0000
21
56.0660
31
0.0
0
TEXT
8
PIT_TEXT
10
90.0000
20
28.0330
30
0.0
40
0.3500
1
DW-S2-001 t=1.2m
50
90.0000
0
LINE
8
PIT_WALL
10
90.0000
20
56.0660
30
0.0
11
0.0000
21
56.0660
31
0.0
0
TEXT
8
PIT_TEXT
10
45.0000
20
56.0660
30
0.0
40
0.3500
1
DW-S3-001 t=1.2m
50
180.0000
0
LINE
8
PIT_WALL
10
0.0000
20
56.0660
30
0.0
11
0.0000
21
0.0000
31
0.0
0
TEXT
8
PIT_TEXT
10
0.0000
20
28.0330
30
0.0
40
0.3500
1
DW-S4-001 t=1.2m
50
-90.0000
0
LINE
8
PIT_WALE
10
0.0000
20
0.0000
30
0.0
11
90.0000
21
0.0000
31
0.0
0
LINE
8
PIT_WALE
10
90.0000
20
0.0000
30
0.0
11
90.0000
21
56.0660
31
0.0
0
LINE
8
PIT_WALE
10
90.0000
20
56.0660
30
0.0
11
0.0000
21
56.0660
31
0.0
0
LINE
8
PIT_WALE
10
0.0000
20
56.0660
30
0.0
11
0.0000
21
0.0000
31
0.0
0
LINE
8
PIT_WALE
10
0.0000
20
0.0000
30
0.0
11
90.0000
21
0.0000
31
0.0
0
LINE
8
PIT_WALE
10
90.0000
20
0.0000
30
0.0
11
90.0000
21
56.0660
31
0.0
0
LINE
8
PIT_WALE
10
90.0000
20
56.0660
30
0.0
11
0.0000
21
56.0660
31
0.0
0
LINE
8
PIT_WALE
10
0.0000
20
56.0660
30
0.0
11
0.0000
21
0.0000
31
0.0
0
LINE
8
PIT_WALE
10
0.0000
20
0.0000
30
0.0
11
90.0000
21
0.0000
31
0.0
0
LINE
8
PIT_WALE
10
90.0000
20
0.0000
30
0.0
11
90.0000
21
56.0660
31
0.0
0
LINE
8
PIT_WALE
10
90.0000
20
56.0660
30
0.0
11
0.0000
21
56.0660
31
0.0
0
LINE
8
PIT_WALE
10
0.0000
20
56.0660
30
0.0
11
0.0000
21
0.0000
31
0.0
0
LINE
8
PIT_WALE
10
0.0000
20
0.0000
30
0.0
11
90.0000
21
0.0000
31
0.0
0
LINE
8
PIT_WALE
10
90.0000
20
0.0000
30
0.0
11
90.0000
21
56.0660
31
0.0
0
LINE
8
PIT_WALE
10
90.0000
20
56.0660
30
0.0
11
0.0000
21
56.0660
31
0.0
0
LINE
8
PIT_WALE
10
0.0000
20
56.0660
30
0.0
11
0.0000
21
0.0000
31
0.0
0
LINE
8
PIT_WALE
10
0.0000
20
0.0000
30
0.0
11
90.0000
21
0.0000
31
0.0
0
LINE
8
PIT_WALE
10
90.0000
20
0.0000
30
0.0
11
90.0000
21
56.0660
31
0.0
0
LINE
8
PIT_WALE
10
90.0000
20
56.0660
30
0.0
11
0.0000
21
56.0660
31
0.0
0
LINE
8
PIT_WALE
10
0.0000
20
56.0660
30
0.0
11
0.0000
21
0.0000
31
0.0
0
LINE
8
PIT_WALE
10
0.0000
20
0.0000
30
0.0
11
90.0000
21
0.0000
31
0.0
0
LINE
8
PIT_WALE
10
90.0000
20
0.0000
30
0.0
11
90.0000
21
56.0660
31
0.0
0
LINE
8
PIT_WALE
10
90.0000
20
56.0660
30
0.0
11
0.0000
21
56.0660
31
0.0
0
LINE
8
PIT_WALE
10
0.0000
20
56.0660
30
0.0
11
0.0000
21
0.0000
31
0.0
0
LINE
8
PIT_SUPPORT
10
5.4130
20
0.0000
30
0.0
11
5.4130
21
56.0660
31
0.0
0
TEXT
8
PIT_TEXT
10
5.4130
20
28.0330
30
0.0
40
0.3200
1
SP-L1-1 L1 N=0kN
50
90.0000
0
LINE
8
PIT_SUPPORT
10
6.3260
20
0.0000
30
0.0
11
6.3260
21
56.0660
31
0.0
0
TEXT
8
PIT_TEXT
10
6.3260
20
28.0330
30
0.0
40
0.3200
1
SP-L1-2 L1 N=0kN
50
90.0000
0
LINE
8
PIT_SUPPORT
10
13.2390
20
0.0000
30
0.0
11
13.2390
21
56.0660
31
0.0
0
TEXT
8
PIT_TEXT
10
13.2390
20
28.0330
30
0.0
40
0.3200
1
SP-L1-3 L1 N=0kN
50
90.0000
0
LINE
8
PIT_SUPPORT
10
14.1520
20
0.0000
30
0.0
11
14.1520
21
56.0660
31
0.0
0
TEXT
8
PIT_TEXT
10
14.1520
20
28.0330
30
0.0
40
0.3200
1
SP-L1-4 L1 N=0kN
50
90.0000
0
LINE
8
PIT_SUPPORT
10
21.0650
20
0.0000
30
0.0
11
21.0650
21
56.0660
31
0.0
0
TEXT
8
PIT_TEXT
10
21.0650
20
28.0330
30
0.0
40
0.3200
1
SP-L1-5 L1 N=0kN
50
90.0000
0
LINE
8
PIT_SUPPORT
10
21.9780
20
0.0000
30
0.0
11
21.9780
21
56.0660
31
0.0
0
TEXT
8
PIT_TEXT
10
21.9780
20
28.0330
30
0.0
40
0.3200
1
SP-L1-6 L1 N=0kN
50
90.0000
0
LINE
8
PIT_SUPPORT
10
28.8910
20
0.0000
30
0.0
11
28.8910
21
56.0660
31
0.0
0
TEXT
8
PIT_TEXT
10
28.8910
20
28.0330
30
0.0
40
0.3200
1
SP-L1-7 L1 N=0kN
50
90.0000
0
LINE
8
PIT_SUPPORT
10
29.8040
20
0.0000
30
0.0
11
29.8040
21
56.0660
31
0.0
0
TEXT
8
PIT_TEXT
10
29.8040
20
28.0330
30
0.0
40
0.3200
1
SP-L1-8 L1 N=0kN
50
90.0000
0
LINE
8
PIT_SUPPORT
10
36.7170
20
0.0000
30
0.0
11
36.7170
21
56.0660
31
0.0
0
TEXT
8
PIT_TEXT
10
36.7170
20
28.0330
30
0.0
40
0.3200
1
SP-L1-9 L1 N=0kN
50
90.0000
0
LINE
8
PIT_SUPPORT
10
37.6300
20
0.0000
30
0.0
11
37.6300
21
56.0660
31
0.0
0
TEXT
8
PIT_TEXT
10
37.6300
20
28.0330
30
0.0
40
0.3200
1
SP-L1-10 L1 N=0kN
50
90.0000
0
LINE
8
PIT_SUPPORT
10
44.5430
20
0.0000
30
0.0
11
44.5430
21
56.0660
31
0.0
0
TEXT
8
PIT_TEXT
10
44.5430
20
28.0330
30
0.0
40
0.3200
1
SP-L1-11 L1 N=0kN
50
90.0000
0
LINE
8
PIT_SUPPORT
10
45.4570
20
0.0000
30
0.0
11
45.4570
21
56.0660
31
0.0
0
TEXT
8
PIT_TEXT
10
45.4570
20
28.0330
30
0.0
40
0.3200
1
SP-L1-12 L1 N=0kN
50
90.0000
0
LINE
8
PIT_SUPPORT
10
52.3700
20
0.0000
30
0.0
11
52.3700
21
56.0660
31
0.0
0
TEXT
8
PIT_TEXT
10
52.3700
20
28.0330
30
0.0
40
0.3200
1
SP-L1-13 L1 N=0kN
50
90.0000
0
LINE
8
PIT_SUPPORT
10
53.2830
20
0.0000
30
0.0
11
53.2830
21
56.0660
31
0.0
0
TEXT
8
PIT_TEXT
10
53.2830
20
28.0330
30
0.0
40
0.3200
1
SP-L1-14 L1 N=0kN
50
90.0000
0
LINE
8
PIT_SUPPORT
10
60.1960
20
0.0000
30
0.0
11
60.1960
21
56.0660
31
0.0
0
TEXT
8
PIT_TEXT
10
60.1960
20
28.0330
30
0.0
40
0.3200
1
SP-L1-15 L1 N=0kN
50
90.0000
0
LINE
8
PIT_SUPPORT
10
61.1090
20
0.0000
30
0.0
11
61.1090
21
56.0660
31
0.0
0
TEXT
8
PIT_TEXT
10
61.1090
20
28.0330
30
0.0
40
0.3200
1
SP-L1-16 L1 N=0kN
50
90.0000
0
LINE
8
PIT_SUPPORT
10
68.0220
20
0.0000
30
0.0
11
68.0220
21
56.0660
31
0.0
0
TEXT
8
PIT_TEXT
10
68.0220
20
28.0330
30
0.0
40
0.3200
1
SP-L1-17 L1 N=0kN
50
90.0000
0
LINE
8
PIT_SUPPORT
10
68.9350
20
0.0000
30
0.0
11
68.9350
21
56.0660
31
0.0
0
TEXT
8
PIT_TEXT
10
68.9350
20
28.0330
30
0.0
40
0.3200
1
SP-L1-18 L1 N=0kN
50
90.0000
0
LINE
8
PIT_SUPPORT
10
75.8480
20
0.0000
30
0.0
11
75.8480
21
56.0660
31
0.0
0
TEXT
8
PIT_TEXT
10
75.8480
20
28.0330
30
0.0
40
0.3200
1
SP-L1-19 L1 N=0kN
50
90.0000
0
LINE
8
PIT_SUPPORT
10
76.7610
20
0.0000
30
0.0
11
76.7610
21
56.0660
31
0.0
0
TEXT
8
PIT_TEXT
10
76.7610
20
28.0330
30
0.0
40
0.3200
1
SP-L1-20 L1 N=0kN
50
90.0000
0
LINE
8
PIT_SUPPORT
10
83.6740
20
0.0000
30
0.0
11
83.6740
21
56.0660
31
0.0
0
TEXT
8
PIT_TEXT
10
83.6740
20
28.0330
30
0.0
40
0.3200
1
SP-L1-21 L1 N=0kN
50
90.0000
0
LINE
8
PIT_SUPPORT
10
84.5870
20
0.0000
30
0.0
11
84.5870
21
56.0660
31
0.0
0
TEXT
8
PIT_TEXT
10
84.5870
20
28.0330
30
0.0
40
0.3200
1
SP-L1-22 L1 N=0kN
50
90.0000
0
LINE
8
PIT_SUPPORT
10
5.4130
20
0.0000
30
0.0
11
5.4130
21
56.0660
31
0.0
0
TEXT
8
PIT_TEXT
10
5.4130
20
28.0330
30
0.0
40
0.3200
1
SP-L2-1 L2 N=0kN
50
90.0000
0
LINE
8
PIT_SUPPORT
10
6.3260
20
0.0000
30
0.0
11
6.3260
21
56.0660
31
0.0
0
TEXT
8
PIT_TEXT
10
6.3260
20
28.0330
30
0.0
40
0.3200
1
SP-L2-2 L2 N=0kN
50
90.0000
0
LINE
8
PIT_SUPPORT
10
13.2390
20
0.0000
30
0.0
11
13.2390
21
56.0660
31
0.0
0
TEXT
8
PIT_TEXT
10
13.2390
20
28.0330
30
0.0
40
0.3200
1
SP-L2-3 L2 N=0kN
50
90.0000
0
LINE
8
PIT_SUPPORT
10
14.1520
20
0.0000
30
0.0
11
14.1520
21
56.0660
31
0.0
0
TEXT
8
PIT_TEXT
10
14.1520
20
28.0330
30
0.0
40
0.3200
1
SP-L2-4 L2 N=0kN
50
90.0000
0
LINE
8
PIT_SUPPORT
10
21.0650
20
0.0000
30
0.0
11
21.0650
21
56.0660
31
0.0
0
TEXT
8
PIT_TEXT
10
21.0650
20
28.0330
30
0.0
40
0.3200
1
SP-L2-5 L2 N=0kN
50
90.0000
0
LINE
8
PIT_SUPPORT
10
21.9780
20
0.0000
30
0.0
11
21.9780
21
56.0660
31
0.0
0
TEXT
8
PIT_TEXT
10
21.9780
20
28.0330
30
0.0
40
0.3200
1
SP-L2-6 L2 N=0kN
50
90.0000
0
LINE
8
PIT_SUPPORT
10
28.8910
20
0.0000
30
0.0
11
28.8910
21
56.0660
31
0.0
0
TEXT
8
PIT_TEXT
10
28.8910
20
28.0330
30
0.0
40
0.3200
1
SP-L2-7 L2 N=0kN
50
90.0000
0
LINE
8
PIT_SUPPORT
10
29.8040
20
0.0000
30
0.0
11
29.8040
21
56.0660
31
0.0
0
TEXT
8
PIT_TEXT
10
29.8040
20
28.0330
30
0.0
40
0.3200
1
SP-L2-8 L2 N=0kN
50
90.0000
0
LINE
8
PIT_SUPPORT
10
36.7170
20
0.0000
30
0.0
11
36.7170
21
56.0660
31
0.0
0
TEXT
8
PIT_TEXT
10
36.7170
20
28.0330
30
0.0
40
0.3200
1
SP-L2-9 L2 N=0kN
50
90.0000
0
LINE
8
PIT_SUPPORT
10
37.6300
20
0.0000
30
0.0
11
37.6300
21
56.0660
31
0.0
0
TEXT
8
PIT_TEXT
10
37.6300
20
28.0330
30
0.0
40
0.3200
1
SP-L2-10 L2 N=0kN
50
90.0000
0
LINE
8
PIT_SUPPORT
10
44.5430
20
0.0000
30
0.0
11
44.5430
21
56.0660
31
0.0
0
TEXT
8
PIT_TEXT
10
44.5430
20
28.0330
30
0.0
40
0.3200
1
SP-L2-11 L2 N=0kN
50
90.0000
0
LINE
8
PIT_SUPPORT
10
45.4570
20
0.0000
30
0.0
11
45.4570
21
56.0660
31
0.0
0
TEXT
8
PIT_TEXT
10
45.4570
20
28.0330
30
0.0
40
0.3200
1
SP-L2-12 L2 N=0kN
50
90.0000
0
LINE
8
PIT_SUPPORT
10
52.3700
20
0.0000
30
0.0
11
52.3700
21
56.0660
31
0.0
0
TEXT
8
PIT_TEXT
10
52.3700
20
28.0330
30
0.0
40
0.3200
1
SP-L2-13 L2 N=0kN
50
90.0000
0
LINE
8
PIT_SUPPORT
10
53.2830
20
0.0000
30
0.0
11
53.2830
21
56.0660
31
0.0
0
TEXT
8
PIT_TEXT
10
53.2830
20
28.0330
30
0.0
40
0.3200
1
SP-L2-14 L2 N=0kN
50
90.0000
0
LINE
8
PIT_SUPPORT
10
60.1960
20
0.0000
30
0.0
11
60.1960
21
56.0660
31
0.0
0
TEXT
8
PIT_TEXT
10
60.1960
20
28.0330
30
0.0
40
0.3200
1
SP-L2-15 L2 N=0kN
50
90.0000
0
LINE
8
PIT_SUPPORT
10
61.1090
20
0.0000
30
0.0
11
61.1090
21
56.0660
31
0.0
0
TEXT
8
PIT_TEXT
10
61.1090
20
28.0330
30
0.0
40
0.3200
1
SP-L2-16 L2 N=0kN
50
90.0000
0
LINE
8
PIT_SUPPORT
10
68.0220
20
0.0000
30
0.0
11
68.0220
21
56.0660
31
0.0
0
TEXT
8
PIT_TEXT
10
68.0220
20
28.0330
30
0.0
40
0.3200
1
SP-L2-17 L2 N=0kN
50
90.0000
0
LINE
8
PIT_SUPPORT
10
68.9350
20
0.0000
30
0.0
11
68.9350
21
56.0660
31
0.0
0
TEXT
8
PIT_TEXT
10
68.9350
20
28.0330
30
0.0
40
0.3200
1
SP-L2-18 L2 N=0kN
50
90.0000
0
LINE
8
PIT_SUPPORT
10
75.8480
20
0.0000
30
0.0
11
75.8480
21
56.0660
31
0.0
0
TEXT
8
PIT_TEXT
10
75.8480
20
28.0330
30
0.0
40
0.3200
1
SP-L2-19 L2 N=0kN
50
90.0000
0
LINE
8
PIT_SUPPORT
10
76.7610
20
0.0000
30
0.0
11
76.7610
21
56.0660
31
0.0
0
TEXT
8
PIT_TEXT
10
76.7610
20
28.0330
30
0.0
40
0.3200
1
SP-L2-20 L2 N=0kN
50
90.0000
0
LINE
8
PIT_SUPPORT
10
83.6740
20
0.0000
30
0.0
11
83.6740
21
56.0660
31
0.0
0
TEXT
8
PIT_TEXT
10
83.6740
20
28.0330
30
0.0
40
0.3200
1
SP-L2-21 L2 N=0kN
50
90.0000
0
LINE
8
PIT_SUPPORT
10
84.5870
20
0.0000
30
0.0
11
84.5870
21
56.0660
31
0.0
0
TEXT
8
PIT_TEXT
10
84.5870
20
28.0330
30
0.0
40
0.3200
1
SP-L2-22 L2 N=0kN
50
90.0000
0
LINE
8
PIT_SUPPORT
10
5.4130
20
0.0000
30
0.0
11
5.4130
21
56.0660
31
0.0
0
TEXT
8
PIT_TEXT
10
5.4130
20
28.0330
30
0.0
40
0.3200
1
SP-L3-1 L3 N=0kN
50
90.0000
0
LINE
8
PIT_SUPPORT
10
6.3260
20
0.0000
30
0.0
11
6.3260
21
56.0660
31
0.0
0
TEXT
8
PIT_TEXT
10
6.3260
20
28.0330
30
0.0
40
0.3200
1
SP-L3-2 L3 N=0kN
50
90.0000
0
LINE
8
PIT_SUPPORT
10
13.2390
20
0.0000
30
0.0
11
13.2390
21
56.0660
31
0.0
0
TEXT
8
PIT_TEXT
10
13.2390
20
28.0330
30
0.0
40
0.3200
1
SP-L3-3 L3 N=0kN
50
90.0000
0
LINE
8
PIT_SUPPORT
10
14.1520
20
0.0000
30
0.0
11
14.1520
21
56.0660
31
0.0
0
TEXT
8
PIT_TEXT
10
14.1520
20
28.0330
30
0.0
40
0.3200
1
SP-L3-4 L3 N=0kN
50
90.0000
0
LINE
8
PIT_SUPPORT
10
21.0650
20
0.0000
30
0.0
11
21.0650
21
56.0660
31
0.0
0
TEXT
8
PIT_TEXT
10
21.0650
20
28.0330
30
0.0
40
0.3200
1
SP-L3-5 L3 N=0kN
50
90.0000
0
LINE
8
PIT_SUPPORT
10
21.9780
20
0.0000
30
0.0
11
21.9780
21
56.0660
31
0.0
0
TEXT
8
PIT_TEXT
10
21.9780
20
28.0330
30
0.0
40
0.3200
1
SP-L3-6 L3 N=0kN
50
90.0000
0
LINE
8
PIT_SUPPORT
10
28.8910
20
0.0000
30
0.0
11
28.8910
21
56.0660
31
0.0
0
TEXT
8
PIT_TEXT
10
28.8910
20
28.0330
30
0.0
40
0.3200
1
SP-L3-7 L3 N=0kN
50
90.0000
0
LINE
8
PIT_SUPPORT
10
29.8040
20
0.0000
30
0.0
11
29.8040
21
56.0660
31
0.0
0
TEXT
8
PIT_TEXT
10
29.8040
20
28.0330
30
0.0
40
0.3200
1
SP-L3-8 L3 N=0kN
50
90.0000
0
LINE
8
PIT_SUPPORT
10
36.7170
20
0.0000
30
0.0
11
36.7170
21
56.0660
31
0.0
0
TEXT
8
PIT_TEXT
10
36.7170
20
28.0330
30
0.0
40
0.3200
1
SP-L3-9 L3 N=0kN
50
90.0000
0
LINE
8
PIT_SUPPORT
10
37.6300
20
0.0000
30
0.0
11
37.6300
21
56.0660
31
0.0
0
TEXT
8
PIT_TEXT
10
37.6300
20
28.0330
30
0.0
40
0.3200
1
SP-L3-10 L3 N=0kN
50
90.0000
0
LINE
8
PIT_SUPPORT
10
44.5430
20
0.0000
30
0.0
11
44.5430
21
56.0660
31
0.0
0
TEXT
8
PIT_TEXT
10
44.5430
20
28.0330
30
0.0
40
0.3200
1
SP-L3-11 L3 N=0kN
50
90.0000
0
LINE
8
PIT_SUPPORT
10
45.4570
20
0.0000
30
0.0
11
45.4570
21
56.0660
31
0.0
0
TEXT
8
PIT_TEXT
10
45.4570
20
28.0330
30
0.0
40
0.3200
1
SP-L3-12 L3 N=0kN
50
90.0000
0
LINE
8
PIT_SUPPORT
10
52.3700
20
0.0000
30
0.0
11
52.3700
21
56.0660
31
0.0
0
TEXT
8
PIT_TEXT
10
52.3700
20
28.0330
30
0.0
40
0.3200
1
SP-L3-13 L3 N=0kN
50
90.0000
0
LINE
8
PIT_SUPPORT
10
53.2830
20
0.0000
30
0.0
11
53.2830
21
56.0660
31
0.0
0
TEXT
8
PIT_TEXT
10
53.2830
20
28.0330
30
0.0
40
0.3200
1
SP-L3-14 L3 N=0kN
50
90.0000
0
LINE
8
PIT_SUPPORT
10
60.1960
20
0.0000
30
0.0
11
60.1960
21
56.0660
31
0.0
0
TEXT
8
PIT_TEXT
10
60.1960
20
28.0330
30
0.0
40
0.3200
1
SP-L3-15 L3 N=0kN
50
90.0000
0
LINE
8
PIT_SUPPORT
10
61.1090
20
0.0000
30
0.0
11
61.1090
21
56.0660
31
0.0
0
TEXT
8
PIT_TEXT
10
61.1090
20
28.0330
30
0.0
40
0.3200
1
SP-L3-16 L3 N=0kN
50
90.0000
0
LINE
8
PIT_SUPPORT
10
68.0220
20
0.0000
30
0.0
11
68.0220
21
56.0660
31
0.0
0
TEXT
8
PIT_TEXT
10
68.0220
20
28.0330
30
0.0
40
0.3200
1
SP-L3-17 L3 N=0kN
50
90.0000
0
LINE
8
PIT_SUPPORT
10
68.9350
20
0.0000
30
0.0
11
68.9350
21
56.0660
31
0.0
0
TEXT
8
PIT_TEXT
10
68.9350
20
28.0330
30
0.0
40
0.3200
1
SP-L3-18 L3 N=0kN
50
90.0000
0
LINE
8
PIT_SUPPORT
10
75.8480
20
0.0000
30
0.0
11
75.8480
21
56.0660
31
0.0
0
TEXT
8
PIT_TEXT
10
75.8480
20
28.0330
30
0.0
40
0.3200
1
SP-L3-19 L3 N=0kN
50
90.0000
0
LINE
8
PIT_SUPPORT
10
76.7610
20
0.0000
30
0.0
11
76.7610
21
56.0660
31
0.0
0
TEXT
8
PIT_TEXT
10
76.7610
20
28.0330
30
0.0
40
0.3200
1
SP-L3-20 L3 N=0kN
50
90.0000
0
LINE
8
PIT_SUPPORT
10
83.6740
20
0.0000
30
0.0
11
83.6740
21
56.0660
31
0.0
0
TEXT
8
PIT_TEXT
10
83.6740
20
28.0330
30
0.0
40
0.3200
1
SP-L3-21 L3 N=0kN
50
90.0000
0
LINE
8
PIT_SUPPORT
10
84.5870
20
0.0000
30
0.0
11
84.5870
21
56.0660
31
0.0
0
TEXT
8
PIT_TEXT
10
84.5870
20
28.0330
30
0.0
40
0.3200
1
SP-L3-22 L3 N=0kN
50
90.0000
0
LINE
8
PIT_SUPPORT
10
5.4130
20
0.0000
30
0.0
11
5.4130
21
56.0660
31
0.0
0
TEXT
8
PIT_TEXT
10
5.4130
20
28.0330
30
0.0
40
0.3200
1
SP-L4-1 L4 N=0kN
50
90.0000
0
LINE
8
PIT_SUPPORT
10
6.3260
20
0.0000
30
0.0
11
6.3260
21
56.0660
31
0.0
0
TEXT
8
PIT_TEXT
10
6.3260
20
28.0330
30
0.0
40
0.3200
1
SP-L4-2 L4 N=0kN
50
90.0000
0
LINE
8
PIT_SUPPORT
10
13.2390
20
0.0000
30
0.0
11
13.2390
21
56.0660
31
0.0
0
TEXT
8
PIT_TEXT
10
13.2390
20
28.0330
30
0.0
40
0.3200
1
SP-L4-3 L4 N=0kN
50
90.0000
0
LINE
8
PIT_SUPPORT
10
14.1520
20
0.0000
30
0.0
11
14.1520
21
56.0660
31
0.0
0
TEXT
8
PIT_TEXT
10
14.1520
20
28.0330
30
0.0
40
0.3200
1
SP-L4-4 L4 N=0kN
50
90.0000
0
LINE
8
PIT_SUPPORT
10
21.0650
20
0.0000
30
0.0
11
21.0650
21
56.0660
31
0.0
0
TEXT
8
PIT_TEXT
10
21.0650
20
28.0330
30
0.0
40
0.3200
1
SP-L4-5 L4 N=0kN
50
90.0000
0
LINE
8
PIT_SUPPORT
10
21.9780
20
0.0000
30
0.0
11
21.9780
21
56.0660
31
0.0
0
TEXT
8
PIT_TEXT
10
21.9780
20
28.0330
30
0.0
40
0.3200
1
SP-L4-6 L4 N=0kN
50
90.0000
0
LINE
8
PIT_SUPPORT
10
28.8910
20
0.0000
30
0.0
11
28.8910
21
56.0660
31
0.0
0
TEXT
8
PIT_TEXT
10
28.8910
20
28.0330
30
0.0
40
0.3200
1
SP-L4-7 L4 N=0kN
50
90.0000
0
LINE
8
PIT_SUPPORT
10
29.8040
20
0.0000
30
0.0
11
29.8040
21
56.0660
31
0.0
0
TEXT
8
PIT_TEXT
10
29.8040
20
28.0330
30
0.0
40
0.3200
1
SP-L4-8 L4 N=0kN
50
90.0000
0
LINE
8
PIT_SUPPORT
10
36.7170
20
0.0000
30
0.0
11
36.7170
21
56.0660
31
0.0
0
TEXT
8
PIT_TEXT
10
36.7170
20
28.0330
30
0.0
40
0.3200
1
SP-L4-9 L4 N=0kN
50
90.0000
0
LINE
8
PIT_SUPPORT
10
37.6300
20
0.0000
30
0.0
11
37.6300
21
56.0660
31
0.0
0
TEXT
8
PIT_TEXT
10
37.6300
20
28.0330
30
0.0
40
0.3200
1
SP-L4-10 L4 N=0kN
50
90.0000
0
LINE
8
PIT_SUPPORT
10
44.5430
20
0.0000
30
0.0
11
44.5430
21
56.0660
31
0.0
0
TEXT
8
PIT_TEXT
10
44.5430
20
28.0330
30
0.0
40
0.3200
1
SP-L4-11 L4 N=0kN
50
90.0000
0
LINE
8
PIT_SUPPORT
10
45.4570
20
0.0000
30
0.0
11
45.4570
21
56.0660
31
0.0
0
TEXT
8
PIT_TEXT
10
45.4570
20
28.0330
30
0.0
40
0.3200
1
SP-L4-12 L4 N=0kN
50
90.0000
0
LINE
8
PIT_SUPPORT
10
52.3700
20
0.0000
30
0.0
11
52.3700
21
56.0660
31
0.0
0
TEXT
8
PIT_TEXT
10
52.3700
20
28.0330
30
0.0
40
0.3200
1
SP-L4-13 L4 N=0kN
50
90.0000
0
LINE
8
PIT_SUPPORT
10
53.2830
20
0.0000
30
0.0
11
53.2830
21
56.0660
31
0.0
0
TEXT
8
PIT_TEXT
10
53.2830
20
28.0330
30
0.0
40
0.3200
1
SP-L4-14 L4 N=0kN
50
90.0000
0
LINE
8
PIT_SUPPORT
10
60.1960
20
0.0000
30
0.0
11
60.1960
21
56.0660
31
0.0
0
TEXT
8
PIT_TEXT
10
60.1960
20
28.0330
30
0.0
40
0.3200
1
SP-L4-15 L4 N=0kN
50
90.0000
0
LINE
8
PIT_SUPPORT
10
61.1090
20
0.0000
30
0.0
11
61.1090
21
56.0660
31
0.0
0
TEXT
8
PIT_TEXT
10
61.1090
20
28.0330
30
0.0
40
0.3200
1
SP-L4-16 L4 N=0kN
50
90.0000
0
LINE
8
PIT_SUPPORT
10
68.0220
20
0.0000
30
0.0
11
68.0220
21
56.0660
31
0.0
0
TEXT
8
PIT_TEXT
10
68.0220
20
28.0330
30
0.0
40
0.3200
1
SP-L4-17 L4 N=0kN
50
90.0000
0
LINE
8
PIT_SUPPORT
10
68.9350
20
0.0000
30
0.0
11
68.9350
21
56.0660
31
0.0
0
TEXT
8
PIT_TEXT
10
68.9350
20
28.0330
30
0.0
40
0.3200
1
SP-L4-18 L4 N=0kN
50
90.0000
0
LINE
8
PIT_SUPPORT
10
75.8480
20
0.0000
30
0.0
11
75.8480
21
56.0660
31
0.0
0
TEXT
8
PIT_TEXT
10
75.8480
20
28.0330
30
0.0
40
0.3200
1
SP-L4-19 L4 N=0kN
50
90.0000
0
LINE
8
PIT_SUPPORT
10
76.7610
20
0.0000
30
0.0
11
76.7610
21
56.0660
31
0.0
0
TEXT
8
PIT_TEXT
10
76.7610
20
28.0330
30
0.0
40
0.3200
1
SP-L4-20 L4 N=0kN
50
90.0000
0
LINE
8
PIT_SUPPORT
10
83.6740
20
0.0000
30
0.0
11
83.6740
21
56.0660
31
0.0
0
TEXT
8
PIT_TEXT
10
83.6740
20
28.0330
30
0.0
40
0.3200
1
SP-L4-21 L4 N=0kN
50
90.0000
0
LINE
8
PIT_SUPPORT
10
84.5870
20
0.0000
30
0.0
11
84.5870
21
56.0660
31
0.0
0
TEXT
8
PIT_TEXT
10
84.5870
20
28.0330
30
0.0
40
0.3200
1
SP-L4-22 L4 N=0kN
50
90.0000
0
LINE
8
PIT_SUPPORT
10
5.4130
20
0.0000
30
0.0
11
5.4130
21
56.0660
31
0.0
0
TEXT
8
PIT_TEXT
10
5.4130
20
28.0330
30
0.0
40
0.3200
1
SP-L5-1 L5 N=0kN
50
90.0000
0
LINE
8
PIT_SUPPORT
10
6.3260
20
0.0000
30
0.0
11
6.3260
21
56.0660
31
0.0
0
TEXT
8
PIT_TEXT
10
6.3260
20
28.0330
30
0.0
40
0.3200
1
SP-L5-2 L5 N=0kN
50
90.0000
0
LINE
8
PIT_SUPPORT
10
13.2390
20
0.0000
30
0.0
11
13.2390
21
56.0660
31
0.0
0
TEXT
8
PIT_TEXT
10
13.2390
20
28.0330
30
0.0
40
0.3200
1
SP-L5-3 L5 N=0kN
50
90.0000
0
LINE
8
PIT_SUPPORT
10
14.1520
20
0.0000
30
0.0
11
14.1520
21
56.0660
31
0.0
0
TEXT
8
PIT_TEXT
10
14.1520
20
28.0330
30
0.0
40
0.3200
1
SP-L5-4 L5 N=0kN
50
90.0000
0
LINE
8
PIT_SUPPORT
10
21.0650
20
0.0000
30
0.0
11
21.0650
21
56.0660
31
0.0
0
TEXT
8
PIT_TEXT
10
21.0650
20
28.0330
30
0.0
40
0.3200
1
SP-L5-5 L5 N=0kN
50
90.0000
0
LINE
8
PIT_SUPPORT
10
21.9780
20
0.0000
30
0.0
11
21.9780
21
56.0660
31
0.0
0
TEXT
8
PIT_TEXT
10
21.9780
20
28.0330
30
0.0
40
0.3200
1
SP-L5-6 L5 N=0kN
50
90.0000
0
LINE
8
PIT_SUPPORT
10
28.8910
20
0.0000
30
0.0
11
28.8910
21
56.0660
31
0.0
0
TEXT
8
PIT_TEXT
10
28.8910
20
28.0330
30
0.0
40
0.3200
1
SP-L5-7 L5 N=0kN
50
90.0000
0
LINE
8
PIT_SUPPORT
10
29.8040
20
0.0000
30
0.0
11
29.8040
21
56.0660
31
0.0
0
TEXT
8
PIT_TEXT
10
29.8040
20
28.0330
30
0.0
40
0.3200
1
SP-L5-8 L5 N=0kN
50
90.0000
0
LINE
8
PIT_SUPPORT
10
36.7170
20
0.0000
30
0.0
11
36.7170
21
56.0660
31
0.0
0
TEXT
8
PIT_TEXT
10
36.7170
20
28.0330
30
0.0
40
0.3200
1
SP-L5-9 L5 N=0kN
50
90.0000
0
LINE
8
PIT_SUPPORT
10
37.6300
20
0.0000
30
0.0
11
37.6300
21
56.0660
31
0.0
0
TEXT
8
PIT_TEXT
10
37.6300
20
28.0330
30
0.0
40
0.3200
1
SP-L5-10 L5 N=0kN
50
90.0000
0
LINE
8
PIT_SUPPORT
10
44.5430
20
0.0000
30
0.0
11
44.5430
21
56.0660
31
0.0
0
TEXT
8
PIT_TEXT
10
44.5430
20
28.0330
30
0.0
40
0.3200
1
SP-L5-11 L5 N=0kN
50
90.0000
0
LINE
8
PIT_SUPPORT
10
45.4570
20
0.0000
30
0.0
11
45.4570
21
56.0660
31
0.0
0
TEXT
8
PIT_TEXT
10
45.4570
20
28.0330
30
0.0
40
0.3200
1
SP-L5-12 L5 N=0kN
50
90.0000
0
LINE
8
PIT_SUPPORT
10
52.3700
20
0.0000
30
0.0
11
52.3700
21
56.0660
31
0.0
0
TEXT
8
PIT_TEXT
10
52.3700
20
28.0330
30
0.0
40
0.3200
1
SP-L5-13 L5 N=0kN
50
90.0000
0
LINE
8
PIT_SUPPORT
10
53.2830
20
0.0000
30
0.0
11
53.2830
21
56.0660
31
0.0
0
TEXT
8
PIT_TEXT
10
53.2830
20
28.0330
30
0.0
40
0.3200
1
SP-L5-14 L5 N=0kN
50
90.0000
0
LINE
8
PIT_SUPPORT
10
60.1960
20
0.0000
30
0.0
11
60.1960
21
56.0660
31
0.0
0
TEXT
8
PIT_TEXT
10
60.1960
20
28.0330
30
0.0
40
0.3200
1
SP-L5-15 L5 N=0kN
50
90.0000
0
LINE
8
PIT_SUPPORT
10
61.1090
20
0.0000
30
0.0
11
61.1090
21
56.0660
31
0.0
0
TEXT
8
PIT_TEXT
10
61.1090
20
28.0330
30
0.0
40
0.3200
1
SP-L5-16 L5 N=0kN
50
90.0000
0
LINE
8
PIT_SUPPORT
10
68.0220
20
0.0000
30
0.0
11
68.0220
21
56.0660
31
0.0
0
TEXT
8
PIT_TEXT
10
68.0220
20
28.0330
30
0.0
40
0.3200
1
SP-L5-17 L5 N=0kN
50
90.0000
0
LINE
8
PIT_SUPPORT
10
68.9350
20
0.0000
30
0.0
11
68.9350
21
56.0660
31
0.0
0
TEXT
8
PIT_TEXT
10
68.9350
20
28.0330
30
0.0
40
0.3200
1
SP-L5-18 L5 N=0kN
50
90.0000
0
LINE
8
PIT_SUPPORT
10
75.8480
20
0.0000
30
0.0
11
75.8480
21
56.0660
31
0.0
0
TEXT
8
PIT_TEXT
10
75.8480
20
28.0330
30
0.0
40
0.3200
1
SP-L5-19 L5 N=0kN
50
90.0000
0
LINE
8
PIT_SUPPORT
10
76.7610
20
0.0000
30
0.0
11
76.7610
21
56.0660
31
0.0
0
TEXT
8
PIT_TEXT
10
76.7610
20
28.0330
30
0.0
40
0.3200
1
SP-L5-20 L5 N=0kN
50
90.0000
0
LINE
8
PIT_SUPPORT
10
83.6740
20
0.0000
30
0.0
11
83.6740
21
56.0660
31
0.0
0
TEXT
8
PIT_TEXT
10
83.6740
20
28.0330
30
0.0
40
0.3200
1
SP-L5-21 L5 N=0kN
50
90.0000
0
LINE
8
PIT_SUPPORT
10
84.5870
20
0.0000
30
0.0
11
84.5870
21
56.0660
31
0.0
0
TEXT
8
PIT_TEXT
10
84.5870
20
28.0330
30
0.0
40
0.3200
1
SP-L5-22 L5 N=0kN
50
90.0000
0
CIRCLE
8
PIT_COLUMN
10
5.4130
20
14.0170
30
0.0
40
0.4000
0
TEXT
8
PIT_TEXT
10
5.8130
20
14.4170
30
0.0
40
0.3000
1
STC-001
50
0.0000
0
CIRCLE
8
PIT_COLUMN
10
5.4130
20
28.0330
30
0.0
40
0.4000
0
TEXT
8
PIT_TEXT
10
5.8130
20
28.4330
30
0.0
40
0.3000
1
STC-002
50
0.0000
0
CIRCLE
8
PIT_COLUMN
10
5.4130
20
42.0500
30
0.0
40
0.4000
0
TEXT
8
PIT_TEXT
10
5.8130
20
42.4500
30
0.0
40
0.3000
1
STC-003
50
0.0000
0
CIRCLE
8
PIT_COLUMN
10
6.3260
20
14.0170
30
0.0
40
0.4000
0
TEXT
8
PIT_TEXT
10
6.7260
20
14.4170
30
0.0
40
0.3000
1
STC-004
50
0.0000
0
CIRCLE
8
PIT_COLUMN
10
6.3260
20
28.0330
30
0.0
40
0.4000
0
TEXT
8
PIT_TEXT
10
6.7260
20
28.4330
30
0.0
40
0.3000
1
STC-005
50
0.0000
0
CIRCLE
8
PIT_COLUMN
10
6.3260
20
42.0500
30
0.0
40
0.4000
0
TEXT
8
PIT_TEXT
10
6.7260
20
42.4500
30
0.0
40
0.3000
1
STC-006
50
0.0000
0
CIRCLE
8
PIT_COLUMN
10
13.2390
20
14.0170
30
0.0
40
0.4000
0
TEXT
8
PIT_TEXT
10
13.6390
20
14.4170
30
0.0
40
0.3000
1
STC-007
50
0.0000
0
CIRCLE
8
PIT_COLUMN
10
13.2390
20
28.0330
30
0.0
40
0.4000
0
TEXT
8
PIT_TEXT
10
13.6390
20
28.4330
30
0.0
40
0.3000
1
STC-008
50
0.0000
0
CIRCLE
8
PIT_COLUMN
10
13.2390
20
42.0500
30
0.0
40
0.4000
0
TEXT
8
PIT_TEXT
10
13.6390
20
42.4500
30
0.0
40
0.3000
1
STC-009
50
0.0000
0
CIRCLE
8
PIT_COLUMN
10
14.1520
20
14.0170
30
0.0
40
0.4000
0
TEXT
8
PIT_TEXT
10
14.5520
20
14.4170
30
0.0
40
0.3000
1
STC-010
50
0.0000
0
CIRCLE
8
PIT_COLUMN
10
14.1520
20
28.0330
30
0.0
40
0.4000
0
TEXT
8
PIT_TEXT
10
14.5520
20
28.4330
30
0.0
40
0.3000
1
STC-011
50
0.0000
0
CIRCLE
8
PIT_COLUMN
10
14.1520
20
42.0500
30
0.0
40
0.4000
0
TEXT
8
PIT_TEXT
10
14.5520
20
42.4500
30
0.0
40
0.3000
1
STC-012
50
0.0000
0
CIRCLE
8
PIT_COLUMN
10
21.0650
20
14.0170
30
0.0
40
0.4000
0
TEXT
8
PIT_TEXT
10
21.4650
20
14.4170
30
0.0
40
0.3000
1
STC-013
50
0.0000
0
CIRCLE
8
PIT_COLUMN
10
21.0650
20
28.0330
30
0.0
40
0.4000
0
TEXT
8
PIT_TEXT
10
21.4650
20
28.4330
30
0.0
40
0.3000
1
STC-014
50
0.0000
0
CIRCLE
8
PIT_COLUMN
10
21.0650
20
42.0500
30
0.0
40
0.4000
0
TEXT
8
PIT_TEXT
10
21.4650
20
42.4500
30
0.0
40
0.3000
1
STC-015
50
0.0000
0
CIRCLE
8
PIT_COLUMN
10
21.9780
20
14.0170
30
0.0
40
0.4000
0
TEXT
8
PIT_TEXT
10
22.3780
20
14.4170
30
0.0
40
0.3000
1
STC-016
50
0.0000
0
CIRCLE
8
PIT_COLUMN
10
21.9780
20
28.0330
30
0.0
40
0.4000
0
TEXT
8
PIT_TEXT
10
22.3780
20
28.4330
30
0.0
40
0.3000
1
STC-017
50
0.0000
0
CIRCLE
8
PIT_COLUMN
10
21.9780
20
42.0500
30
0.0
40
0.4000
0
TEXT
8
PIT_TEXT
10
22.3780
20
42.4500
30
0.0
40
0.3000
1
STC-018
50
0.0000
0
CIRCLE
8
PIT_COLUMN
10
28.8910
20
14.0170
30
0.0
40
0.4000
0
TEXT
8
PIT_TEXT
10
29.2910
20
14.4170
30
0.0
40
0.3000
1
STC-019
50
0.0000
0
CIRCLE
8
PIT_COLUMN
10
28.8910
20
28.0330
30
0.0
40
0.4000
0
TEXT
8
PIT_TEXT
10
29.2910
20
28.4330
30
0.0
40
0.3000
1
STC-020
50
0.0000
0
CIRCLE
8
PIT_COLUMN
10
28.8910
20
42.0500
30
0.0
40
0.4000
0
TEXT
8
PIT_TEXT
10
29.2910
20
42.4500
30
0.0
40
0.3000
1
STC-021
50
0.0000
0
CIRCLE
8
PIT_COLUMN
10
29.8040
20
14.0170
30
0.0
40
0.4000
0
TEXT
8
PIT_TEXT
10
30.2040
20
14.4170
30
0.0
40
0.3000
1
STC-022
50
0.0000
0
CIRCLE
8
PIT_COLUMN
10
29.8040
20
28.0330
30
0.0
40
0.4000
0
TEXT
8
PIT_TEXT
10
30.2040
20
28.4330
30
0.0
40
0.3000
1
STC-023
50
0.0000
0
CIRCLE
8
PIT_COLUMN
10
29.8040
20
42.0500
30
0.0
40
0.4000
0
TEXT
8
PIT_TEXT
10
30.2040
20
42.4500
30
0.0
40
0.3000
1
STC-024
50
0.0000
0
CIRCLE
8
PIT_COLUMN
10
36.7170
20
14.0170
30
0.0
40
0.4000
0
TEXT
8
PIT_TEXT
10
37.1170
20
14.4170
30
0.0
40
0.3000
1
STC-025
50
0.0000
0
CIRCLE
8
PIT_COLUMN
10
36.7170
20
28.0330
30
0.0
40
0.4000
0
TEXT
8
PIT_TEXT
10
37.1170
20
28.4330
30
0.0
40
0.3000
1
STC-026
50
0.0000
0
CIRCLE
8
PIT_COLUMN
10
36.7170
20
42.0500
30
0.0
40
0.4000
0
TEXT
8
PIT_TEXT
10
37.1170
20
42.4500
30
0.0
40
0.3000
1
STC-027
50
0.0000
0
CIRCLE
8
PIT_COLUMN
10
37.6300
20
14.0170
30
0.0
40
0.4000
0
TEXT
8
PIT_TEXT
10
38.0300
20
14.4170
30
0.0
40
0.3000
1
STC-028
50
0.0000
0
CIRCLE
8
PIT_COLUMN
10
37.6300
20
28.0330
30
0.0
40
0.4000
0
TEXT
8
PIT_TEXT
10
38.0300
20
28.4330
30
0.0
40
0.3000
1
STC-029
50
0.0000
0
CIRCLE
8
PIT_COLUMN
10
37.6300
20
42.0500
30
0.0
40
0.4000
0
TEXT
8
PIT_TEXT
10
38.0300
20
42.4500
30
0.0
40
0.3000
1
STC-030
50
0.0000
0
CIRCLE
8
PIT_COLUMN
10
44.5430
20
14.0170
30
0.0
40
0.4000
0
TEXT
8
PIT_TEXT
10
44.9430
20
14.4170
30
0.0
40
0.3000
1
STC-031
50
0.0000
0
CIRCLE
8
PIT_COLUMN
10
44.5430
20
28.0330
30
0.0
40
0.4000
0
TEXT
8
PIT_TEXT
10
44.9430
20
28.4330
30
0.0
40
0.3000
1
STC-032
50
0.0000
0
CIRCLE
8
PIT_COLUMN
10
44.5430
20
42.0500
30
0.0
40
0.4000
0
TEXT
8
PIT_TEXT
10
44.9430
20
42.4500
30
0.0
40
0.3000
1
STC-033
50
0.0000
0
CIRCLE
8
PIT_COLUMN
10
45.4570
20
14.0170
30
0.0
40
0.4000
0
TEXT
8
PIT_TEXT
10
45.8570
20
14.4170
30
0.0
40
0.3000
1
STC-034
50
0.0000
0
CIRCLE
8
PIT_COLUMN
10
45.4570
20
28.0330
30
0.0
40
0.4000
0
TEXT
8
PIT_TEXT
10
45.8570
20
28.4330
30
0.0
40
0.3000
1
STC-035
50
0.0000
0
CIRCLE
8
PIT_COLUMN
10
45.4570
20
42.0500
30
0.0
40
0.4000
0
TEXT
8
PIT_TEXT
10
45.8570
20
42.4500
30
0.0
40
0.3000
1
STC-036
50
0.0000
0
CIRCLE
8
PIT_COLUMN
10
52.3700
20
14.0170
30
0.0
40
0.4000
0
TEXT
8
PIT_TEXT
10
52.7700
20
14.4170
30
0.0
40
0.3000
1
STC-037
50
0.0000
0
CIRCLE
8
PIT_COLUMN
10
52.3700
20
28.0330
30
0.0
40
0.4000
0
TEXT
8
PIT_TEXT
10
52.7700
20
28.4330
30
0.0
40
0.3000
1
STC-038
50
0.0000
0
CIRCLE
8
PIT_COLUMN
10
52.3700
20
42.0500
30
0.0
40
0.4000
0
TEXT
8
PIT_TEXT
10
52.7700
20
42.4500
30
0.0
40
0.3000
1
STC-039
50
0.0000
0
CIRCLE
8
PIT_COLUMN
10
53.2830
20
14.0170
30
0.0
40
0.4000
0
TEXT
8
PIT_TEXT
10
53.6830
20
14.4170
30
0.0
40
0.3000
1
STC-040
50
0.0000
0
CIRCLE
8
PIT_COLUMN
10
53.2830
20
28.0330
30
0.0
40
0.4000
0
TEXT
8
PIT_TEXT
10
53.6830
20
28.4330
30
0.0
40
0.3000
1
STC-041
50
0.0000
0
CIRCLE
8
PIT_COLUMN
10
53.2830
20
42.0500
30
0.0
40
0.4000
0
TEXT
8
PIT_TEXT
10
53.6830
20
42.4500
30
0.0
40
0.3000
1
STC-042
50
0.0000
0
CIRCLE
8
PIT_COLUMN
10
60.1960
20
14.0170
30
0.0
40
0.4000
0
TEXT
8
PIT_TEXT
10
60.5960
20
14.4170
30
0.0
40
0.3000
1
STC-043
50
0.0000
0
CIRCLE
8
PIT_COLUMN
10
60.1960
20
28.0330
30
0.0
40
0.4000
0
TEXT
8
PIT_TEXT
10
60.5960
20
28.4330
30
0.0
40
0.3000
1
STC-044
50
0.0000
0
CIRCLE
8
PIT_COLUMN
10
60.1960
20
42.0500
30
0.0
40
0.4000
0
TEXT
8
PIT_TEXT
10
60.5960
20
42.4500
30
0.0
40
0.3000
1
STC-045
50
0.0000
0
CIRCLE
8
PIT_COLUMN
10
61.1090
20
14.0170
30
0.0
40
0.4000
0
TEXT
8
PIT_TEXT
10
61.5090
20
14.4170
30
0.0
40
0.3000
1
STC-046
50
0.0000
0
CIRCLE
8
PIT_COLUMN
10
61.1090
20
28.0330
30
0.0
40
0.4000
0
TEXT
8
PIT_TEXT
10
61.5090
20
28.4330
30
0.0
40
0.3000
1
STC-047
50
0.0000
0
CIRCLE
8
PIT_COLUMN
10
61.1090
20
42.0500
30
0.0
40
0.4000
0
TEXT
8
PIT_TEXT
10
61.5090
20
42.4500
30
0.0
40
0.3000
1
STC-048
50
0.0000
0
CIRCLE
8
PIT_COLUMN
10
68.0220
20
14.0170
30
0.0
40
0.4000
0
TEXT
8
PIT_TEXT
10
68.4220
20
14.4170
30
0.0
40
0.3000
1
STC-049
50
0.0000
0
CIRCLE
8
PIT_COLUMN
10
68.0220
20
28.0330
30
0.0
40
0.4000
0
TEXT
8
PIT_TEXT
10
68.4220
20
28.4330
30
0.0
40
0.3000
1
STC-050
50
0.0000
0
CIRCLE
8
PIT_COLUMN
10
68.0220
20
42.0500
30
0.0
40
0.4000
0
TEXT
8
PIT_TEXT
10
68.4220
20
42.4500
30
0.0
40
0.3000
1
STC-051
50
0.0000
0
CIRCLE
8
PIT_COLUMN
10
68.9350
20
14.0170
30
0.0
40
0.4000
0
TEXT
8
PIT_TEXT
10
69.3350
20
14.4170
30
0.0
40
0.3000
1
STC-052
50
0.0000
0
CIRCLE
8
PIT_COLUMN
10
68.9350
20
28.0330
30
0.0
40
0.4000
0
TEXT
8
PIT_TEXT
10
69.3350
20
28.4330
30
0.0
40
0.3000
1
STC-053
50
0.0000
0
CIRCLE
8
PIT_COLUMN
10
68.9350
20
42.0500
30
0.0
40
0.4000
0
TEXT
8
PIT_TEXT
10
69.3350
20
42.4500
30
0.0
40
0.3000
1
STC-054
50
0.0000
0
CIRCLE
8
PIT_COLUMN
10
75.8480
20
14.0170
30
0.0
40
0.4000
0
TEXT
8
PIT_TEXT
10
76.2480
20
14.4170
30
0.0
40
0.3000
1
STC-055
50
0.0000
0
CIRCLE
8
PIT_COLUMN
10
75.8480
20
28.0330
30
0.0
40
0.4000
0
TEXT
8
PIT_TEXT
10
76.2480
20
28.4330
30
0.0
40
0.3000
1
STC-056
50
0.0000
0
CIRCLE
8
PIT_COLUMN
10
75.8480
20
42.0500
30
0.0
40
0.4000
0
TEXT
8
PIT_TEXT
10
76.2480
20
42.4500
30
0.0
40
0.3000
1
STC-057
50
0.0000
0
CIRCLE
8
PIT_COLUMN
10
76.7610
20
14.0170
30
0.0
40
0.4000
0
TEXT
8
PIT_TEXT
10
77.1610
20
14.4170
30
0.0
40
0.3000
1
STC-058
50
0.0000
0
CIRCLE
8
PIT_COLUMN
10
76.7610
20
28.0330
30
0.0
40
0.4000
0
TEXT
8
PIT_TEXT
10
77.1610
20
28.4330
30
0.0
40
0.3000
1
STC-059
50
0.0000
0
CIRCLE
8
PIT_COLUMN
10
76.7610
20
42.0500
30
0.0
40
0.4000
0
TEXT
8
PIT_TEXT
10
77.1610
20
42.4500
30
0.0
40
0.3000
1
STC-060
50
0.0000
0
CIRCLE
8
PIT_COLUMN
10
83.6740
20
14.0170
30
0.0
40
0.4000
0
TEXT
8
PIT_TEXT
10
84.0740
20
14.4170
30
0.0
40
0.3000
1
STC-061
50
0.0000
0
CIRCLE
8
PIT_COLUMN
10
83.6740
20
28.0330
30
0.0
40
0.4000
0
TEXT
8
PIT_TEXT
10
84.0740
20
28.4330
30
0.0
40
0.3000
1
STC-062
50
0.0000
0
CIRCLE
8
PIT_COLUMN
10
83.6740
20
42.0500
30
0.0
40
0.4000
0
TEXT
8
PIT_TEXT
10
84.0740
20
42.4500
30
0.0
40
0.3000
1
STC-063
50
0.0000
0
CIRCLE
8
PIT_COLUMN
10
84.5870
20
14.0170
30
0.0
40
0.4000
0
TEXT
8
PIT_TEXT
10
84.9870
20
14.4170
30
0.0
40
0.3000
1
STC-064
50
0.0000
0
CIRCLE
8
PIT_COLUMN
10
84.5870
20
28.0330
30
0.0
40
0.4000
0
TEXT
8
PIT_TEXT
10
84.9870
20
28.4330
30
0.0
40
0.3000
1
STC-065
50
0.0000
0
CIRCLE
8
PIT_COLUMN
10
84.5870
20
42.0500
30
0.0
40
0.4000
0
TEXT
8
PIT_TEXT
10
84.9870
20
42.4500
30
0.0
40
0.3000
1
STC-066
50
0.0000
0
TEXT
8
PIT_TITLE
10
0.0000
20
-5.0000
30
0.0
40
0.5500
1
S-01 Foundation pit support plan - PitGuard generated CAD exchange drawing
50
0.0000
0
LINE
8
PIT_DIM
10
0.0000
20
59.0660
30
0.0
11
90.0000
21
59.0660
31
0.0
0
LINE
8
PIT_DIM
10
0.0000
20
58.8160
30
0.0
11
0.0000
21
59.3160
31
0.0
0
LINE
8
PIT_DIM
10
90.0000
20
58.8160
30
0.0
11
90.0000
21
59.3160
31
0.0
0
TEXT
8
PIT_DIM
10
45.0000
20
61.0660
30
0.0
40
0.2800
1
90.0 m
50
0.0000
0
LINE
8
PIT_DIM
10
93.0000
20
0.0000
30
0.0
11
93.0000
21
56.0660
31
0.0
0
LINE
8
PIT_DIM
10
93.0000
20
-0.2500
30
0.0
11
93.0000
21
0.2500
31
0.0
0
LINE
8
PIT_DIM
10
93.0000
20
55.8160
30
0.0
11
93.0000
21
56.3160
31
0.0
0
TEXT
8
PIT_DIM
10
93.0000
20
28.8330
30
0.0
40
0.2800
1
56.1 m
50
0.0000
0
LWPOLYLINE
8
PIT_FRAME
90
4
70
1
10
0.0000
20
-18.0000
10
120.0000
20
-18.0000
10
120.0000
20
-2.0000
10
0.0000
20
-2.0000
0
LINE
8
PIT_FRAME
10
18.0000
20
-18.0000
30
0.0
11
18.0000
21
-2.0000
31
0.0
0
LINE
8
PIT_FRAME
10
80.0000
20
-18.0000
30
0.0
11
80.0000
21
-2.0000
31
0.0
0
LINE
8
PIT_FRAME
10
95.0000
20
-18.0000
30
0.0
11
95.0000
21
-2.0000
31
0.0
0
LINE
8
PIT_FRAME
10
108.0000
20
-18.0000
30
0.0
11
108.0000
21
-2.0000
31
0.0
0
LINE
8
PIT_FRAME
10
0.0000
20
-14.0000
30
0.0
11
120.0000
21
-14.0000
31
0.0
0
LINE
8
PIT_FRAME
10
0.0000
20
-10.0000
30
0.0
11
120.0000
21
-10.0000
31
0.0
0
LINE
8
PIT_FRAME
10
0.0000
20
-6.0000
30
0.0
11
120.0000
21
-6.0000
31
0.0
0
TEXT
8
PIT_TITLE
10
2.0000
20
-5.0000
30
0.0
40
0.3500
1
工程名称
50
0.0000
0
TEXT
8
PIT_TEXT
10
20.0000
20
-5.0000
30
0.0
40
0.3500
1
杭州软土 30.2m 深大型地下室基坑规范算法回归算例
50
0.0000
0
TEXT
8
PIT_TITLE
10
2.0000
20
-9.0000
30
0.0
40
0.3500
1
图名
50
0.0000
0
TEXT
8
PIT_TEXT
10
20.0000
20
-9.0000
30
0.0
40
0.3500
1
基坑围护与支撑平面布置图
50
0.0000
0
TEXT
8
PIT_TITLE
10
2.0000
20
-13.0000
30
0.0
40
0.3500
1
阶段
50
0.0000
0
TEXT
8
PIT_TEXT
10
20.0000
20
-13.0000
30
0.0
40
0.3500
1
施工图深化接口
50
0.0000
0
TEXT
8
PIT_TITLE
10
82.0000
20
-5.0000
30
0.0
40
0.3500
1
图号
50
0.0000
0
TEXT
8
PIT_TEXT
10
97.0000
20
-5.0000
30
0.0
40
0.3500
1
S-01
50
0.0000
0
TEXT
8
PIT_TITLE
10
82.0000
20
-9.0000
30
0.0
40
0.3500
1
比例
50
0.0000
0
TEXT
8
PIT_TEXT
10
97.0000
20
-9.0000
30
0.0
40
0.3500
1
1:200
50
0.0000
0
TEXT
8
PIT_TITLE
10
82.0000
20
-13.0000
30
0.0
40
0.3500
1
设计
50
0.0000
0
TEXT
8
PIT_TEXT
10
97.0000
20
-13.0000
30
0.0
40
0.3500
1
AI
50
0.0000
0
TEXT
8
PIT_TITLE
10
82.0000
20
-17.0000
30
0.0
40
0.3500
1
校核
50
0.0000
0
TEXT
8
PIT_TEXT
10
97.0000
20
-17.0000
30
0.0
40
0.3500
1
REVIEW
50
0.0000
0
ENDSEC
0
EOF
